<?xml version="1.0" encoding="UTF-8"?>
<!DOCTYPE svg PUBLIC "-//W3C//DTD SVG 1.1//EN" "http://www.w3.org/Graphics/SVG/1.1/DTD/svg11.dtd">
<!-- Creator: CorelDRAW 2019 (64-Bit) -->
<svg xmlns="http://www.w3.org/2000/svg" xml:space="preserve" width="250px" height="56px" version="1.1" style="shape-rendering:geometricPrecision; text-rendering:geometricPrecision; image-rendering:optimizeQuality; fill-rule:evenodd; clip-rule:evenodd"
viewBox="0 0 240.64 53.8"
 xmlns:xlink="http://www.w3.org/1999/xlink"
 xmlns:xodm="http://www.corel.com/coreldraw/odm/2003">
 <defs>
  <style type="text/css">
   <![CDATA[
    .fil0 {fill:#434242}
   ]]>
  </style>
 </defs>
 <g id="Layer_x0020_1">
  <metadata id="CorelCorpID_0Corel-Layer"/>
  <g id="_2310426936128">
   <path class="fil0" d="M28.64 50.19c-7.83,0 -12.84,-1.47 -17.98,-6.62 -1.02,-1.02 -1.7,-1.55 -2.51,-2.78 -6.85,-10.37 -5.93,-22.18 2.82,-30.99 0.94,-0.95 1.99,-1.66 3.16,-2.44 18.02,-12.02 43.51,5.74 34.33,28.73 -0.6,1.5 -1.11,2.37 -1.96,3.64l-1.74 2.31c-3.6,4.57 -10.2,8.15 -16.12,8.15zm-28.64 -23.35c0,3.74 1.11,8.44 2.38,11.01 7.03,14.19 21.54,19.7 36.26,13.32 0.89,-0.39 0.2,-0.07 1.02,-0.54 1.91,-1.12 2.04,-1.03 3.97,-2.56 0.37,-0.29 0.45,-0.45 0.8,-0.76 1.29,-1.18 2.89,-2.49 4.13,-4.27 0.91,-1.32 1.74,-2.56 2.48,-4.06 3.77,-7.56 3.69,-15.73 0.42,-23.44 -1.12,-2.64 -3.29,-5.42 -5.32,-7.45 -1.21,-1.21 -1.96,-1.84 -3.27,-2.95 -0.6,-0.51 -1.17,-0.81 -1.89,-1.23 -0.89,-0.51 -1.19,-0.78 -2.17,-1.24 -9.25,-4.37 -19.76,-3.31 -27.92,2.7 -6.68,4.92 -10.89,12.94 -10.89,21.47z"/>
   <path class="fil0" d="M26.77 46.45c3.9,0 7.8,-0.31 11.08,-2.3 1.03,-0.62 1.68,-0.89 1.99,-2.06l-7.78 0 0 -34.54 -5.29 0 0 38.9z"/>
   <path class="fil0" d="M7.16 26.84c0,4.03 1.33,9.11 3.82,12.06 0.27,0.32 0.35,0.34 0.59,0.65 1.1,1.39 0.05,0.53 1.69,1.74 1.86,1.36 0.28,0.88 4.27,2.88 1.71,0.85 4.78,2.23 7.06,2.28l0 -4.04c-2.93,-0.07 -8.19,-3.29 -9.53,-5.11 -2.26,-3.05 -3.98,-5.94 -3.65,-10.91 0.3,-4.37 0.83,-7.28 4.07,-10.52 1.21,-1.21 2.84,-2.32 4.44,-3.03 0.74,-0.34 1.87,-0.72 2.75,-0.98 2.7,-0.82 2.54,1.12 2.54,-4.31 -7.99,0 -14,4.46 -16.69,11.32 -0.75,1.93 -1.36,5.43 -1.36,7.97z"/>
   <path class="fil0" d="M66.3 25.6c0,5.48 -1.09,14.94 6.53,14.94 0.85,0 2.57,-0.37 3.13,-0.61 3.24,-1.37 3.72,-4.92 3.72,-8.42 0,-1.24 -0.88,-0.93 -3.11,-0.93 -1.9,0 -0.17,3.47 -1.78,5.38 -1.24,1.46 -4.14,0.86 -4.14,-1.65l0 -14.62c0,-3.27 4.18,-3.18 4.62,-0.89 0.2,1.01 0.36,2.65 0.36,3.69 4.69,0 4.28,0.3 3.81,-2.56 -0.25,-1.54 -0.16,-2.16 -0.68,-3.37 -1.78,-4.09 -10.18,-4.59 -11.73,0.75 -0.57,2 -0.73,5.79 -0.73,8.29z"/>
   <path class="fil0" d="M171.81 19.37c0,6.1 2.75,6.69 7.34,10.71 1.27,1.11 2,2.53 2,4.23 0,3.22 -5.8,3.7 -5.92,-1.55 -1.89,0 -2.49,0.31 -4.04,0.31 0.06,2.93 1.51,5.46 4.13,6.76 7.45,3.68 13.44,-5.65 7.47,-12.14 -0.62,-0.68 -5.2,-4.05 -6.01,-5.19 -2.95,-4.19 1.21,-6.79 3.37,-4.62 0.6,0.61 0.57,1.39 0.73,2.08 0.37,0.77 0.69,0.59 1.9,0.52 0.84,-0.1 2.06,-0.14 2.1,-0.79 0,-8.23 -13.07,-8.33 -13.07,-0.32z"/>
   <path class="fil0" d="M229.08 14.71l0 25.21 11.51 0 0 -3.43 -7.47 0 0 -8.4 5.92 0 0 -3.42 -5.92 0 0 -7.16c8.55,0 7.47,0.77 7.47,-2.8 0,-0.72 -0.21,-0.94 -0.93,-0.94l-9.65 0c-0.72,0 -0.93,0.22 -0.93,0.94z"/>
   <path class="fil0" d="M158.42 39.92l11.21 0 0 -3.43 -7.16 0 0 -8.4 5.6 0 0 -3.42 -5.6 0 0 -7.16c8.39,0 7.16,0.98 7.16,-3.74l-11.21 0 0 26.15z"/>
   <path class="fil0" d="M205.11 30.27c0,3.18 0.14,6.49 -0.12,9.65l4.17 0c0,-6.71 -0.68,-9.03 1.05,-14.21 0.72,-2.17 3.8,-10.35 3.93,-11.94 -4.89,0 -3.38,-0.91 -5.25,4.71 -0.46,1.37 -1.12,3.98 -1.72,5.32 -0.48,-1.17 -2.87,-8.25 -3.3,-10.03l-4.05 0c0.22,2.66 5.29,14.36 5.29,16.5z"/>
   <path class="fil0" d="M145.04 39.92l4.05 0 0 -11.83c6.9,0 5.91,0.82 5.91,-3.42l-5.91 0 0 -7.16c8.39,0 7.16,0.98 7.16,-3.74l-11.21 0 0 26.15z"/>
   <path class="fil0" d="M107.69 29.65l0 10.27 4.05 0c0,-14.31 -0.42,-8.87 3.93,-21.91 0.39,-1.17 1.28,-3.24 1.36,-4.24l-3.74 0c-0.7,1.47 -2.6,9.13 -3.73,9.96l-3.11 -9.96 -3.74 0c0.06,2.44 4.98,13.79 4.98,15.88z"/>
   <path class="fil0" d="M88.71 14.71c0,3.39 -0.69,2.8 4.66,2.8l0 22.41 4.05 0 0 -22.41c5.51,0 4.67,0.77 4.67,-3.74l-12.45 0c-0.72,0 -0.93,0.22 -0.93,0.94z"/>
   <path class="fil0" d="M186.13 16.57c0,1.39 1.45,0.94 4.66,0.94l0 19.61c-0.03,1.48 -0.05,1.44 -0.06,2.76l4.11 0.04 0 -22.41 4.36 0 0 -3.74 -13.07 0 0 2.8z"/>
   <polygon class="fil0" points="123.88,39.92 134.46,39.92 134.46,36.49 127.92,36.49 127.92,13.77 123.88,13.77 "/>
   <polygon class="fil0" points="216.32,39.92 226.9,39.92 226.9,36.49 220.36,36.49 220.36,13.77 216.32,13.77 "/>
   <polygon class="fil0" points="136.64,39.92 140.68,39.92 140.68,13.77 136.64,13.77 "/>
   <path class="fil0" d="M82.48 14.71l0 25.21 4.36 0c-0.74,-3.18 -0.31,-19.76 -0.31,-24.28 0,-1.9 1.51,-1.87 -3.12,-1.87 -0.71,0 -0.93,0.22 -0.93,0.94z"/>
   <path class="fil0" d="M47.31 49.57c0,3.25 -0.18,2.52 0.62,3.11l0 -3.11 1.25 0c0,2.45 -0.21,2.07 0.31,3.11 0.9,-0.66 0.58,0.04 0.62,-1.56l1.25 1.25c0.16,-0.7 0.31,-0.72 0.31,-1.56l0.31 0c0,1.61 -0.28,1.21 0.62,1.87l0 -3.74c-1.8,0.48 -0.22,0.98 -1.87,2.18 -0.11,-1.31 -0.35,-1.02 -0.62,-2.18 -1.78,0.42 -0.41,0 -2.8,0 -1.25,0 -1.41,0.51 0,0.63z"/>
  </g>
 </g>
</svg>
