<?xml version="1.0" encoding="UTF-8"?><svg id="Layer_1" xmlns="http://www.w3.org/2000/svg" width="284.15" height="128.6" viewBox="0 0 284.15 128.6"><defs><style>.cls-1,.cls-2{fill:#2b2a29;fill-rule:evenodd;}.cls-2{stroke:#2b2a29;stroke-miterlimit:10;stroke-width:.57px;}</style></defs><path class="cls-1" d="m55.18,23.39l3.18-.66-.18-18.96L1.29,3.58l.09,2.75s2.93.09,4.85,1.19c1.92,1.1,4.67,1.56,4.76,12.27.09,10.72.18,34.63,0,39.21-.18,4.58-2.02,8.52-5.4,8.98-3.39.46,0,0,0,0l-4.31.55v3.11l36.55.09-.18-2.84s-4.86.09-7.42-2.38c-2.56-2.47-2.84-7.51-3.02-15.85-.18-8.34-.27-10.72-.27-10.72,0,0,6.96-.18,9.53.18,2.56.37,5.5,3.57,6.14,9.34l3.21.09-.18-23.08-3.11-.18s-1.01,8.7-6.23,8.98c-5.22.27-9.16.46-9.16.46l.27-27.21s3.66.05,9.76,0c6.09-.05,9.76,1.1,12,3.71,2.24,2.61,6.02,11.15,6.02,11.15h0Z"/><path class="cls-2" d="m100.95,25.89l21.84-4.28-.18,10.83s7.56-15.85,20.29-9.3l-5.27,13.15s-9.16-5.5-14.89-.14c-.23,11.45-.27,23.86-.09,26.88.18,3.02,1.1,5.13,5.04,5.4s3.39.37,3.39.37v2.93l-30.05-.09.27-3.11s4.58.92,5.86-2.47c1.28-3.39.87-16.91.82-23.08-.05-6.18-.11-12.41-2.29-13.92-2.18-1.51-4.49-.92-4.49-.92l-.27-2.24h0Z"/><path class="cls-2" d="m192.19,40.31c-2.02-10.9-13.01-24.1-30.87-15.12l.37-23.27-21.8,4.4-.09,2.11s3.3-.18,4.85,1.55c1.56,1.74,2.29,1.38,2.11,21.53-.18,20.15,0,38.74,0,38.74,0,0,14.93,5.04,28.4,1.47,13.46-3.57,19.05-20.52,17.04-31.42Zm-22.9,27.85c-2.93,2.2-7.79,1.1-7.79,1.1l-.39-40.74c4.48-2.75,14.59-1.49,15.78,14.91,1.19,16.39-4.67,22.53-7.6,24.73Z"/><path class="cls-2" d="m241.47,45.17s.45-13.92-8.06-19.79c-8.52-5.86-22.72-5.03-31.33,5.13-8.61,10.17-8.06,31.69,6.6,39.12,14.66,7.42,27.39.55,32.15-5.68l-1.65-1.83s-6.96,6.6-17.59,2.38c-11.54-5.09-10-19.35-10-19.35l29.88.02Zm-29.96-3.48c.1-9.8,3.85-17.13,9.53-16.58,5.5.59,5.68,16.31,5.68,16.31l-15.21.27Z"/><path class="cls-2" d="m244.31,55.98l2.47-1.01s3.21,11.22,10.99,13.19c7.79,1.97,13.83-5.5,9.71-11.36-4.12-5.86-12.82-4.21-18.96-10.72-6.14-6.5-2.47-18.96,6.14-22.26,8.61-3.3,18.87-2.34,24.73.46.37,12.46.32,12.6.32,12.6l-2.06.18s-1.92-8.24-8.11-10.85c-6.18-2.61-10.95,1.01-10.99,6.73-.05,5.73,14.11,9.98,14.11,9.98,0,0,17.54,5.95,6,24-6.09,7.97-27.39,5.93-33.98,2.75-.09-10.58-.37-13.69-.37-13.69h0Z"/><path class="cls-2" d="m86.54,23.53c-13.92-5.22-23.82,2.2-23.82,2.2-18.5,11.64-10.9,38.2,0,44.06s29.5,2.93,35.27-9.99c5.77-12.91,2.47-31.05-11.45-36.27Zm-7.61,45.68c-6.05,1.92-10.9-4.03-11.91-16.85-1.01-12.82,1.74-20.8,1.74-20.8,0,0,1.56-6.96,7.33-6.6,5.77.37,9.34,7.97,9.44,19.05.09,11.09-.55,23.27-6.6,25.19Z"/><polygon class="cls-2" points="28.18 125.3 12.79 90.5 26.53 90.4 36.52 114.31 46.23 90.68 57.86 90.68 42.38 125.58 28.18 125.3"/><polygon class="cls-1" points="62.99 90.68 63.08 125.76 97.8 125.49 97.8 117.06 75.27 117.06 75.27 111.47 93.77 111.47 93.77 103.69 75.27 103.69 75.36 98.56 97.87 98.65 97.78 90.75 62.99 90.68"/><polygon class="cls-2" points="102.47 98.97 102.47 90.68 139.02 90.68 139.02 99.11 126.98 99.11 127.11 124.98 114.29 124.98 114.47 98.88 102.47 98.97"/><polygon class="cls-2" points="143.97 98.97 143.97 90.68 180.52 90.68 180.52 99.11 168.47 99.11 168.61 124.98 155.79 124.98 155.97 98.88 143.97 98.97"/><polygon class="cls-2" points="186.52 125.19 186.42 90.72 220.41 90.49 220.32 98.65 199.16 98.69 199.16 103.73 217.34 103.68 217.34 111.97 199.25 111.97 199.27 117.22 221.42 117.36 221.42 125.19 186.52 125.19"/><path class="cls-2" d="m251.87,91.11l-23.27-.37-.18,34.81s20.89-.37,24.37-.55,17.77-2.38,18.14-17.59c.37-15.21-19.05-16.31-19.05-16.31Zm1.38,25c-2.89,1.33-12.19,1.1-12.19,1.1l-.14-18.45c4.27.04,13.43-1.26,16.17,4.48,2.7,7.92-.97,11.54-3.85,12.87Z"/></svg>