<?xml version="1.0" encoding="UTF-8"?>
<!DOCTYPE svg PUBLIC "-//W3C//DTD SVG 1.1//EN" "http://www.w3.org/Graphics/SVG/1.1/DTD/svg11.dtd">
<!-- Creator: CorelDRAW 2019 (64-Bit) -->
<svg xmlns="http://www.w3.org/2000/svg" xml:space="preserve" width="144px" height="64px" version="1.1" style="shape-rendering:geometricPrecision; text-rendering:geometricPrecision; image-rendering:optimizeQuality; fill-rule:evenodd; clip-rule:evenodd"
viewBox="0 0 151.75 67.59"
 xmlns:xlink="http://www.w3.org/1999/xlink"
 xmlns:xodm="http://www.corel.com/coreldraw/odm/2003">
 <defs>
  <style type="text/css">
   <![CDATA[
    .fil0 {fill:#231F20}
    .fil2 {fill:#FBFBFB}
    .fil1 {fill:#FEFEFE}
   ]]>
  </style>
 </defs>
 <g id="Layer_x0020_1">
  <metadata id="CorelCorpID_0Corel-Layer"/>
  <path class="fil0" d="M97.41 42.6c2.54,-0.31 5.7,-0.91 7.78,-0.36 -0.29,1.92 -3.47,7.81 -4.69,10.36 -1.51,3.17 -1.15,2.42 -2.56,2.69 -1.06,-2.17 -0.53,-10.04 -0.53,-12.69zm-0.08 -0.22c-13.07,0.67 -6.74,-2.36 -13.37,5.41 -9.41,11.02 -30.57,4.74 -29.96,-15.04 0.6,-19.15 22.24,-23.46 30.52,-12.22 4.3,5.84 -0.06,5.42 13.1,5.43l-0.29 16.42zm-53.5 9.83c-8.96,-7.78 -8.13,-29.27 -0.02,-37.68l0.16 2.07 0.02 33.46 -0.16 2.15zm70.5 -21.08l0.07 6.27 -3.56 -3.01 3.49 -3.26zm-16.36 -18.86c1.97,0.42 1.44,0.83 2.47,2.94 1.46,3.01 4.75,8.31 5.25,10.72l-8.02 0.01 0.3 -13.67zm52.36 -11.23c-15.21,0.24 -16.21,-2 -20.8,5.88 -2.09,3.59 -13.16,21.72 -14.86,22.55 -1.08,-3.09 -0.28,-23.01 -0.36,-28.08l-16.8 0.18 -0.03 9.12c-4.2,-2.93 -5.81,-5.14 -11.51,-7.76 -4.66,-2.15 -10.24,-3.1 -15.93,-2.91 -5.52,0.19 -10.55,1.61 -14.81,3.98 -7.17,3.97 -7.18,5.63 -9.33,7.37 -1.34,1.09 -0.27,0.33 -1.73,1l-0.02 -10.72 -16.28 -0.01c-0.11,9.43 -0.02,18.91 -0.02,28.34 0,5.78 1.83,23.21 -5.19,22.88 -4.05,-0.18 -5.68,-7.05 -5.68,-7.05l-16.81 0.15c-3.06,25.35 36.84,28.69 43.01,7.78 2.01,1.05 3.92,3.56 5.4,4.98 11.72,11.19 30.84,11.68 43.98,2.12 1.86,-1.36 3.44,-3.25 5.15,-4.02l0.08 9.47 16.85 -0.1 0.03 -26.37c2.32,1.66 11.81,17.08 13.24,19.31 3.98,6.24 3.67,7.29 8.49,7.39 4.8,0.09 10.61,0.28 15.35,-0.05 -1.63,-3.18 -8.65,-12.58 -11.12,-16.16l-11.64 -16.56 21.34 -32.71z"/>
  <path class="fil1" d="M43.83 52.21l0.16 -2.15 -0.02 -33.46 -0.16 -2.07c-8.11,8.41 -8.94,29.9 0.02,37.68z"/>
  <path class="fil1" d="M97.41 42.6c0,2.65 -0.53,10.52 0.53,12.69 1.41,-0.27 1.05,0.48 2.56,-2.69 1.22,-2.55 4.4,-8.44 4.69,-10.36 -2.08,-0.55 -5.24,0.05 -7.78,0.36z"/>
  <path class="fil1" d="M97.67 25.94l8.02 -0.01c-0.5,-2.41 -3.79,-7.71 -5.25,-10.72 -1.03,-2.11 -0.5,-2.52 -2.47,-2.94l-0.3 13.67z"/>
  <polygon class="fil2" points="110.84,34.39 114.4,37.4 114.33,31.13 "/>
 </g>
</svg>
