<?xml version="1.0" encoding="UTF-8"?>
<!DOCTYPE svg PUBLIC "-//W3C//DTD SVG 1.1//EN" "http://www.w3.org/Graphics/SVG/1.1/DTD/svg11.dtd">
<!-- Creator: CorelDRAW 2019 (64-Bit) -->
<svg xmlns="http://www.w3.org/2000/svg" xml:space="preserve" width="237px" height="34px" version="1.1" style="shape-rendering:geometricPrecision; text-rendering:geometricPrecision; image-rendering:optimizeQuality; fill-rule:evenodd; clip-rule:evenodd"
viewBox="0 0 235.34 34.14"
 xmlns:xlink="http://www.w3.org/1999/xlink"
 xmlns:xodm="http://www.corel.com/coreldraw/odm/2003">
 <defs>
  <style type="text/css">
   <![CDATA[
    .fil0 {fill:black}
   ]]>
  </style>
 </defs>
 <g id="Layer_x0020_1">
  <metadata id="CorelCorpID_0Corel-Layer"/>
  <path class="fil0" d="M51.5 28.44l-1.96 -6.73 -0.82 -3.63c0.12,-0.03 0.02,-0.28 0.02,-0.31 -0.7,-5.76 -5.14,-5.11 -8.03,-4.12 0,0 -0.15,0.14 -0.14,-0.05 0.01,-0.23 0.01,-2.56 0.01,-3.19 0,-0.15 0.13,-0.19 0.13,-0.19 3.6,-1.58 8.82,-1.45 12.02,0.15 2.41,1.21 3.81,3.04 5.14,8.53 0.36,1.52 0.78,3.61 1.94,8.14 0.55,2.18 1.14,2.99 2.34,2.77 0.15,-0.03 0.16,0.04 0.16,0.17 -0.01,1.04 -0.01,2.77 -0.01,2.89 0,0.36 0,0.36 -0.12,0.35 -0.15,0 -3.32,0.01 -3.32,0.01 -1.44,-0.01 -3.19,-0.01 -5.48,-2.01l-1.88 -2.78z"/>
  <path class="fil0" d="M51.5 28.44c0.05,0.17 -0.18,0.33 -0.33,0.4 -4.99,2.83 -6.8,-5.56 -1.94,-7.18 0.19,-0.05 0.31,0.05 0.31,0.05l-0.82 -3.63c-2.59,0.57 -6.67,1.74 -8.43,3.41 -3.95,3.73 -2.25,9.73 2.09,11.28 2.42,0.87 7.42,1.56 11.01,-1.54l-1.89 -2.79z"/>
  <path class="fil0" d="M85.36 8.64c2.74,0 4.97,-1.79 4.97,-4.01 0,-2.22 -2.23,-4.02 -4.97,-4.02 -2.75,0 -4.97,1.8 -4.97,4.02 0,2.22 2.22,4.01 4.97,4.01z"/>
  <path class="fil0" d="M107.55 19.56c0.15,-0.04 0.76,-0.02 0.71,-0.87 -0.13,-2.17 -0.67,-3.64 -1.31,-4.51 -1.19,-1.62 -3.38,-1.68 -4.51,0.73 -0.66,1.4 -0.79,3.95 -0.7,5.65 0.04,0.53 0.12,0.56 0.61,0.44l0.39 3.2c-0.18,0.1 -0.39,0.02 -0.14,0.68 1.56,4.19 3.8,4.76 6.79,4.59 1.55,-0.09 3.28,-0.89 3.89,-1.21 0.61,-0.33 0.51,0.06 0.51,0.29l0 2.83c0,0.46 0.05,0.62 -0.76,0.91 -4.09,1.5 -9.46,1.85 -13.63,-0.2 -3.5,-1.72 -6.69,-6.27 -6.42,-11.24 0.44,-7.9 5.35,-12.17 12.71,-11.93 5.8,0.19 10.23,4.44 10.77,10.69 0.03,0.26 0.02,0.66 -0.23,0.8l-8.68 -0.85zm0 0c-1.02,0.32 -5.2,1.44 -5.2,1.44l0.39 3.2c0.16,-0.09 13.49,-3.79 13.49,-3.79l-8.68 -0.85z"/>
  <path class="fil0" d="M35.72 31.4c0,1.08 0.25,1.49 0.34,1.67 0.07,0.16 -0.15,0.14 -0.15,0.14l-1.68 0 -7 0c0,0 -0.17,0.01 -0.12,-0.14 0.11,-0.29 0.32,-0.82 0.32,-1.67l-0.01 -1.13 0 -10.67 0 -2.01c-0.01,-0.75 -0.47,-2.37 -2.3,-2.38 -1.52,0.02 -2.93,1.39 -2.93,3.29l0 3.99 0 7.95c0,0 0,0.92 0,0.96 0,1.08 0.25,1.49 0.33,1.67 0.07,0.16 -0.14,0.14 -0.14,0.14l-1.68 0 -7 0c0,0 -0.17,0.01 -0.12,-0.14 0.1,-0.29 0.31,-0.82 0.31,-1.67l0 -0.6 0 -11.19 0 -2c0,-0.76 -0.47,-2.38 -2.3,-2.39 -1.51,0.01 -2.92,1.39 -2.92,3.29l0 1.03 0 11.21 -0.01 0.65c0,1.08 0.25,1.49 0.33,1.67 0.07,0.16 -0.14,0.14 -0.14,0.14l-1.68 0 -7 0c0,0 -0.18,0.01 -0.13,-0.14 0.11,-0.29 0.32,-0.82 0.32,-1.67l0 -0.76c0,-2.79 0,-15.04 -0.01,-16.16 0.01,-0.74 -0.22,-1.27 -0.33,-1.55 -0.07,-0.15 0.08,-0.22 0.08,-0.22 0,0 3.19,-1.43 8.43,-3.85 0.05,-0.02 0.14,0.01 0.14,0.1l0 2.11 0 1.81c0,0.1 0.1,0.15 0.18,0.07 0.05,-0.05 0.1,-0.12 0.17,-0.2 2.87,-4.37 11.81,-5.08 13.22,0.15 0.02,0.09 0.12,0.08 0.18,0 1.77,-2.37 3.54,-3.56 7.19,-3.56 7.13,0 6.11,6.08 6.1,9.83l0.01 11.1 0 1.13z"/>
  <path class="fil0" d="M72.9 31.41c0,1.08 0.25,1.5 0.33,1.68 0.08,0.16 -0.14,0.14 -0.14,0.14l-2.13 0 -7 0c0,0 -0.17,0 -0.12,-0.14 0.1,-0.3 0.31,-0.82 0.32,-1.68l0 -0.64c0,-2.78 0,-14.66 0,-15.78 0,-0.63 -0.43,-1.8 -0.51,-2.02 -0.05,-0.11 0.12,-0.15 0.12,-0.15 0,0 3.79,-1.93 9,-4.35 0.05,-0.02 0.14,0.01 0.14,0.11l0 2.34c0,0.32 0.03,1.3 0.03,1.43 0,0.1 0.1,0.16 0.18,0.07 0.05,-0.05 0.11,-0.11 0.17,-0.2 1.95,-3.82 5.04,-3.7 7.39,-3.35 0.3,0.05 0.26,0.15 0.18,0.54 -0.16,0.76 -1.19,5.03 -1.28,5.34 -0.08,0.27 -0.15,0.39 -0.47,0.32 -2.95,-0.62 -6.2,0.34 -6.2,4.02l0 0.53c0,2.68 0,9.24 0,11.15l-0.01 0.64z"/>
  <path class="fil0" d="M90.01 31.41c0,1.08 0.25,1.5 0.33,1.68 0.07,0.16 -0.14,0.14 -0.14,0.14l-2.14 0 -7 0c0,0 -0.18,0.01 -0.13,-0.14 0.11,-0.3 0.32,-0.82 0.32,-1.68l0.01 -0.12 0 -18.21c0,-0.45 0,-0.46 0.31,-0.6 0.17,-0.08 0.11,-0.05 0.11,-0.05 0,0 3.02,-1.49 8.06,-3.86 0.05,-0.03 0.26,0.01 0.26,0.1 0,0.72 0.01,20.73 0.01,22.66l0 0.08z"/>
  <path class="fil0" d="M143.03 29.08c-2.1,1.07 -5.23,1.42 -7.1,-0.96 -1.86,-2.37 -2.77,-4.44 -2.77,-7.83 0,-7.71 5.35,-8.72 9.42,-6.45l-0.01 -3.96c-2.29,-1.16 -5.31,-1.37 -7.58,-1.13 -6.77,0.72 -10.72,6.4 -10.73,12.85 0,7.04 4.49,15.45 18.77,11.54l0 -4.06z"/>
  <path class="fil0" d="M154.25 30.52c0,0 -0.03,-30.58 -0.02,-30.42 0,0 -6.31,2.91 -9.61,4.49 0.33,0.27 1.02,1.45 1.02,5.32l0 9.82c0,2.8 0,8.19 -0.04,12.44 -0.01,0.47 -0.31,1.12 -0.31,1.17l9.54 0c-0.09,0 -0.58,-2.82 -0.58,-2.82z"/>
  <path class="fil0" d="M170.38 28.7c0.05,0.17 -0.04,0.22 -0.2,0.3 -1.08,0.69 -2.95,0.85 -4.04,-0.17 -1.04,-1.23 -1.57,-2.62 -1.14,-4.37 0.35,-1.07 1.45,-2.95 3.28,-3.28l-0.58 -3.51c0,0.06 0,0.06 -0.19,0.1 -0.55,0.14 -0.85,0.19 -1.82,0.35 -2.03,0.34 -4.33,1.03 -6.25,2.53 -5.45,4.23 -2.89,10.47 1.54,12.31 2.59,1.07 7.16,1.69 10.93,-1.46l-1.53 -2.8z"/>
  <path class="fil0" d="M170.38 28.7l-2.03 -7.48c0,0 0,-0.06 -0.07,-0.04l-0.58 -3.51c-0.41,-6.27 -5.45,-5.69 -8.25,-4.65 0,0 -0.15,0.15 -0.14,-0.05 0,-0.24 0.01,-2.66 0.01,-3.31 -0.01,-0.16 0.13,-0.2 0.13,-0.2 3.56,-1.56 9,-1.35 12.15,0.23 2.76,1.37 4.13,3.91 4.68,6.09 0,0 2.47,11.29 2.75,12.51 0.23,0.98 0.87,1.83 1.86,1.83 0.4,0 0.45,0.07 0.46,0.48 0,0.99 0.01,2.51 0,2.72 0,0.26 -0.02,0.35 -0.21,0.35 -0.16,0 -3.43,0.01 -3.43,0.01 -1.75,-0.01 -3.2,-0.01 -5.8,-2.18l-1.53 -2.8z"/>
  <path class="fil0" d="M187.98 8.33c2.84,0 5.15,-1.86 5.15,-4.17 0,-2.3 -2.31,-4.16 -5.15,-4.16 -2.86,0 -5.16,1.86 -5.16,4.16 0,2.31 2.3,4.17 5.16,4.17z"/>
  <path class="fil0" d="M192.47 31.41l0 0.49c0,0.71 0.32,1.25 0.39,1.44 0.01,0.02 -0.02,0.03 -0.02,0.03l-2.43 0 -7.44 0c0,0 -0.03,-0.01 -0.02,-0.03 0.07,-0.18 0.39,-0.74 0.39,-1.44l0 -0.53c0,-2.89 0,-17.12 0,-18.89 0,-0.44 0.21,-0.46 0.21,-0.46 0,0 3.33,-1.7 8.77,-4.22 0.05,-0.02 0.15,0.01 0.14,0.11 0,0.75 0.01,21.5 0.01,23.5z"/>
  <path class="fil0" d="M211.86 14.89c-2.15,-0.03 -2.69,-0.17 -3.82,0.23 -1.41,0.54 -2.38,1.66 -2.41,3.38l0 1.03 0 11.9 0 0.47c0,0.69 0.31,1.22 0.39,1.4 0.01,0.02 -0.02,0.03 -0.02,0.03l-2.36 0 -7.23 0c0,0 -0.03,-0.01 -0.03,-0.04 0.07,-0.16 0.39,-0.71 0.39,-1.39l0 -0.51 0 -16.97c-0.05,-0.65 -0.31,-1.42 -0.39,-1.63 -0.05,-0.11 0.12,-0.15 0.12,-0.15 0,0 3.71,-1.72 8.99,-4.15 0.05,-0.03 0.15,0.01 0.14,0.1l0 2.13c0,0.31 0.04,1.32 0.04,1.45 0,0.1 0.1,0.15 0.19,0.07 0.04,-0.05 0.1,-0.12 0.17,-0.21 2.13,-3.94 5.6,-3.44 7.37,-3.16 0.31,0.04 0.26,0.14 0.18,0.54 -0.15,0.76 -1.16,4.84 -1.25,5.16 -0.08,0.27 -0.14,0.33 -0.47,0.32z"/>
  <path class="fil0" d="M226.42 20.09c0.15,-0.04 0.75,-0.03 0.71,-0.88 -0.14,-2.16 -0.67,-3.63 -1.31,-4.5 -1.19,-1.62 -3.38,-1.68 -4.51,0.73 -0.65,1.39 -0.78,3.95 -0.69,5.65 0.02,0.53 0.11,0.56 0.59,0.44l0.39 3.2c-0.16,0.1 -0.38,0.02 -0.13,0.68 1.56,4.19 3.8,4.76 6.79,4.59 1.55,-0.08 3.28,-0.9 3.89,-1.22 0.61,-0.32 0.52,0.07 0.52,0.3l0 2.83c0,0.46 0.03,0.62 -0.77,0.92 -4.09,1.49 -9.46,1.84 -13.62,-0.21 -3.51,-1.72 -6.7,-6.28 -6.43,-11.23 0.44,-7.91 5.35,-12.18 12.71,-11.94 5.8,0.19 10.23,4.44 10.77,10.69 0.02,0.26 0.02,0.66 -0.22,0.8l-8.69 -0.85zm0 0c-1.02,0.31 -5.21,1.44 -5.21,1.44l0.39 3.2c0.17,-0.09 13.51,-3.79 13.51,-3.79l-8.69 -0.85z"/>
 </g>
</svg>
