<?xml version="1.0" encoding="utf-8"?>
<!-- Generator: Adobe Illustrator 16.0.4, SVG Export Plug-In . SVG Version: 6.00 Build 0)  -->
<!DOCTYPE svg PUBLIC "-//W3C//DTD SVG 1.1//EN" "http://www.w3.org/Graphics/SVG/1.1/DTD/svg11.dtd">
<svg version="1.1" id="Layer_1" xmlns="http://www.w3.org/2000/svg" xmlns:xlink="http://www.w3.org/1999/xlink" x="0px" y="0px"
	 width="424px" height="78px" viewBox="0 0 424 78" enable-background="new 0 0 424 78" xml:space="preserve">
<g>
	<path fill="#EB549E" d="M395.551,59.777h-0.761V48.148h0.761c1.215,3.039,2.659,5.625,4.407,7.602
		c1.672,2.053,3.802,3.191,6.461,3.191c5.017,0,7.904-3.271,7.904-7.449c0-4.863-4.258-6.764-9.121-8.893
		c-6.312-2.584-10.26-5.396-10.26-11.706c0-6.08,4.938-10.641,13.375-10.641c3.188,0,7.066,0.988,10.865,3.876l0.385-3.876h0.76
		v11.629h-0.76c-1.369-3.876-3.117-6.46-4.941-8.285c-1.899-1.672-4.026-2.508-6.229-2.508c-3.951,0-6.611,2.812-6.611,6.308
		c0,4.712,4.332,6.764,8.057,8.208c6.841,2.812,12.16,5.702,12.16,12.542c0,7.223-6.23,11.629-14.438,11.629
		c-4.483,0-8.516-1.748-11.63-4.104L395.551,59.777z"/>
</g>
<g>
	<path fill="#EB549E" d="M148.568,59.496h-5.092l-9.196-26.903l-1.216,3.876l-7.296,23.027h-5.092l-13.681-37.242l-4.484-0.38v-0.76
		h19.153v0.76l-5.396,0.38l10.185,29.945h0.76l6.612-21.205l-2.964-8.74l-4.56-0.38v-0.76h20.217v0.76l-6.46,0.38l9.196,29.945h0.76
		l8.74-28.425l-6.08-1.9v-0.76h14.137v0.76l-6.917,1.9L148.568,59.496z"/>
</g>
<g>
	<path fill="#959595" d="M24.485,24.943c0-1.56-0.81-2.4-2.1-2.4c-1.53,0-2.31,0.84-3.96,2.19v7.979c0,1.5,0.3,1.5,2.37,1.801v1.109
		h-7.41v-1.109c1.5-0.301,1.8-0.301,1.8-1.801v-7.77c0-1.56-0.81-2.4-2.1-2.4c-1.32,0-2.13,0.42-3.959,1.8v8.369
		c0,1.5,0.3,1.5,2.37,1.801v1.109h-8.01v-1.109c2.1-0.301,2.4-0.301,2.4-1.801v-8.879c0-1.5-0.3-1.5-2.1-1.8v-1.11l4.53-0.6h0.81
		v2.7h0.3c1.59-1.8,2.94-2.7,5.13-2.7c1.68,0,3.24,0.84,3.72,3.12h0.3c1.53-1.92,3.09-3.12,5.28-3.12c2.01,0,3.87,1.2,3.87,4.5
		v7.889c0,1.5,0.3,1.5,2.37,1.801v1.109h-7.41v-1.109c1.5-0.301,1.8-0.301,1.8-1.801L24.485,24.943L24.485,24.943z"/>
	<path fill="#959595" d="M38.946,34.272c-1.56,1.05-2.7,1.649-4.5,1.649c-2.25,0-3.51-1.379-3.51-3.18c0-1.89,1.29-3.119,4.65-4.29
		l3.66-1.26v-2.94c0-1.38-1.05-2.52-3.21-2.52c-0.6,0-1.32,0.09-2.04,0.36v0.3c1.56,0.45,1.38,3.18-0.63,3.18
		c-1.439,0-1.83-1.02-1.83-1.68c0-1.77,2.76-3.57,6.03-3.57c3.09,0,4.89,1.35,4.89,4.8v7.59c0,1.5,0.33,1.5,2.4,1.8v1.11
		c-0.9,0.149-2.31,0.299-3.21,0.299c-1.32,0-2.4-0.299-2.4-1.649L38.946,34.272L38.946,34.272z M39.246,28.184l-2.67,1.109
		c-1.77,0.721-2.4,1.5-2.4,2.701c0,1.14,0.93,1.89,2.07,1.89c0.99,0,2.1-0.181,3-0.601V28.184z"/>
	<path fill="#959595" d="M51.306,24.344h0.3c1.17-2.399,2.43-3.959,4.08-4.02c0.81-0.03,1.95,0.45,1.95,1.95
		c0,2.07-2.76,2.28-3.3,0.63h-0.3c-0.99,0.75-1.979,2.1-2.729,3.359v6.45c0,1.5,0.3,1.5,2.37,1.8v1.11h-8.01v-1.11
		c2.1-0.3,2.4-0.3,2.4-1.8v-8.88c0-1.5-0.3-1.5-2.1-1.8v-1.11l4.53-0.6h0.81L51.306,24.344L51.306,24.344z"/>
	<path fill="#959595" d="M63.545,31.812c0,1.92,0.6,2.4,1.8,2.4c0.6,0,0.78,0,2.37-0.15v0.811c-1.38,0.72-2.7,1.049-4.2,1.049
		c-2.1,0-3.21-1.049-3.21-3.6v-10.29h-2.19v-1.26l2.19-0.15v-3.6h3.24v3.6h4.17v1.41h-4.17V31.812L63.545,31.812z"/>
	<path fill="#959595" d="M74.585,23.023h0.3c1.65-1.74,3.24-2.7,5.43-2.7c2.01,0,3.87,1.2,3.87,4.5v7.889c0,1.5,0.3,1.5,2.37,1.801
		v1.109h-7.41v-1.109c1.5-0.301,1.8-0.301,1.8-1.801v-7.77c0-1.35-0.75-2.4-2.1-2.4c-1.32,0-2.55,0.42-4.26,1.8v8.369
		c0,1.5,0.3,1.5,2.37,1.801v1.109h-8.01v-1.109c2.1-0.301,2.4-0.301,2.4-1.801V17.233c0-1.5-0.3-1.5-2.1-1.8v-1.11l4.53-0.6h0.81
		V23.023L74.585,23.023z"/>
	<path fill="#959595" d="M95.404,34.272c-1.56,1.05-2.7,1.649-4.5,1.649c-2.25,0-3.51-1.379-3.51-3.18c0-1.89,1.29-3.119,4.65-4.29
		l3.66-1.26v-2.94c0-1.38-1.05-2.52-3.21-2.52c-0.6,0-1.32,0.09-2.04,0.36v0.3c1.56,0.45,1.38,3.18-0.63,3.18
		c-1.44,0-1.83-1.02-1.83-1.68c0-1.77,2.76-3.57,6.03-3.57c3.089,0,4.89,1.35,4.89,4.8v7.59c0,1.5,0.329,1.5,2.399,1.8v1.11
		c-0.9,0.149-2.31,0.299-3.21,0.299c-1.32,0-2.399-0.299-2.399-1.649L95.404,34.272L95.404,34.272z M95.705,28.184l-2.67,1.109
		c-1.77,0.721-2.4,1.5-2.4,2.701c0,1.14,0.93,1.89,2.07,1.89c0.99,0,2.1-0.181,3-0.601V28.184z"/>
	<path fill="#959595" d="M5.167,59.262l-0.96,0.66h-0.42v-4.59h1.11c0.72,3,2.46,3.541,3.84,3.541c1.71,0,2.73-1.111,2.73-2.49
		c0-1.562-1.62-2.34-3.57-3.18c-2.52-1.053-4.05-2.16-4.05-4.65c0-2.397,1.92-4.229,5.31-4.229c1.26,0,2.25,0.271,3.36,0.688
		l0.99-0.688h0.39v4.617h-1.11c-0.6-3-2.28-3.539-3.63-3.539c-1.53,0-2.55,0.779-2.55,2.158c0,1.648,1.71,2.25,3.15,2.791
		c2.73,1.107,4.8,2.277,4.8,4.979c0,2.854-2.34,4.59-5.61,4.59C7.687,59.922,6.457,59.742,5.167,59.262z"/>
	<path fill="#959595" d="M21.335,55.812c0,1.92,0.6,2.398,1.8,2.398c0.6,0,0.78,0,2.37-0.148v0.811c-1.38,0.721-2.7,1.049-4.2,1.049
		c-2.1,0-3.21-1.049-3.21-3.6V46.033h-2.19v-1.26l2.19-0.15v-3.6h3.24v3.6h4.17v1.41h-4.17V55.812z"/>
	<path fill="#959595" d="M29.076,51.343c0,3.78,2.07,6.12,5.13,6.12c2.01,0,3.6-0.99,4.29-2.34h0.72
		c-0.6,2.488-2.82,4.799-5.97,4.799c-4.77,0-7.35-3.689-7.35-7.738c0-5.102,3.81-7.857,7.56-7.857c3.15,0,6.359,1.92,5.459,7.021
		L29.076,51.343L29.076,51.343z M29.136,50.232l6.479-0.359c0.75-3.09-0.63-4.438-2.31-4.438
		C31.025,45.434,29.375,47.443,29.136,50.232z"/>
	<path fill="#959595" d="M50.885,47.113c-0.36-1.08-0.84-1.229-2.13-1.381v-1.109h7.56v1.109c-1.83,0.182-2.01,0.42-1.56,1.711
		l2.94,8.549h0.3l2.7-8.607c0.42-1.439-0.06-1.439-1.56-1.65v-1.105h5.61v1.105c-1.83,0.15-2.1,0.691-2.31,1.264l-4.77,12.777h-2.07
		l-3.45-9.51h-0.3l-3.6,9.51h-2.07l-4.59-12.51c-0.45-1.229-0.75-1.381-2.25-1.531v-1.105h7.56v1.105
		c-1.83,0.184-1.98,0.395-1.53,1.711l3,8.553h0.3l2.46-8.188L50.885,47.113z"/>
	<path fill="#959595" d="M72.995,58.273c-1.56,1.049-2.7,1.646-4.5,1.646c-2.25,0-3.51-1.379-3.51-3.18
		c0-1.893,1.29-3.119,4.65-4.289l3.66-1.264V48.25c0-1.379-1.05-2.521-3.21-2.521c-0.6,0-1.32,0.09-2.04,0.36v0.3
		c1.56,0.45,1.38,3.18-0.63,3.18c-1.439,0-1.83-1.021-1.83-1.68c0-1.771,2.76-3.57,6.03-3.57c3.09,0,4.89,1.354,4.89,4.804v7.59
		c0,1.5,0.33,1.5,2.4,1.799v1.111c-0.9,0.147-2.31,0.299-3.21,0.299c-1.32,0-2.4-0.299-2.4-1.647H72.995L72.995,58.273z
		 M73.294,52.184l-2.67,1.109c-1.77,0.721-2.4,1.5-2.4,2.699c0,1.141,0.93,1.891,2.07,1.891c0.99,0,2.1-0.18,3-0.6V52.184z"/>
	<path fill="#959595" d="M85.355,48.344h0.3c1.17-2.4,2.43-3.961,4.08-4.021c0.81-0.029,1.95,0.45,1.95,1.95
		c0,2.068-2.76,2.277-3.3,0.629h-0.3c-0.99,0.75-1.979,2.101-2.729,3.361v6.446c0,1.5,0.3,1.5,2.37,1.8v1.11h-8.01v-1.11
		c2.1-0.3,2.4-0.3,2.4-1.8v-8.879c0-1.5-0.3-1.5-2.1-1.801v-1.109l4.53-0.603h0.81L85.355,48.344L85.355,48.344z"/>
	<path fill="#959595" d="M97.594,55.812c0,1.92,0.6,2.398,1.8,2.398c0.601,0,0.78,0,2.37-0.148v0.811
		c-1.38,0.721-2.7,1.049-4.2,1.049c-2.1,0-3.209-1.049-3.209-3.6V46.033h-2.19v-1.26l2.19-0.15v-3.6h3.24v3.6h4.17v1.41h-4.17
		L97.594,55.812L97.594,55.812z"/>
</g>
<g>
	<path fill="#EB549E" d="M229.488,59.875h-0.76v-4.332h-0.764c-2.965,2.66-6.385,4.332-10.941,4.332
		c-9.881,0-15.962-8.359-15.962-19.76c0-11.402,7.373-19.763,17.253-19.763c3.041,0,5.93,0.38,9.65,3.041h0.764V5.153h-5.396v-0.76
		l12.617-0.76h0.76v54.723h6.08v0.763L229.488,59.875z M228.729,24.991c-2.584-1.748-4.938-3.04-8.209-3.04
		c-5.852,0-10.715,4.028-10.715,18.165c0,13.907,4.865,17.86,10.715,17.86c3.271,0,6.156-2.203,8.209-4.028V24.991L228.729,24.991z"
		/>
</g>
<g>
	<path fill="#EB549E" d="M271.988,59.777h-0.762v-4.332h-0.762c-2.965,2.66-6.385,4.332-10.941,4.332
		c-9.881,0-15.961-8.361-15.961-19.762c0-11.401,7.373-19.762,17.252-19.762c3.041,0,5.93,0.38,9.65,3.041h0.762V5.055h-5.396v-0.76
		l12.616-0.76h0.76v54.723h6.08v0.762L271.988,59.777z M271.229,24.892c-2.584-1.748-4.938-3.04-8.209-3.04
		c-5.852,0-10.717,4.028-10.717,18.166c0,13.908,4.865,17.859,10.717,17.859c3.271,0,6.156-2.203,8.209-4.027V24.892L271.229,24.892
		z"/>
</g>
<g>
	<path fill="#EB549E" d="M306.748,59.018h-20.217v-0.762l6.154-0.379V21.774h-5.396v-0.76l12.615-0.76h0.762v37.623l6.08,0.379
		L306.748,59.018L306.748,59.018z M296.639,4.066c2.889,0,5.244,2.432,5.244,5.32c0,2.888-2.355,5.245-5.244,5.245
		c-2.89,0-5.244-2.356-5.244-5.245C291.395,6.499,293.75,4.066,296.639,4.066z"/>
</g>
<g>
	<path fill="#EB549E" d="M334.371,59.018v-0.762l4.638-0.379V31.199c0-4.484-1.441-8.208-6.462-8.208
		c-3.114,0-5.395,1.368-9.879,6.004v28.881l6.08,0.379v0.763h-20.217v-0.763l6.152-0.379V21.774h-5.396v-0.76l12.615-0.76h0.762
		v6.84h0.761c4.182-4.484,8.207-6.84,13.756-6.84c5.096,0,9.807,3.041,9.807,11.402v26.221l6.08,0.379v0.762H334.371z"/>
</g>
<g>
	<path fill="#EB549E" d="M363.26,44.912c-4.638-2.053-8.438-6.23-8.438-11.627c0-7.828,6.688-13.529,15.656-13.529
		c3.27,0,6.688,0.836,9.953,2.66c1.979-2.66,4.641-4.104,7.979-4.104c2.736,0,4.713,1.748,4.713,3.876
		c0,2.28-1.823,3.648-3.646,3.648c-2.736,0-4.408-2.432-3.729-6.309c-1.44,0.152-3.646,1.748-4.786,3.344
		c3.114,2.356,4.786,6.384,4.786,10.108c0,8.285-6.307,13.376-15.274,13.376c-1.441,0-4.713-0.455-6.078-1.062
		c-0.912,0.762-2.279,1.896-2.279,3.646c0,2.055,2.054,2.735,5.396,3.041l11.629,0.912c8.438,0.686,11.557,3.951,11.557,8.969
		c0,8.438-9.881,14.139-22.271,14.139c-10.941,0-15.654-3.572-15.654-8.74c0-3.725,3.646-6.766,8.438-8.361v-0.684
		c-2.812-0.836-5.243-2.66-5.243-5.625c0-2.812,2.508-4.863,7.297-6.992v-0.686H363.26z M362.195,58.594
		c-1.9,1.822-4.029,4.562-4.029,7.828c0,4.408,2.89,8.814,11.25,8.814c11.248,0,15.58-4.863,15.58-9.195
		c0-3.648-2.812-5.549-9.957-6.156L362.195,58.594z M377.775,35.867c0-5.092-0.764-15.353-7.68-15.353
		c-4.256,0-7.297,2.812-7.297,9.88c0,5.396,0.911,15.2,8.061,15.2C375.344,45.596,377.775,42.48,377.775,35.867z"/>
</g>
<g>
	<path fill="#EB549E" d="M170.39,37.576c0,10.107,5.472,17.404,13.375,17.404c5.018,0,9.882-3.271,11.63-6.689h0.76
		c-1.521,6.311-7.067,12.086-15.049,12.086c-12.008,0-18.545-9.35-18.545-19.607c0-12.919,9.577-19.914,19.077-19.914
		c6.459,0,14.137,3.041,14.137,12.846c0,1.139-0.152,2.432-0.38,3.875L170.39,37.576L170.39,37.576z M187.264,36.436
		c0.38-2.128,0.684-3.952,0.684-5.625c0-6.46-3.191-9.196-6.688-9.196c-5.776,0-10.109,4.864-10.717,15.201L187.264,36.436z"/>
</g>
</svg>
