<?xml version="1.0" encoding="UTF-8"?><svg id="Layer_1" xmlns="http://www.w3.org/2000/svg" width="368.45" height="121.81" viewBox="0 0 368.45 121.81"><path d="m11.84,1.2h8.22c.54-.02,1.08,0,1.62.07.63.12,1.48.55,1.24,1.33-.14.41-.54.68-.97.67h-3.13c-1.89,0-2.35.78-1.75,2.54.78,2.21,1.39,4.48,2.21,6.68.97,2.58,1.78,5.22,2.69,7.82,1.37,3.91,2.57,7.9,3.79,11.87l.4,1.32c.1.32.15.86.4,1.1s.66-.24.72-.5c1.41-5.96,3.55-11.74,5.48-17.56.47-1.45.95-2.89,1.43-4.33,1.04-3.16,2.14-6.31,3.28-9.44.16-.67.66-1.2,1.32-1.39.7-.15,1.46.4,1.82,1.38,2.2,5.8,3.91,11.74,6.02,17.6.87,2.18,1.56,4.43,2.35,6.63s1.62,4.39,2.21,6.66c.09.33.17.92.6.96.67.06.82-1.48.92-1.91.67-2.97,1.61-5.88,2.49-8.79l2.7-9.1c1.1-3.31,2.03-6.67,3.07-10,.16-.34.16-.74,0-1.08-.23-.26-.56-.41-.91-.41-.63-.08-1.26-.09-1.89-.05-.52.1-1.05.1-1.56,0-.54-.13-.9-.63-.85-1.18.14-.7,1.07-.86,1.79-.86h11.39c.48-.04.95.04,1.39.22.44.2.69.68.59,1.16-.21.42-.63.7-1.1.71-1.17.16-2.41-.24-3.55.11-1.49.45-2.35,2.03-2.89,3.49-.98,2.54-1.81,5.14-2.49,7.78-1.61,6.02-3.58,11.92-5.41,17.86-.96,3.13-1.9,6.28-2.82,9.45-.4,1.35-.78,2.69-1.17,4.04-.33,1.13-.52,2.28-1.51,3.04-.12.11-.26.18-.42.2-.24,0-.46-.12-.59-.32-.5-.63-.9-1.33-1.2-2.07-1.77-4.44-3.43-8.93-5.03-13.44-1.97-5.59-4.21-11.06-5.99-16.73-.09-.3-.24-.74-.63-.59s-.31.52-.4.78c-.9,2.71-1.81,5.41-2.69,8.12-.92,2.84-1.82,5.69-2.73,8.53-.69,2.14-1.39,4.28-2.07,6.42s-1.31,4.18-1.92,6.26c-.19.71-.46,1.39-.78,2.05-.63,1.24-1.64,1.3-2.43.15-.31-.45-.54-.94-.7-1.46-.78-2.63-1.84-5.13-2.77-7.69-1.42-3.91-2.82-7.82-4.1-11.83s-2.47-7.96-3.76-11.94l-.47-1.44c-.7-2.14-1.43-4.26-2.3-6.32-.34-.82-.69-1.64-1.07-2.43-.49-1.37-1.86-2.22-3.3-2.05-.6.04-1.2,0-1.82,0s-1.73-.24-2.03-.86c-.1-.19-.1-.42,0-.61.34-.59,1.37-.63,1.96-.63h9.11Z"/><path d="m118.52,103.32v9.07c-.01.61.06,1.21.2,1.8.23.9.97,1.1,1.76,1.19s1.56.13,2.35.23c.52.07.93.35.94.91s-.51.57-.89.68c-.7.06-1.4.04-2.09-.09-4.36.06-8.72-.14-13.07.11-.52,0-1.3.08-1.35-.7s.59-.86,1.2-.97c.76-.12,1.52-.17,2.28-.17.78.08,1.48-.49,1.56-1.28,0-.05,0-.11,0-.16.02-.32.02-.64,0-.95v-39.05c0-2.21-.41-2.64-2.62-2.82h-1.34c-.58,0-1.14-.12-1.15-.84s.61-.89,1.22-.86c1.08.05,2.15.16,3.23.23,3.52.28,7.06.23,10.57-.13.41-.06.82-.09,1.23-.08.56.04,1.01.34,1,.94s-.52.73-1.02.74c-.86-.03-1.72.04-2.57.2-.82.23-1.37.64-1.4,1.56,0,.41-.08.83-.08,1.24v14.51c0,1.56.23,1.68,1.77,1.65,3.09-.07,6.17-.05,9.26,0,2.61,0,5.22-.12,7.82.09.91.07,1.37-.37,1.37-1.3v-13.55c0-.89-.11-1.78-.2-2.66-.07-.97-.9-1.72-1.88-1.67-.73-.05-1.46,0-2.2,0-.47,0-.94-.14-.98-.7s.4-.9.96-.99c.26-.02.52-.02.78,0h14.42c.63,0,1.23.2,1.26.88s-.67.78-1.19.78c-.67.06-1.34,0-2,.05-.95-.08-1.79.62-1.88,1.57-.01.12,0,.24,0,.36v40.58c0,1.2.41,1.63,1.62,1.79.82.13,1.64.2,2.47.2.52,0,.96.17,1.02.78s-.42.68-.88.78c-.88.1-1.77.1-2.65,0-3.85,0-7.7-.21-11.54.1-.41.04-.83.04-1.24,0-.45-.04-.94-.15-.95-.72s.41-.78.87-.87c.78-.13,1.64-.21,2.46-.27,1.24-.09,1.43-.27,1.56-1.56.35-2.95.13-5.91.16-8.86.05-3.72,0-7.45,0-11.17,0-1.36-.18-1.56-1.56-1.56h-17.21c-1.31,0-1.5.19-1.5,1.49.07,3.15.08,6.27.08,9.49Z"/><path d="m140.45,49.32h-10.7c-.43,0-.96.12-1.19-.38s0-1.05.63-1.22c.75-.13,1.52-.16,2.28-.12,2.15-.05,3.06-1.1,2.78-3.21-.05-.44-.07-.89-.06-1.33V7.46c.09-.95.09-1.9,0-2.85-.14-1.04-1-1.84-2.05-1.89-.86.04-1.72-.01-2.57-.15-.41-.11-.84-.21-.82-.78,0-.47.37-.86.84-.89.47-.09.95-.12,1.42-.09,4.69.37,9.34.05,14.01.17,4.42.12,8.84.27,13.14,1.36,4.3,1.08,8.06,3.68,10.59,7.32,1.65,2.26,2.9,4.78,3.69,7.46.45,1.46.75,2.96.89,4.48.34,3.26.2,6.55-.41,9.77-.68,3.24-2.06,6.29-4.04,8.94-2.05,2.82-4.77,5.08-7.92,6.58-3.3,1.52-6.88,2.34-10.52,2.4-3.33.07-6.67,0-10.01,0v.02Zm.98-23.88v19.27c0,1.56.41,2.05,1.99,2.39,3.21.7,6.54.67,9.73-.09,3.8-.9,7.06-3.31,9.05-6.67,1.78-2.78,2.43-5.95,2.97-9.17.41-2.99.52-6.02.31-9.04-.19-4.26-.95-8.42-3.13-12.21-1.53-2.64-3.94-4.65-6.81-5.69-3.69-1.34-7.67-1.72-11.55-1.11-2.04.27-2.42.78-2.5,2.84v.78l-.06,18.68Z"/><path d="m196.63,49.32h-11.09c-.49,0-.9-.13-.93-.72-.06-.45.26-.87.71-.93.05,0,.09,0,.14,0,.78-.06,1.53-.04,2.29-.06,1.56-.05,2.59-.74,2.58-2.53-.05-13.07,0-26.15,0-39.22,0-2.71-.43-3.13-3.17-3.13-.54.04-1.08-.02-1.6-.16-.38-.14-.71-.34-.7-.78s.34-.65.72-.78c.58-.18,1.2-.23,1.8-.13,1.96.18,3.94.23,5.91.15,3.21,0,6.42-.11,9.63.05,3.96.19,7.96.32,11.8,1.42,3.86,1.07,7.26,3.39,9.68,6.59,2.98,3.83,4.76,8.46,5.12,13.3.38,3.9.01,7.83-1.1,11.59-.72,2.31-1.85,4.47-3.33,6.38-1.58,2.08-3.51,3.87-5.7,5.28-2.86,1.73-6.03,2.87-9.33,3.37-3.36.59-6.73.26-10.09.36h-3.34v-.02Zm.95-24.2v19.95c-.1.89.49,1.72,1.36,1.92,3.7.91,7.56.83,11.22-.22,1.97-.6,3.79-1.62,5.32-3,3.29-2.97,4.8-6.85,5.48-11.04.68-3.85.84-7.78.48-11.68-.38-3.62-.95-7.17-2.66-10.44-1.23-2.43-3.21-4.41-5.64-5.64-4.31-2.13-8.92-2.35-13.6-1.74-1.56.2-2,.78-2,2.35.02,6.51.02,13.02.02,19.54h.02Z"/><path d="m276.56,117.32h-8.5c-.51,0-1.21.19-1.3-.59s.56-.88,1.15-.95l2.46-.34c1.15-.16,1.39-.78.65-1.67-1.42-1.76-2.82-3.52-4.28-5.24-4.08-4.79-8.17-9.58-12.26-14.35-.22-.26-.42-.65-.83-.52s-.34.52-.3.82c.21,2.44.26,4.89.16,7.34.04,3.69.04,7.38,0,11.07-.09.89.27,1.77.96,2.35.44.22.93.32,1.42.27.62.04,1.24.09,1.85.15.25.01.5.07.74.18.92.49.06,1.56-.7,1.56h-15.95c-.56-.04-1.15-.61-.67-1.16.13-.14.29-.24.47-.31,1.21-.5,2.79.13,3.91-.62.84-.55.74-1.89.74-2.77v-38.97c0-1.53-.24-1.85-1.73-2.07-.78-.12-1.56-.14-2.35-.24-.98-.13-1.88-1.2-.52-1.65.41-.11.83-.13,1.24-.07,2.99.23,5.98.32,8.98.25,1.02,0,7.12-1.06,6.92.78-.06.6-.59.68-1.07.74-.78.07-1.52.14-2.28.2-1.51.11-1.93.56-1.94,2.1v13.37c.04.89,0,1.78-.14,2.66-.07.31-.12.68.24.84s.6-.1.78-.34c3.24-3.6,6.81-6.87,10.17-10.34l6.85-7.04c.65-.67.5-1.18-.42-1.39-.94-.19-1.89-.28-2.85-.24-.51,0-1.17,0-1.17-.66s.63-.78,1.18-.85c1.3-.08,2.61-.1,3.91-.05,2.51.09,5.02,0,7.54,0,.35-.01.7,0,1.04.05.5.09,1.08.16,1.07.85s-.52.88-1.04.92c-1.01.08-2.03.09-3.05.09-1.22-.06-2.4.42-3.22,1.31-3.07,3.22-6.26,6.33-9.31,9.58-1.87,2-3.83,3.91-5.73,5.87-.88.9-.89,1.08,0,1.94,5.48,5.59,10.59,11.49,15.51,17.57,1.67,2.05,3.42,4.02,5.07,6.08,1.2,1.49,2.87,1.56,4.55,1.75.47.05.94.13,1.41.24.38.06.64.4.6.78-.04.4-.38.7-.78.7-.32.02-.64.02-.95,0l-8.24.02Z"/><path d="m94.46,36.08v9.83c0,1.42.27,1.74,1.67,1.67,4.98-.25,9.98-.16,14.95-.58,2.54-.22,4.05-1.82,4.94-4.07.6-1.54.93-3.18.98-4.84,0-.32.07-.63.18-.92.13-.42.55-.67.98-.6.39.06.67.39.69.78.07.44.08.89.05,1.33-.36,3.13-.13,6.26-.19,9.44,0,1.44-.23,1.63-1.69,1.56-5.69-.27-11.38-.22-17.07-.22h-16.43c-.67,0-1.63.2-1.56-.84s.95-.84,1.64-.86,1.2,0,1.81-.04c.98.03,1.8-.74,1.83-1.72,0-.06,0-.11,0-.17.37-5.27.13-10.55.16-15.84.05-8.28,0-16.55,0-24.83,0-1.95-.67-2.61-2.64-2.66h-1.82c-.45,0-.82-.14-.87-.68-.07-.89.99-.97,1.65-1.02.76-.04,1.52-.03,2.27.05.67.07,1.33.11,2,.12h24.15c1.05.01,2.09-.04,3.13-.16,1.16-.15,1.47.2,1.51,1.36.06,3.37.36,6.72.89,10.05.13.66-.32,1.9-1.22,1.41-.19-.12-.35-.29-.45-.49-.36-.65-.6-1.36-.72-2.1-.33-1.78-1-3.48-1.96-5.01-1.27-1.96-3.24-2.57-5.39-2.75-3.97-.32-7.93-.47-11.92-.4-1.41,0-1.56.18-1.56,1.61v16.62c0,1.48.16,1.64,1.64,1.64,2.45.11,4.9-.04,7.32-.42,1.54-.26,2.77-1.41,3.13-2.93.45-1.53.73-3.1.84-4.69.05-.63.26-1.15,1.01-1.12s.93.69.88,1.24c-.14,1.46-.05,2.93-.17,4.38-.39,4.58,0,9.15.16,13.72,0,.61,0,1.29-.78,1.42s-1.06-.45-1.15-1.1c-.16-1.23-.27-2.46-.49-3.69-.78-4.31-3-4.76-6.11-4.9-1.65-.07-3.31,0-4.97,0-1.11,0-1.33.23-1.33,1.37.02,3.36.02,6.7.02,10.04Z"/><path d="m306.04,26.37v22.15c0,.37-.05.92-.56,1.1-.48.15-.99-.07-1.21-.52-.6-.86-1.19-1.73-1.78-2.6-2.61-3.85-5.22-7.71-7.82-11.58-1.98-2.96-3.91-5.94-5.88-8.9-1.64-2.49-3.35-4.94-4.95-7.46-1.8-2.84-3.8-5.56-5.43-8.5-.11-.19-.24-.37-.39-.53-.17-.18-.36-.43-.64-.32s-.25.45-.23.74c.05.67.1,1.33.1,2v33.64c0,1.56.41,2.01,2.03,2.07,1.11.04,2.21.13,3.33.18.51,0,1.03.1,1.06.72s-.47.93-1.06.99c-1.49.08-2.99,0-4.47-.23-1.33-.13-2.67-.09-3.99.12-1.46.13-2.92.16-4.38.12-.59,0-1.24-.08-1.24-.86s.63-.78,1.24-.84c1.17-.05,2.35-.15,3.52-.18.83.02,1.56-.58,1.67-1.41.13-.56.2-1.13.2-1.7,0-11.42,0-22.85,0-34.28-.02-1.5-.23-2.99-.63-4.43-.5-1.91-2.1-2.93-4.69-3.06h-1.33c-.66,0-1.32-.18-1.3-.94s.78-.92,1.43-.88c1.42.08,2.85.19,4.27.33,1.87.13,3.74.08,5.6-.16,1.11-.22,2.24.29,2.79,1.28,2.66,4.1,5.48,8.11,8.16,12.17,3.06,4.57,6.1,9.14,9.13,13.72,1.45,2.19,2.95,4.35,4.29,6.62.17.3.39.68.78.57s.3-.58.3-.91V4.59c0-1.24-.55-1.76-1.82-1.82-1.21.05-2.42,0-3.61-.15-.43-.09-.84-.18-.83-.74,0-.44.34-.81.78-.83.46-.11.93-.17,1.41-.17,3.24.17,6.48.17,9.72,0,.54.01,1.08.08,1.6.2.37.03.66.31.71.67.05.45-.25.7-.64.83-.87.21-1.76.27-2.65.18-2.55,0-2.57,0-2.57,2.55.01,7,.01,14.02,0,21.05Z"/><path d="m357.42,33.85h7.54c.54-.01,1.08.05,1.6.2.34.11.7.26.67.68s-.43.61-.83.63h-2.35c-2.28,0-2.95.68-2.98,2.97-.09,1.33-.09,2.67,0,4.01.22,1.83-.7,2.86-2.04,3.85-4.36,3.2-9.77,4.62-15.15,4-5.9-.55-11.27-2.5-15.41-7.04-2.1-2.35-3.7-5.1-4.69-8.08-1.48-4.19-1.53-8.52-1.23-12.82.22-3.4,1.14-6.72,2.69-9.76,1.76-3.61,4.46-6.69,7.82-8.9,2.42-1.4,5.03-2.43,7.75-3.06,1.72-.36,3.48-.53,5.23-.52,1.17-.01,2.33.21,3.41.65,1.93.54,3.81,1.24,5.62,2.09.66.33,1.36.55,2.08.67.81.22,1.66-.24,1.91-1.04.12-.29.28-.57.45-.84.22-.33.5-.62.95-.45.38.15.59.54.51.94-.63,4.53-.21,9.08-.35,13.63,0,.64-.23,1.26-.99,1.31s-.98-.63-1.04-1.23c-.13-2.03-.54-4.03-1.23-5.95-1.5-3.62-3.87-6.26-7.78-7.37-2.57-.79-5.31-.79-7.88,0-2.47.78-4.63,2.33-6.18,4.4-2.64,3.44-3.91,7.41-4.55,11.66-.46,3.05-.62,6.14-.49,9.22.05,4.04.91,8.03,2.51,11.74,1.05,2.43,2.66,4.57,4.69,6.26,1.7,1.41,3.75,2.31,5.94,2.61,2.2.41,4.47.24,6.59-.49,2.24-.72,3.82-2.73,3.97-5.09.21-1.86.21-3.75,0-5.61-.06-.72-.59-1.32-1.3-1.46-.8-.18-1.63-.25-2.46-.2h-1.63c-.5.04-.95-.33-.99-.83,0,0,0,0,0,0-.05-.54.43-.67.84-.78.44-.08.88-.12,1.32-.11l7.43.11Z"/><path d="m308.3,117.8c-2.46.49-4.69-.3-6.97-1.2-.95-.38-1.88-.78-2.83-1.13-1.2-.43-1.74-.09-2.05,1.17-.12.45,0,1.06-.7,1.22-.93.2-1.49-.34-1.3-1.42.28-1.56.45-3.2.58-4.82.18-1.93.18-3.87,0-5.81-.06-.63-.05-1.28-.06-1.91s.05-1.21.82-1.27c.59-.07,1.12.35,1.19.94,0,.05,0,.11,0,.16.13,1.33.39,2.64.78,3.91.89,3.06,2.35,5.77,5.23,7.42.53.3,1.09.52,1.68.65,4.29,1.02,8.49.7,10.84-2.86,1.26-1.9,1.43-4.08,1.31-6.31-.22-3.91-2.52-6.35-5.55-8.4-2.35-1.56-4.89-2.68-7.31-4.08-3.21-1.85-6.2-3.96-7.63-7.56-2.66-6.62.55-14.14,7.17-16.8,3.02-1.21,6.39-1.24,9.43-.08,1.16.44,2.35.86,3.52,1.18,1.06.28,1.5-.05,1.8-1.12.16-.59.41-1.13,1.14-1.03s.78.78.72,1.34c-.17,1.87-.23,3.74-.18,5.62,0,1.34.1,2.67.31,3.99.04.35.04.69,0,1.04-.01.33-.25.61-.58.68-.32.09-.66-.02-.85-.28-.29-.3-.49-.68-.56-1.09-.37-3.07-2-5.85-4.51-7.67-3.13-2.46-8.51-2.54-10.95,1.1-.89,1.4-1.35,3.03-1.33,4.69-.09,3.04.78,5.7,3.31,7.64,1.86,1.33,3.84,2.49,5.91,3.45,3.36,1.7,6.61,3.54,9.28,6.26,2.73,2.68,3.96,6.54,3.29,10.3-.74,5.07-3.8,8.42-8.23,10.73-2.03,1.19-4.4,1.67-6.73,1.34Z"/><path d="m198.73,93.16c-.09,3.61.34,7.22,1.28,10.71,1.16,4.13,3.18,7.78,6.81,10.26,1.91,1.35,4.21,2.07,6.55,2.04,1.9,0,3.79.04,5.63-.74,2.73-1.1,4.95-3.16,6.26-5.8.76-1.67,1.41-3.39,1.93-5.16.22-.6.34-1.23.35-1.87-.03-.39.07-.77.29-1.09.28-.36.54-.88,1.12-.7s.52.7.49,1.13c-.23,3.56-.18,7.12-.2,10.68,0,1.02.16,2.03.2,3.04.01.22.01.45,0,.67-.05.57-.1,1.29-.78,1.38s-.92-.56-1.08-1.05c-.28-.71-.63-1.39-1.04-2.03-.16-.47-.67-.71-1.14-.55-.14.05-.27.14-.37.25-1.72,1.31-3.64,2.33-5.69,3-1.03.37-2.13.54-3.22.52-1.4,0-2.8-.05-4.2,0-3.5.16-6.55-1.23-9.5-2.83-3.32-1.87-6.09-4.6-8.01-7.89-2.06-3.4-3.28-7.25-3.54-11.22-.25-2.95-.11-5.92.43-8.83.84-4.82,3.19-9.26,6.7-12.67,3.67-3.56,8.57-5.57,13.68-5.63,2.74-.19,5.48.2,8.05,1.17,1.4.61,2.76,1.29,4.08,2.06,1.44.82,2.35.5,2.98-1.05.08-.24.19-.46.34-.67.27-.33.58-.64,1.06-.45.4.17.61.62.48,1.04-.22,1.16-.27,2.35-.44,3.5-.18,1.25-.28,2.52-.3,3.79,0,2-.12,4-.17,6,0,.47-.06.92-.66.99-.51.1-1-.23-1.1-.74,0-.01,0-.03,0-.04-.26-1.15-.48-2.31-.72-3.46-.39-2.13-1.25-4.14-2.51-5.9-1.26-1.78-3.06-3.1-5.14-3.76-3.33-1.17-6.99-.96-10.17.57-1.8.98-3.3,2.43-4.37,4.18-2.72,4.08-3.8,8.67-4.15,13.49-.13,1.21-.19,2.42-.2,3.63Z"/><path d="m63.89,93.28c-.02,3.79.51,7.55,1.56,11.19.93,3.39,2.81,6.44,5.44,8.79,2.08,1.82,4.72,2.85,7.48,2.93,2.65.09,5.21-.13,7.53-1.56,2.05-1.24,3.7-3.04,4.75-5.2,1.18-2.43,1.97-5.03,2.35-7.71.03-.54.48-.96,1.02-.95.66,0,.84.55.84,1.07-.04,1.43-.12,2.86-.21,4.28-.26,2.3-.26,4.63,0,6.93.12,1.24.14,2.48.05,3.72,0,.43-.07.93-.63,1.04s-.74-.38-.95-.78c-.37-.74-.68-1.5-1.1-2.21-.51-.88-1.06-.95-1.85-.34-1.68,1.21-3.53,2.17-5.48,2.86-1.35.43-2.77.6-4.19.52-1.34,0-2.68-.08-4.01,0-1.89.15-3.51-.64-5.2-1.2-2.36-.79-4.54-2.02-6.43-3.62-2.57-2.14-4.68-4.78-6.2-7.76-2.03-4.09-2.95-8.64-2.69-13.2.05-3.25.68-6.46,1.86-9.48,1.51-3.89,4.05-7.3,7.35-9.85,3.45-2.52,7.61-3.89,11.88-3.92,1.88-.08,3.75.06,5.59.43,2.18.59,4.26,1.51,6.17,2.71,1.42.78,2.35.78,3.13-.87.31-.66.56-1.56,1.51-1.2s.46,1.21.32,1.85c-.83,3.8-.67,7.65-.68,11.49v1.24c-.08.49-.55.83-1.05.74-.31-.05-.57-.26-.69-.56-.22-.7-.4-1.41-.52-2.13-.29-2.18-.96-4.3-1.98-6.26-1.28-2.54-3.6-4.41-6.35-5.13-2.21-.62-4.53-.74-6.79-.34-3,.58-5.63,2.38-7.25,4.98-2.49,3.78-3.95,8.14-4.22,12.66-.21,1.61-.33,3.23-.37,4.85Z"/><path d="m243.28.82c1.46-.05,2.78.24,4.12.2,3.4-.13,6.8.18,10.17-.18.61-.06,1.22.05,1.24.84s-.55.83-1.13.86c-.82.05-1.64.14-2.47.18-.77-.03-1.43.57-1.46,1.35-.14.94-.21,1.89-.23,2.85v35.21c0,1.3.13,2.6.2,3.91.04.66.51,1.21,1.15,1.36.83.21,1.69.29,2.55.24.67.06,1.5,0,1.56,1.01,0,.63-.68.86-1.75.78-3.8-.34-7.62-.39-11.42-.13-1.2.09-2.42,0-3.62.21-.45.12-.91-.15-1.03-.61-.02-.07-.03-.15-.03-.22-.05-.62.34-.82.86-.93.76-.11,1.52-.14,2.28-.12.98.1,1.86-.62,1.96-1.6,0-.09.01-.17,0-.26.11-1.39.22-2.78.22-4.19V8.72c0-1.56-.16-3.05-.21-4.57,0-.74-.55-1.36-1.28-1.45-.87-.17-1.76-.23-2.65-.19-.58,0-1.15-.09-1.17-.78s.58-.88,1.2-.89l.94-.02Z"/><path d="m167.62,69.37c1.89.09,3.91,0,5.96.14,1.44.12,2.91-.2,4.37-.14.56,0,1.25-.09,1.25.78s-.66.91-1.28.93-1.33,0-2,0c-.96-.04-1.78.7-1.82,1.66,0,.01,0,.02,0,.03-.15,1.17-.21,2.34-.2,3.51v34.07c0,1.14.1,2.28.21,3.42s.6,1.49,1.69,1.56l2.46.21c.52.05.99.24,1.04.78s-.51.74-.97.83c-.31.04-.63.04-.95,0-4.42-.13-8.84-.13-13.25,0-.57.07-1.14.07-1.71,0-.44-.1-.93-.18-.91-.78s.44-.78.97-.83c.78-.06,1.56-.15,2.35-.2.99.07,1.84-.67,1.91-1.66,0-.01,0-.03,0-.04.04-.32.05-.64.04-.95v-39.37c0-1.64-.58-2.21-2.24-2.25-.67,0-1.33,0-2-.11-.51-.06-1.09-.2-1.03-.88s.62-.71,1.15-.72h4.94Z"/></svg>