<?xml version="1.0" encoding="UTF-8"?>
<!DOCTYPE svg PUBLIC "-//W3C//DTD SVG 1.1//EN" "http://www.w3.org/Graphics/SVG/1.1/DTD/svg11.dtd">
<!-- Creator: CorelDRAW 2019 (64-Bit) -->
<svg xmlns="http://www.w3.org/2000/svg" xml:space="preserve" width="213px" height="65px" version="1.1" style="shape-rendering:geometricPrecision; text-rendering:geometricPrecision; image-rendering:optimizeQuality; fill-rule:evenodd; clip-rule:evenodd"
viewBox="0 0 212.01 64.85"
 xmlns:xlink="http://www.w3.org/1999/xlink"
 xmlns:xodm="http://www.corel.com/coreldraw/odm/2003">
 <defs>
  <style type="text/css">
   <![CDATA[
    .fil0 {fill:#010101}
    .fil1 {fill:#FEFEFF}
   ]]>
  </style>
 </defs>
 <g id="Layer_x0020_1">
  <metadata id="CorelCorpID_0Corel-Layer"/>
  <g id="_2630572643856">
   <path class="fil0" d="M79.19 39.38c-0.34,-1.88 2.61,-4.23 3.26,-3.6 0.95,0.91 -1.92,3.66 -3.26,3.6zm-9.06 10.51c0.01,3.17 1.15,5.27 2.97,6.86 0.54,0.46 0.71,0.65 1.46,1.02 0.6,0.3 1.03,0.55 1.71,0.79 1.38,0.49 2.65,0.61 4.36,0.58 1.46,-0.02 2.6,-0.48 3.9,-0.9 0.44,-0.14 1.17,-0.59 1.62,-0.81 2.12,-1.02 4.16,-2.55 5.63,-4.34 0.42,-0.51 0.52,-1.11 1.33,-1.24 0.37,5.92 1.26,10.49 6.18,12.69 0.45,0.2 0.2,0.19 0.9,0.24 0.69,0.06 1.57,0.05 2.14,-0.18l0.33 -0.15c1.01,-0.37 1.77,-0.66 2.68,-1.29 4.09,-2.8 7.77,-12.54 9.89,-16.99 1.55,-3.27 3.42,-8.38 5.29,-11.46 0.3,-0.5 0.09,-0.4 0.58,-0.54 0.3,-0.2 0.45,1.75 0.5,2.61 0.07,1.08 0.26,1.81 0.36,2.82 0.17,1.56 1.05,6.21 1.55,7.89 0.69,2.3 1.2,4.92 2.63,6.82 3.08,4.11 8.29,6.14 12.45,2.29 1.25,-1.17 1.85,-2.23 2.66,-3.67 0.45,-0.79 0.71,-1.21 1.1,-2.02l2.77 -6.71c1.23,-3.43 1.64,-6.8 2.26,-10.39 0.82,-4.77 0.08,-18.56 -2.28,-22.52l-1.21 0.49c0.02,0.82 0.47,2.22 0.77,3.07 1.37,3.88 1.26,11.95 0.91,16.14 -0.07,0.85 -0.11,1.69 -0.18,2.5l-0.92 5.65c-1.16,4.07 -2.51,8.78 -4.96,12.07 -1.15,1.54 -3.66,4.96 -6.23,2.76 -3.15,-2.69 -4,-12.34 -4.38,-16.52 -0.13,-1.39 -0.32,-3.3 -0.51,-4.65l-0.65 -4.61c-0.28,-1.51 -0.39,-3.11 -0.67,-4.67 -0.39,-2.16 -2.24,-2.55 -2.98,-2.33 -1.01,0.61 -2.24,4.01 -2.88,5.45 -3.43,7.73 -10.62,24.9 -15.34,30.74 -0.72,0.89 -1.21,1.39 -2.18,1.99 -2.38,1.46 -3.29,-2.54 -3.35,-4.5 -0.4,-13.16 3.74,-22.96 6.46,-35.38 0.68,-3.11 1.94,-6.58 2.94,-9.65 0.35,-1.12 0.65,-2.11 0.93,-3.25 0.35,-1.43 1.02,-1.78 -0.34,-2.84 -0.91,-0.7 -1.74,-1.26 -3.18,-1.14 -0.53,1.08 -0.69,2.67 -1.11,3.69l-5.38 14.18c-0.61,1.66 -2.02,6.02 -2.36,7.67 -0.96,4.71 -3.23,12.93 -4.49,17.67 -0.16,0.63 -0.23,1.61 -0.39,2.12 -0.65,2.14 -8.35,7.47 -11.47,8.26 -0.93,0.24 -0.66,0.4 -1.81,0.47 -2.99,0.17 -3.97,-0.19 -3.95,-3.46 0.01,-1.27 1.17,-7.24 1.67,-8.1 0.64,-1.12 2.54,-1.72 3.65,-2.3 1.94,-1.01 3.56,-2.04 5.07,-3.72 1.1,-1.24 1.4,-1.7 1.22,-3.81 -0.41,-4.93 -6.68,-4.39 -9.82,-2.32 -0.94,0.62 -1.78,1.63 -2.48,2.51 -2.23,2.81 -5.38,9.6 -5.37,14.42z"/>
   <path class="fil0" d="M155.84 47.81c0.58,-0.04 0.79,0.06 1.26,0.28 1.21,0.56 1.75,0.67 3.16,0.64 2.13,-0.05 3.05,-1.19 4.08,-1.11 -0.02,2.16 -5.46,8.77 -8.9,8.56 -1.55,-0.58 -0.12,-6.81 0.4,-8.37zm0.42 -2.38c-0.05,-1.35 1.27,-4.94 1.57,-6.4 0.21,-1.01 0.12,-1.18 0.76,-1.71 0.77,0.17 0.67,0.31 1.23,0.57 1.57,0.7 3.29,0.05 4.02,1.27 0.6,1.02 0.82,4.83 0.58,6.42 -0.47,1.15 -4.51,2.13 -6.78,0.79 -0.67,-0.39 -0.71,-0.32 -1.38,-0.94zm39.29 8.94l0.05 -8.3c0.1,-5.35 1.76,-10.21 1.23,-13.28 -0.12,-0.7 -0.26,-0.74 -0.76,-1.14 -4.05,-3.17 -3.49,0.2 -5.44,3.33 -0.86,1.38 -2.51,5.22 -4.12,7.17 -0.39,0.47 -0.52,0.67 -0.83,1.14 -1.08,1.64 -2.03,2.72 -3.2,4.46 -0.56,0.82 -1.1,1.28 -1.69,2.11 -0.24,0.34 -1.42,2.22 -2.04,1.59 -0.75,-0.77 2.54,-16.99 2.46,-17.32 -0.44,-0.73 -1.29,-1.37 -2.04,-1.68 -2.97,-1.24 -2.62,1.12 -3.26,3.4 -1.87,6.67 0.68,3.15 -5.14,6.64 -0.91,0.55 -3.69,2.13 -4.55,2.1 -0.46,-6.36 0.9,-9.71 -3.98,-9.16 -0.86,0.1 -0.84,0.31 -1.66,0.48 -0.89,0.18 -1.12,0.45 -2,0.39 0.05,-0.86 0.24,-1.17 0.48,-1.85 0.21,-0.61 0.47,-1.26 0.17,-1.77 -0.46,-0.76 -1.83,-1.72 -2.83,-1.88 -1.68,-0.26 -3.41,3.46 -4.26,5.03 -1.86,3.45 -3.83,10.38 -3.67,15.06 0.2,6.1 5.37,9.39 10.13,7.15 4.24,-2.01 7.41,-6.51 7.6,-11.18 0.49,-0.25 0.47,-0.32 0.86,-0.58 1.22,-0.65 6.31,-3.61 7.29,-3.69 0.1,0.88 -0.64,3.16 -0.85,4.67 -0.2,1.36 -0.94,3.45 -0.21,4.86 1.32,2.56 4,4.76 6.82,2.38 2.25,-1.89 4.54,-6.35 6.28,-9l2.23 -3.39c0.3,-0.51 0.32,-0.59 0.83,-0.73 0.02,0.04 0.05,0.06 0.05,0.13l0.11 0.42c0.02,0.1 -0.01,0.69 -0.01,0.82 -0.19,4.88 -0.79,16.99 4.92,19.5 2.34,1.03 4.19,0.56 5.78,-1.51 3.36,-4.36 5.86,-14.17 7.67,-19.73 0.76,-2.34 1.26,-4.79 2.02,-7.07 0.46,-1.37 1.36,-5.23 1.81,-6.16 0.24,-0.48 0.25,-0.14 0.12,-0.89 -1.74,-0.22 -1.33,0.11 -1.76,1.45l-5.53 18.66c-0.15,0.44 -0.23,0.48 -0.44,1.18 -0.87,2.89 -3.12,8.49 -4.98,10.65 -2.98,3.45 -3.55,-0.64 -3.66,-4.46z"/>
   <path class="fil0" d="M0 15.22c0.14,0.41 0.49,0.92 0.88,1.04 0.85,0.25 0.69,-0.22 0.91,-0.76 0.55,-1.37 1.72,-3.18 2.59,-4.2 5.22,-6.14 11.76,-10.41 20.5,-9.65 3.12,0.27 6.9,2.3 8.46,4.94 2.17,3.68 0.06,7.54 -1.6,10.35 -2.66,4.49 -8.92,11.38 -12.93,13.94 -1.42,0.9 -2.8,1.7 -4.27,2.53 -1.03,0.59 -1.82,1.21 -2.05,0.22 -0.4,-1.75 0.09,-12.4 0.28,-13.91 0.24,-1.9 0.6,-9.17 -0.08,-10.54 -2.67,-0.65 -5.12,2.26 -5.32,4.4 -0.09,0.95 -0.29,1.21 -0.34,2.13 -0.05,0.8 -0.04,1.65 -0.16,2.36 -0.35,2.07 -0.68,11.51 -0.74,13.9 -0.18,7.23 -0.13,18.73 -0.04,26.55 0.04,2.96 0,2.63 1.77,4.08l2.6 1.89c1.98,1.32 1.73,-1.29 1.72,-2.16l-0.08 -21.4c-0.02,-4.5 0.36,-3.34 3.44,-4.71 0.32,-0.14 0.88,-0.49 1.26,-0.68 4.93,-2.42 5.97,-2.76 11.18,-6.43 4.57,-3.22 9.2,-6.58 11.38,-12.01 0.3,-0.73 0.76,-2.09 0.86,-2.93 0.36,-2.8 0.42,-4.44 -0.6,-6.68 -1.18,-2.59 -4.99,-5.45 -7.65,-6.15 -0.68,-0.18 -0.91,-0.31 -1.42,-0.44 -6,-1.53 -10.09,-1.03 -15.76,0.88 -4.46,1.5 -8.95,4.85 -11.83,8.59 -0.72,0.93 -2.69,3.99 -2.96,4.85z"/>
   <path class="fil0" d="M42.8 60.01c-0.99,-2.43 2.02,-22.68 0.3,-26.19 -0.49,-1.02 -1.3,-1.55 -2.62,-1.34 -0.62,0.9 -2.01,4.65 -2.47,5.83 -1.64,4.15 -1.98,4.49 -4.16,8.29 -0.82,1.42 -3.05,4.91 -4.15,6.12 -0.47,0.51 -0.54,0.84 -1.35,0.82 -1.19,-3.09 1.81,-11.99 -1.09,-14.82 -0.63,-0.63 -2.83,-1.96 -3.76,-1.98 -0.64,2.15 -1.28,8.28 -1.75,11.2 -0.66,4.06 1.86,10.7 6.12,9.95 1.49,-0.26 3.71,-3.96 4.52,-5.3l4.13 -7.17c0.26,-0.49 0.26,-0.62 0.96,-0.65 0.37,2.99 -0.88,7.81 -0.59,11.25 0.12,1.52 0.49,3.62 1.13,4.77 0.49,0.88 2.09,2.6 3.02,2.99 2.2,0.93 4.19,-2.11 5.23,-3.61l3.39 -5.56c0.41,-0.76 0.64,-1.24 1.01,-1.99 0.37,-0.76 0.31,-1.62 1.22,-1.71 0.64,5.09 -2.17,6.05 3.1,10.02 1.26,0.94 1.65,1.26 2.98,0.08 -0.02,-5.3 0.97,-13.75 3.16,-18.64 0.45,-0.99 1.25,-2.23 1.84,-3.16 5.63,-8.82 5.13,-3.19 7.93,-2.52 -0.25,-0.9 -2.16,-3.18 -2.83,-3.61 -1.99,-1.27 -2.93,-0.32 -4.17,1.08 -0.81,0.93 -1.89,2.45 -2.68,3.62 -0.23,0.34 -0.35,0.58 -0.6,0.9 -0.27,0.37 -0.43,0.63 -0.68,0.99 -0.22,0.34 -0.46,0.63 -0.66,0.98 -0.33,0.56 -0.27,0.66 -0.9,0.78 -0.17,-2.76 0.09,-6.62 0.3,-9.41 0.2,-2.7 0.3,-3.36 -1.94,-5.18 -0.62,-0.5 -0.69,-0.85 -1.73,-0.88 -1.66,2.49 -2.57,13.9 -2.62,17.47 -0.02,1.51 -0.73,3.09 -1.32,4.46 -0.14,0.34 -0.27,0.68 -0.45,1.07 -1.18,2.47 -3.25,6.02 -4.93,8.14l-1.91 2.4c-0.35,0.4 -0.33,0.48 -0.98,0.51z"/>
   <path class="fil1" d="M156.26 45.43c0.67,0.62 0.71,0.55 1.38,0.94 2.27,1.34 6.31,0.36 6.78,-0.79 0.24,-1.59 0.02,-5.4 -0.58,-6.42 -0.73,-1.22 -2.45,-0.57 -4.02,-1.27 -0.56,-0.26 -0.46,-0.4 -1.23,-0.57 -0.64,0.53 -0.55,0.7 -0.76,1.71 -0.3,1.47 -1.62,5.05 -1.57,6.4z"/>
   <path class="fil1" d="M155.84 47.81c-0.2,0.61 -0.17,1.2 -0.36,1.91 -0.21,0.78 -0.14,1.46 -0.28,2.31 -0.13,0.83 -0.34,0.42 -0.32,2.18 0.01,0.99 0.03,1.34 0.56,1.97 3.44,0.21 8.88,-6.4 8.9,-8.56 -1.03,-0.08 -1.95,1.06 -4.08,1.11 -1.41,0.03 -1.95,-0.08 -3.16,-0.64 -0.47,-0.22 -0.68,-0.32 -1.26,-0.28z"/>
   <path class="fil1" d="M79.19 39.38c1.34,0.06 4.21,-2.69 3.26,-3.6 -0.65,-0.63 -3.6,1.72 -3.26,3.6z"/>
  </g>
 </g>
</svg>
