<?xml version="1.0" encoding="UTF-8"?><svg id="Layer_1" xmlns="http://www.w3.org/2000/svg" width="414" height="155.61" viewBox="0 0 414 155.61"><path d="m377.38,124.78c-18.39.09-36.33,1.16-54.24,2.76-7.53.67-15.09.35-22.62,1-19.27,1.65-38.53,2.41-57.8,2.94-10.03.29-20.07.8-30.09,1.34-12.19.71-24.35,1.85-36.52,3.02-10.85,1.04-21.69,2.04-32.53,3.02-12.02,1.07-24.03,2.11-36.04,3.11-10.47.87-20.94,1.7-31.42,2.49-12.11.9-24.21,1.77-36.32,2.6-2.72.18-5.45.14-8.17.21-6.08.14-12.15.2-18.21.44-2.11.1-4.18-.6-5.79-1.97-2.57-1.92-4.72-4.33-6.33-7.1-1.22-2.22-1.05-4.41.91-5.9,4.27-3.26,6.6-7.81,8.83-12.46.78-1.9,2.59-3.17,4.64-3.27,7.82-.92,15.66-1.33,23.51-1.75,11.42-.6,22.81-1.76,34.2-2.65,3.11-.24,6.21-.45,9.33-.51,13.65-.25,27.24-.42,40.87-.65,16.89-.3,33.78-.62,50.67-.96,15.26-.29,30.51-.59,45.76-.91,12.99-.26,25.99-.55,39-.87,12.79-.33,25.49,1.03,38.23,1.73,10.26.56,20.51,1.19,30.79,1.24,14.63.08,29.28.39,43.9.8,7.32.21,14.51,1.85,21.73,2.94,3.76.57,7.59.8,11.24,2.22,1.77.59,3.41,1.53,4.82,2.76,1.41,1.38,1.17,2.19-.8,2.62-4.01.87-8.2.94-12.3,1.21-6.57.43-13.07.9-19.25.53Z"/><path d="m270.44,51.73c-.27.81-.34,1.67-.21,2.5v36.93c0,3.48-.26,3.72-3.71,3.72h-9.58c-3.15,0-3.59-.35-3.59-3.65,0-18.93,0-37.86,0-56.78,0-8.56,0-17.12,0-25.69,0-3.11.26-3.35,3.29-3.36,2.58,0,5.15.09,7.71-.04,1.94-.1,2.91.74,3.68,2.47,5.54,12.49,11.16,25,16.78,37.5.22.48.47.95.8,1.57.34-.85.44-1.77.29-2.67V9.18q0-3.8,3.92-3.81h9.58c2.92,0,3.15.23,3.15,3.21v82.49c0,3.64-.13,3.76-3.85,3.76-2.34,0-4.68-.08-7.01,0-1.93.08-2.96-.75-3.7-2.5-5.5-13.03-11.04-26.06-16.63-39.1-.19-.49-.19-1.2-.93-1.51Z"/><path d="m56.52,49.95V8.82c0-3.42.31-3.72,3.74-3.73h9.81c3.27,0,3.8.41,3.8,3.75v28.26q0,3.32,3.4,3.32c2.65,0,5.31-.13,7.94,0,2.34.15,3.13-.63,3.1-3.02-.11-9.42-.05-18.85-.05-28.27,0-3.89.18-4.07,4.08-4.08h8.89c4.2,0,4.4.21,4.41,4.54v81.07c0,4.01-.17,4.16-4.25,4.16h-10.04c-2.72,0-3.06-.36-3.07-3.15v-31.07c0-3.07,0-3.08-3.17-3.09h-7.94c-3.27,0-3.28,0-3.28,3.21v29.7c0,4.34-.1,4.46-4.43,4.46h-9.81c-2.78,0-3.1-.32-3.11-3.1-.02-13.95-.02-27.89-.02-41.83Z"/><path d="m312.69,49.94V9.09c0-3.73.25-4.01,3.95-4.01,6.69.1,13.39-.35,20.07.27,12.7,1.17,23.74,13.13,23.81,25.86.06,12.38,0,24.75,0,37.13,0,13.95-12.27,26.32-26.21,26.49-5.92.06-11.83,0-17.75,0-3.64,0-3.87-.22-3.87-3.8,0-13.69,0-27.38,0-41.08Zm17.39,0c0,8.25.06,16.5-.04,24.76,0,2.17.74,2.68,2.83,2.81,6.38.41,10.36-4.01,10.44-10.23.16-11.59.2-23.2,0-34.79-.12-6.53-4.09-9.95-10.44-10.06-2.34-.05-2.87.8-2.84,2.99.11,8.17.06,16.34.06,24.52Z"/><path d="m115.46,49.94V9.28c0-3.92.23-4.18,4.01-4.19h35.52c3.45,0,3.64.22,3.64,3.76s-.08,7.17,0,10.75c.07,2.14-.8,2.89-2.89,2.87-6.86-.06-13.71.04-20.57-.06-2.05,0-2.95.48-2.88,2.73.15,4.28.1,8.57,0,12.84,0,1.81.66,2.48,2.48,2.46,5.52-.08,11.05-.04,16.58,0,2.85,0,3,.17,3.01,3.09v10.98c0,2.8-.25,3.03-3.12,3.03-5.45,0-10.9.07-16.35,0-1.89,0-2.65.53-2.61,2.51.1,4.99.1,9.97,0,14.95,0,1.99.8,2.54,2.63,2.53,6.86-.07,13.71-.05,20.57,0,2.78,0,3.08.34,3.09,3.1,0,3.81-.06,7.63,0,11.45.05,1.98-.67,2.83-2.71,2.83-12.62-.03-25.24-.03-37.86,0-2.3,0-2.67-1.24-2.67-3.13.07-13.96.11-27.91.11-41.85Z"/><path d="m402.14,31.43c-2.03,0-4.01-.07-6.08,0-1.71.08-2.41-.67-2.46-2.3.05-2.11-.29-4.2-1.02-6.18-.64-2.01-2.56-3.33-4.67-3.21-2.18.05-3.59,1.32-4.4,3.29-1.11,2.73-.36,5.23,1.08,7.55,3,4.82,7.37,8.42,11.42,12.27,5.88,5.62,11.74,11.24,14.83,18.99,3.51,8.78,2.47,17.2-3.15,24.76-5.63,7.56-13.69,10.07-22.79,9.01-11.32-1.32-18.13-8.58-19.97-20.49-.35-2.46-.52-4.95-.5-7.44,0-1.55.63-2.35,2.19-2.35h11.91c1.41,0,2.11.67,2.16,2.15.05,1.63.19,3.26.43,4.88.67,4.54,4.09,6.82,8.83,5.96,3.79-.68,6.03-4.46,5.09-8.58-.73-3.21-2.53-5.83-4.7-8.22-3.61-4.01-7.71-7.47-11.59-11.19-4.74-4.54-9.22-9.31-11.64-15.6-3.38-9.01-.88-19.17,6.29-25.59,7.88-6.81,17.96-7.98,26.7-3,6.42,3.67,9.18,9.7,10.44,16.64.38,2.15.55,4.33.51,6.51,0,1.46-.63,2.14-2.11,2.12h-6.77l-.03.02Z"/><path d="m41.12,31.4h-6.31c-1.45,0-2.15-.66-2.17-2.11,0-2.03-.32-4.04-.98-5.96-.9-2.51-2.9-3.85-5.12-3.56-2.42.3-4.29,2.28-4.44,4.71-.3,2.43.36,4.87,1.83,6.82,2.12,2.89,4.52,5.56,7.18,7.97,5.2,4.92,10.56,9.7,14.78,15.56,5.39,7.46,7.32,15.59,4.56,24.52-3.51,11.37-14.79,18.12-26.98,16.29-11.24-1.69-18.33-9.38-19.77-21.57-.23-2.01-.31-4.01-.46-6.04-.16-1.83.64-2.74,2.58-2.74,3.81.05,7.63.04,11.45,0,1.8,0,2.54.8,2.5,2.57-.18,2.48.28,4.97,1.33,7.22,1.61,3.21,4.46,4.68,7.65,4.01s5.19-3.34,5.39-6.78-1.32-6.34-3.33-9c-2.24-2.8-4.72-5.39-7.43-7.75-4.46-4.12-9.03-8.15-12.76-12.97-6.6-8.52-8.26-17.66-3.03-27.45C13.5,4.07,27.28-.09,38.35,5.84c.08.04.16.09.24.13,7.02,3.9,9.5,10.58,10.62,18,.24,1.61.31,3.25.43,4.88s-.59,2.62-2.41,2.55c-2.06-.06-4.09,0-6.11,0Z"/><path d="m177.58,50.17V8.83c0-3.4.33-3.73,3.75-3.73h33.87c3.4,0,3.7.32,3.71,3.75,0,3.58-.06,7.16,0,10.74.05,2.1-.8,2.94-2.89,2.91-6.15-.07-12.3.08-18.46-.07-2.41-.06-3.11.8-3.02,3.1.16,4.01.12,8.1,0,12.15-.06,2.01.64,2.8,2.69,2.76,4.66-.1,9.34-.04,14.01,0,2.85,0,3.21.32,3.21,3.21v11.24c0,1.91-.8,2.77-2.85,2.73-4.82-.1-9.63,0-14.45-.06-1.93-.04-2.58.65-2.57,2.58.06,10.44,0,20.87,0,31.31,0,3.21-.22,3.47-3.44,3.48h-10.51c-2.75,0-3.1-.35-3.1-3.12.02-13.89.03-27.76.04-41.62Z"/><path d="m226.14,49.85V8.52c0-3.04.32-3.39,3.3-3.42h11.24c1.92,0,2.91.8,2.87,2.8v82.66c0,4.16-.16,4.31-4.35,4.31h-9.81c-2.9,0-3.21-.33-3.21-3.21-.03-13.95-.04-27.88-.03-41.81Z"/></svg>