<?xml version="1.0" encoding="UTF-8"?><svg id="Layer_1" xmlns="http://www.w3.org/2000/svg" width="339.74" height="77.82" viewBox="0 0 339.74 77.82"><defs><style>.cls-1,.cls-2{isolation:isolate;}.cls-2{fill:#231f20;font-family:ArialMT, Arial;font-size:4.69px;}.cls-3{fill:none;stroke:#231f20;stroke-miterlimit:10;stroke-width:.5px;}</style></defs><path d="m242.22,35.06c.21.18.48.19.72.25,2.37.61,4.45,1.73,6.26,3.38,2.77,2.53,4.1,5.79,4.72,9.37.3,1.76.55,3.53.46,5.31-.16,3.1-.54,6.17-1.73,9.07-1.6,3.87-4.13,6.89-8,8.69-1.53.71-3.16,1.07-4.85,1.08-5.97.02-11.94.02-17.91.02-.63,0-1.27,0-1.9.06-.58.06-.71-.07-.74-.65-.02-.26-.02-.52,0-.77.03-.55.12-.65.68-.66,1.06-.02,2.12,0,3.17,0s1.06,0,1.06-1.04V5.01q0-1.03-1.07-1.03c-1.01,0-2.02,0-3.03,0-.72,0-.81-.1-.83-.82-.03-.81.37-1.21,1.2-1.21,5.8,0,11.61-.03,17.42.02,3.17.02,6.12.85,8.8,2.6,2.42,1.6,4.05,3.82,5.08,6.48.75,1.94,1.05,3.97,1.25,6.03.21,2.1.02,4.17-.37,6.22-.55,2.83-1.66,5.42-3.64,7.58-1.69,1.83-3.68,3.18-6.12,3.84-.21.06-.48.02-.62.31l.02.02Zm-10.86,17.79v16.17c0,.21,0,.42,0,.63.03.44.11.52.57.54,3.13.11,6.2-.02,8.89-1.81,6.12-4.06,6.32-13.16,5.61-19.68-.35-3.2-1.29-6.74-3.5-9.19-2.65-2.93-6.55-3.79-10.35-3.82-.39,0-.89-.02-1.15.2-.32.27-.08.79-.08,1.2-.02,5.25,0,10.5,0,15.75h0Zm0-33.8h-.02v14.42c0,.35.12.45.45.43,1.16-.07,2.33.14,3.5.06,3.42-.23,6.97-1.45,8.79-4.56,1.01-1.73,1.56-3.62,1.76-5.6.25-2.47.31-4.95.05-7.44-.25-2.33-.83-4.57-1.92-6.64-1.27-2.44-3.54-4.25-6.16-5.06-.62-.19-6.53-1.2-6.49.12.02.47.04.94.04,1.4v12.87Z"/><path d="m111.36,17.95v17.51c0,.24-.15.61.15.68.3.07.34-.33.45-.54.75-1.49,1.62-2.9,2.71-4.17.97-1.13,2.12-2.03,3.51-2.51,2.13-.74,4.21-.55,6.14.68,2.09,1.34,3.17,3.39,3.94,5.65.56,1.66.68,3.39.87,5.11.11.96.11,1.92.11,2.88v25.1c0,.42-.02.84-.05,1.26-.02.5,0,.57.54.58.68.02,1.36,0,2.04,0h.56c.66.02.7.07.72.74.04,1.29.04,1.29-1.24,1.29h-10.58c-.37,0-.75.05-1.12.07-.58.03-.73-.09-.75-.65-.02-.28-.02-.56,0-.84.02-.49.11-.58.59-.59.73-.02,1.46,0,2.18,0,1.08,0,.91,0,.91-.91v-30.52c0-1.38.02-2.76-.16-4.14-.08-.6-.2-1.2-.43-1.77-.45-1.1-1.28-1.71-2.49-1.75-1.07-.02-2.02.23-2.98.81-1.39.83-2.18,2.1-3.02,3.35-1.06,1.58-1.73,3.37-2.41,5.15-.16.42-.22.86-.22,1.31,0,9.21,0,18.42.02,27.63v.28c.03.45.1.53.56.54.7.02,1.41,0,2.12,0,.19,0,.38,0,.56.02.25.02.39.15.42.4,0,.05,0,.09.02.14.16,1.43.11,1.48-1.34,1.48-3.86,0-7.71.02-11.57.02-.58,0-.65-.06-.65-.64,0-1.51-.16-1.4,1.32-1.41h1.69c.73,0,.77-.04.77-.74V4.98c0-.65-.32-.98-.96-.98-.71,0-1.41.02-2.12,0-.63,0-.72-.09-.72-.68,0-1.47-.09-1.34,1.33-1.34.71,0,1.41.02,2.12,0,2.16-.09,4.16-.62,5.77-2.18.08-.08.17-.16.27-.21.19-.1.33-.02.36.17.03.21.03.42.03.63v17.57h0Z"/><path d="m307.42,36.14c.12-.2.08-.36.08-.53V5.94c0-1.16.05-1.1-1.13-1.1-.68,0-1.36.02-2.04,0-.53-.02-.6-.11-.63-.63,0-.23,0-.47,0-.7.03-.54.14-.66.69-.68.91-.02,1.83,0,2.74-.02,2.13-.02,4.06-.65,5.7-2.03.06-.04.11-.09.16-.13.12-.1.24-.26.42-.21.23.07.17.3.17.49,0,.91,0,1.83,0,2.74v66.02c-.02.36.17.5.52.5.73,0,1.46,0,2.18,0,.23,0,.47,0,.7,0,.31,0,.49.16.49.46.02.47.16,1-.07,1.38-.26.43-.82.17-1.24.18-2.26.02-4.51,0-6.77.02-.35,0-.7.03-1.06.05-.63.03-.76-.07-.76-.69,0-1.67,0-3.33,0-5v-.56c0-.12-.02-.25-.16-.27s-.2.11-.26.21c-.23.41-.45.82-.68,1.23-.91,1.52-1.95,2.93-3.45,3.94-1.3.88-2.71,1.31-4.31,1.15-2.21-.22-4.12-1.1-5.75-2.56-1.21-1.1-2.13-2.43-2.93-3.85-1.69-3.03-2.62-6.31-3.06-9.74-.08-.65-.16-1.3-.26-1.95-.11-.69-.07-1.4-.1-2.1-.08-2.25,0-4.49.31-6.73.42-3.07,1.28-6,2.59-8.8.98-2.09,2.19-4.04,3.93-5.61,1.36-1.23,2.91-2.05,4.76-2.24,2.04-.21,3.78.45,5.32,1.76,1.62,1.39,2.67,3.19,3.5,5.13.08.18.08.42.35.54v-.05Zm.08,15.13h0v-8.65c0-.26,0-.52-.06-.77-.47-2.23-1.15-4.41-2.24-6.42-.81-1.48-1.73-2.89-3.33-3.71-1.38-.7-2.78-.77-4.24-.35-.36.11-.68.31-.98.54-1.33,1.03-2.02,2.44-2.46,4.01-.56,2.02-.88,4.09-.89,6.17,0,6.07-.15,12.13.08,18.2.07,1.76.3,3.5.75,5.2.19.73.44,1.43.8,2.1.82,1.49,2.01,2.46,3.77,2.59,2.23.16,4.02-.73,5.44-2.42,1.37-1.62,2.18-3.55,2.81-5.55.25-.77.55-1.53.54-2.38-.02-2.86,0-5.72,0-8.58h0Z"/><path d="m26.6,12.9v9.56c-.02.84-.12.93-.94.92-.68-.02-.76-.08-.78-.77-.06-1.34-.26-2.65-.49-3.96-.13-.73-.18-1.48-.34-2.22-.56-2.7-1.31-5.33-2.6-7.77-.64-1.22-1.39-2.39-2.37-3.39-1.11-1.13-2.43-1.96-3.97-2.3-1.86-.4-3.76-.4-5.54.39-1.49.65-2.66,1.75-3.49,3.17-1.14,1.96-1.62,4.12-1.9,6.35-.16,1.33-.14,2.66-.13,4,.02,2.12.31,4.2,1.03,6.21.37,1.05.92,1.99,1.62,2.86.74.91,1.75,1.42,2.82,1.8,1.1.39,2.23.73,3.35,1.06,1.44.42,2.89.81,4.34,1.2,1.98.54,3.78,1.38,5.44,2.58,1.71,1.24,3.14,2.74,4.16,4.61,1.11,2.04,1.74,4.23,2.07,6.52.29,1.99.53,3.99.51,6.01-.02,2.18-.19,4.34-.49,6.5-.26,1.93-.68,3.82-1.32,5.66-.94,2.73-2.31,5.26-4.34,7.32-1.3,1.32-2.87,2.31-4.72,2.84-2.4.68-4.68.4-6.94-.55-1.7-.71-3.31-1.58-4.86-2.56-.96-.6-1.9-1.2-2.91-1.7-.68-.34-1.04-.23-1.34.46-.24.56-.45,1.13-.41,1.76.02.26,0,.52-.02.77-.06.73-.51,1.01-1.21.77-.21-.07-.3-.21-.32-.41-.02-.23-.02-.47-.02-.7v-23.06c0-.95.21-1.11,1.13-.96.28.04.42.18.43.45,0,.19,0,.37.02.56.02.6.03,1.2.14,1.81.11.6.04,1.26.13,1.88.13.92.21,1.85.41,2.77.16.7.17,1.43.35,2.13.59,2.19,1.11,4.4,2.03,6.5.64,1.47,1.38,2.89,2.37,4.14.58.73,1.22,1.43,1.93,2.04,1.29,1.08,2.78,1.79,4.49,1.94.16.02.31.09.47.13.59.16,1.2.21,1.79-.03.13-.05.26-.09.4-.11,1.93-.2,3.5-1.1,4.83-2.46,1.36-1.4,2.36-3.06,3-4.88.52-1.47.92-2.98,1.02-4.57.06-.87.15-1.72.16-2.59.02-.98-.02-1.95-.12-2.93-.07-.77-.26-1.52-.35-2.28-.05-.4-.21-.77-.36-1.14-.52-1.28-1.06-2.56-1.96-3.64-.59-.69-1.28-1.25-2.04-1.71-2.42-1.47-5.06-2.45-7.77-3.23-2.02-.58-3.98-1.29-5.73-2.48-1.79-1.21-3.26-2.71-4.29-4.65-1.15-2.17-1.78-4.45-2.16-6.87-.45-2.78-.38-5.56-.3-8.34.05-1.89.4-3.77.81-5.62.3-1.36.7-2.67,1.24-3.95.64-1.52,1.42-2.93,2.46-4.23.59-.73,1.25-1.32,1.97-1.89,1.68-1.33,3.63-1.93,5.75-2.02,1.04-.05,2.01.22,2.95.59,1.28.49,2.46,1.15,3.59,1.95,1.23.87,2.43,1.76,3.64,2.65.17.12.31.28.48.42.4.35.58.34.95-.05.36-.37.48-.86.5-1.35.02-.56.02-1.12.04-1.69.02-.46.09-.52.54-.56h.28c.82,0,.88.05.88.87v9.5h0Z"/><path d="m184.27,36.49c.35-.33.46-.61.59-.88.69-1.42,1.5-2.75,2.51-3.97,1.19-1.43,2.66-2.43,4.43-2.99.59-.19,1.21-.06,1.82-.1,1.02-.07,1.95.21,2.86.63,1.43.66,2.46,1.78,3.29,3.08,1.1,1.73,1.7,3.64,1.99,5.66.21,1.39.28,2.79.28,4.2v26.93c0,1.2-.07,1.14,1.16,1.14h1.97c.66,0,.76.12.77.79v.21c-.02.99-.07,1.02-1.04,1.02h-11.57c-.73,0-1.09-.36-1.08-1.08,0-.93,0-.94.94-.95.71,0,1.41,0,2.12,0,.54-.02.59-.09.63-.62,0-.19,0-.37,0-.56,0-10.08.02-20.15-.02-30.24,0-1.61.08-3.23-.3-4.81-.06-.25-.1-.51-.17-.75-.47-1.44-1.29-2.03-2.8-2.09-1.48-.07-2.7.56-3.74,1.51-1.02.92-1.77,2.06-2.44,3.25-.82,1.46-1.45,2.99-2.02,4.56-.15.4-.21.81-.21,1.24,0,9.14,0,18.28.02,27.42,0,.74.37,1.1,1.12,1.1.61,0,1.22,0,1.83,0,.56.02.65.12.69.66.1,1.25,0,1.36-1.26,1.36h-11.77c-.3,0-.49-.15-.51-.46v-.07c-.05-1.68-.03-1.49,1.32-1.49.63,0,1.27,0,1.9,0,.46,0,.49-.05.49-.49,0-12.12,0-24.23-.02-36.35,0-.35,0-.7.02-1.06.02-.35-.13-.46-.45-.45h-2.12c-.21,0-.42,0-.63,0-.35,0-.51-.2-.52-.54,0-.28-.02-.56,0-.84.02-.68.1-.77.77-.78,1.41,0,2.82.03,4.23,0,1.52-.02,2.98-.28,4.33-1.04.33-.19.48-.12.54.24.03.18.02.37.02.56v7.05h.02Z"/><path d="m82.28,49.06v19.27c0,.42,0,.84-.06,1.26-.06.49.02.59.51.6.8.02,1.6,0,2.4,0s.84.05.85.84c.02,1.47-.02,1.19-1.15,1.19h-7.82c-.93,0-.95-.02-.95-.94v-5.91c0-.23.14-.6-.19-.67-.3-.07-.38.3-.49.52-.71,1.41-1.6,2.7-2.6,3.92-1.27,1.54-2.87,2.58-4.8,3.02-.82.19-1.73.13-2.59-.05-2.15-.45-3.72-1.75-4.91-3.52-1.29-1.93-1.88-4.12-2.19-6.4-.26-1.89-.26-3.78-.26-5.68,0-7.86,0-15.7,0-23.56,0-.75-.37-1.12-1.11-1.12-.68,0-1.36.02-2.04,0-.51-.02-.57-.08-.56-.59,0-.37.02-.75.03-1.12,0-.28.16-.43.45-.44.26,0,.52-.02.77-.02,1.18,0,2.35,0,3.53.02,1.57.02,3.08-.27,4.48-1.01.54-.28.66-.2.67.4,0,.77,0,1.55,0,2.32,0,10.25,0,20.48-.02,30.73,0,1.7.13,3.37.62,5,.28.93.73,1.76,1.62,2.2.95.48,1.96.4,2.93.03.96-.36,1.74-1.02,2.42-1.78.77-.86,1.42-1.81,1.97-2.82.77-1.42,1.49-2.87,2.06-4.39.16-.43.22-.85.22-1.3v-26.51c0-.67-.07-.73-.73-.74-.77,0-1.55,0-2.32,0-.68,0-.74-.07-.76-.71-.03-1.76.09-1.43,1.38-1.45,1.18-.02,2.35,0,3.53.02,1.58.03,3.07-.3,4.48-1.03.45-.24.58-.16.58.36v20.04h.05Z"/><path d="m56.76,50.45c.09,4.01-.59,7.89-2.09,11.61-1.17,2.91-2.65,5.65-4.98,7.83-1.4,1.32-3.02,2.24-4.95,2.5-1.29.17-2.58.08-3.81-.41-1.34-.54-2.53-1.29-3.59-2.31-2.4-2.32-3.96-5.15-5.09-8.25-1-2.74-1.54-5.59-1.77-8.51-.31-3.92.08-7.77,1.17-11.54.98-3.4,2.57-6.49,4.84-9.22.88-1.07,1.94-1.97,3.17-2.65,2.83-1.54,5.62-1.44,8.36.23,1.74,1.06,3.07,2.54,4.17,4.22,2.05,3.12,3.34,6.55,4.03,10.2.24,1.27.4,2.55.52,3.83.07.82.02,1.64.02,2.46h-.02Zm-19.84,0h.02c0,2.95-.05,5.9.02,8.84.05,2.18.4,4.34,1.04,6.43.29.95.72,1.83,1.32,2.62,1.08,1.43,2.51,2.13,4.3,2.14.53,0,1.01-.14,1.52-.26,1.01-.22,1.81-.78,2.45-1.56.71-.86,1.22-1.84,1.55-2.89.66-2.07.95-4.2,1-6.36.02-.93.18-1.87.08-2.8-.1-.89-.07-1.78-.08-2.67,0-.54,0-1.08,0-1.62.05-2.95-.02-5.9.07-8.85.05-1.93-.06-3.88-.42-5.8-.29-1.52-.67-3.03-1.45-4.39-.87-1.49-2.06-2.48-3.84-2.77-.95-.16-1.83-.03-2.7.22-.83.25-1.54.73-2.13,1.42-1.11,1.29-1.65,2.82-2.04,4.42-.61,2.5-.68,5.04-.7,7.6-.02,2.09,0,4.17,0,6.26h0Z"/><path d="m330.24,46.62h-8.04c-.26,0-.37.12-.37.4.08,3.03.04,6.06.03,9.08,0,3.03-.13,5.94.64,8.77.56,2.06,1.74,4.43,4,4.98,2.27.54,4.32.11,6.08-1.51,1.47-1.35,2.42-3.03,3.2-4.83.75-1.76,1.21-3.59,1.58-5.46.02-.12.04-.23.07-.35.16-.79.42-.96,1.21-.82.39.07.5.2.41.58-.68,2.92-1.36,5.84-2.75,8.54-.73,1.43-1.6,2.76-2.73,3.91-1.2,1.21-2.6,2.1-4.3,2.37-1.83.29-3.59.04-5.25-.87-3.85-2.13-6.09-6.55-7.39-10.58-1.39-4.34-1.73-8.99-1.33-13.52.18-2.05.53-4.1,1.02-6.1.25-1.01.55-2.02.9-3,.84-2.36,1.93-4.57,3.52-6.53,1.04-1.27,2.32-2.23,3.85-2.75,1.48-.51,3.03-.52,4.57-.02,1.9.61,3.41,1.75,4.66,3.26,1.7,2.06,2.79,4.43,3.59,6.95.72,2.28,1.01,4.62,1.2,6.97.04.49-.02.54-.63.54h-7.76Zm-3.66-2h4.23c.58,0,.68-.09.68-.65-.03-2.53.15-5.06-.17-7.58-.15-1.14-.39-2.27-.91-3.31-.68-1.38-1.69-2.32-3.33-2.46-1.46-.12-2.64.31-3.46,1.55-.4.61-.72,1.26-.93,1.96-.5,1.6-.71,3.25-.77,4.91-.05,1.64-.02,3.28-.02,4.92,0,.64,0,.65.68.65h4.01Z"/><path d="m145.85,46.62h-7.82c-.49.02-.54.07-.57.59v.28c0,4.03-.02,8.06,0,12.09.02,2.28.3,4.53,1.13,6.69.56,1.47,1.43,2.68,2.93,3.35,1.05.48,2.15.49,3.25.35,1.99-.24,3.46-1.36,4.62-2.93,1.57-2.1,2.54-4.48,3.14-7.01.21-.87.43-1.73.54-2.61.04-.35.21-.5.53-.54.16-.02.33-.04.49-.02.57.04.63.15.53.69-.3,1.59-.68,3.16-1.19,4.7-.75,2.31-1.71,4.53-3.21,6.45-1.2,1.53-2.65,2.79-4.58,3.35-1.84.54-3.63.36-5.37-.38-2-.86-3.47-2.36-4.69-4.11-2.09-2.99-3.34-6.33-4.07-9.88-.2-.94-.4-1.9-.46-2.84-.19-2.54-.32-5.09-.05-7.64.23-2.15.51-4.28,1.06-6.37.75-2.88,1.79-5.64,3.49-8.09,1.1-1.61,2.5-2.92,4.34-3.69,1.13-.47,2.31-.64,3.51-.48,2.48.33,4.43,1.6,6.01,3.48,1.93,2.29,3.06,4.97,3.87,7.82.48,1.7.7,3.44.94,5.18.21,1.51.14,1.55-1.35,1.54h-6.98v.02Zm-3.54-2h0c1.38,0,2.77,0,4.16,0,.59,0,.67-.08.67-.64,0-2.67.14-5.35-.29-8-.21-1.32-.59-2.57-1.33-3.74-1-1.58-3.7-2.15-5.28-1.08-.75.5-1.22,1.22-1.57,2.03-.63,1.43-.91,2.95-1.07,4.49-.21,2.05-.16,4.12-.15,6.18,0,.72.05.76.76.77h4.1Z"/><path d="m263,36.8c.27-.45.4-.87.55-1.27.45-1.16.91-2.32,1.54-3.39.6-1.01,1.3-1.94,2.22-2.7,1-.83,2.13-1.02,3.37-.87.64.08,1.18.45,1.67.86,1.09.9,1.67,2.07,1.9,3.43.25,1.43.17,2.84-.21,4.24-.14.53-.37,1.01-.68,1.46-.78,1.09-2.12,1.33-3.23.58-.34-.23-.61-.51-.85-.84-1.26-1.77-1.41-3.68-.67-5.68.16-.44.37-.86.54-1.3.12-.33.05-.45-.29-.46-.44-.02-.83.09-1.17.39-.66.58-1.22,1.23-1.6,2.03-.74,1.55-1.31,3.15-1.77,4.81-.62,2.19-1.02,4.43-1.41,6.67-.09.54-.11,1.07-.11,1.61,0,7.59,0,15.19,0,22.78,0,.69.35,1.04,1.05,1.05.68,0,1.36,0,2.04,0,.46.02.52.09.57.54.15,1.45.12,1.48-1.34,1.48h-11.21c-1.01,0-1.02,0-1.02-1.01v-.07c0-.92.02-.94.95-.95h1.97c.74,0,.77-.06.79-.82v-36.36c0-1.28,0-1.18-1.2-1.18-.66,0-1.32,0-1.97,0-.54-.02-.56-.06-.55-.57,0-.26.02-.52.02-.77.02-.76.06-.81.8-.82,1.24,0,2.49-.02,3.73,0,1.67.03,3.27-.2,4.76-1.02.48-.26.61-.17.61.4,0,2.3,0,4.59,0,6.89,0,.25-.08.51.18.84v.03Z"/><path d="m162.84,37.03c.27-.19.27-.47.36-.71.52-1.43,1.07-2.84,1.83-4.18.56-.99,1.22-1.93,2.09-2.63,1.29-1.04,3.12-1.48,4.78-.37,1.54,1.03,2.2,2.58,2.36,4.35.06.68,0,1.36,0,2.04,0,.86-.27,1.66-.59,2.44-.25.6-.69,1.06-1.28,1.36-.82.43-1.71.31-2.42-.3-1.6-1.37-2.07-3.12-1.73-5.13.12-.77.38-1.5.7-2.21.1-.22.32-.48.11-.72-.21-.24-.53-.12-.8-.04-.79.25-1.29.83-1.72,1.49-.59.91-1.03,1.9-1.4,2.91-.85,2.34-1.43,4.76-1.87,7.2-.08.46-.16.92-.26,1.38-.26,1.29-.3,2.6-.3,3.92.02,7.1,0,14.2,0,21.3,0,.7.34,1.06,1.03,1.06.66,0,1.32,0,1.97,0,.57.02.63.09.67.66.07,1.37.07,1.36-1.25,1.36h-10.78c-.35,0-.7.02-1.06.04-.33.02-.48-.13-.48-.45,0-1.86-.18-1.59,1.46-1.62h1.55c.73,0,.77-.04.77-.74v-36.48c0-1.16.08-1.13-1.1-1.12-.68,0-1.36.02-2.04,0-.57-.02-.63-.09-.65-.67-.06-1.48-.04-1.5,1.43-1.5,1.08,0,2.16,0,3.24.02,1.64,0,3.23-.18,4.68-1.03.37-.21.52-.13.54.28.02.26,0,.52,0,.77v6.68c0,.2-.07.42.14.63l.02.02Z"/><path d="m94.16,48.48v14.76c0,1.22.07,2.43.28,3.64.11.59.26,1.15.56,1.66.4.68.93,1.1,1.81,1.11,1.56.02,2.46-.88,3.21-2.05.59-.91.87-1.97,1.15-3.01.06-.22.07-.49.35-.55.37-.08.75-.09,1.11.03.13.04.12.19.08.3-.5,1.95-1.01,3.89-2.24,5.57-2.42,3.32-7.05,3.13-9.58.17-1.3-1.52-1.92-3.3-2.15-5.25-.12-1.01-.13-2.01-.13-3.02v-29.46c0-1.18.02-1.1-1.13-1.09-.94,0-1.88.02-2.82,0-.6,0-.68-.1-.69-.71-.04-1.2-.05-1.24,1.15-1.36,1.06-.11,2.04-.41,2.88-1.03,1.31-.96,2.25-2.23,2.89-3.74,1.05-2.49,1.6-5.09,1.84-7.76.02-.21.07-.42.12-.62.13-.55.27-.63.83-.59.32.02.47.18.48.49,0,.23.02.47.02.7v11.88c.02.66.05.71.73.71h5.78c.79,0,.9.11.92.88v.21c0,.9-.07.96-.95.96-1.9,0-3.81,0-5.71,0-.76,0-.78.03-.79.8v16.38h0v-.02Z"/><path d="m284.8,49.31v19.76c0,.75.37,1.12,1.12,1.13.63,0,1.27,0,1.9,0,.55.02.6.08.64.6.1,1.43.1,1.42-1.31,1.42h-10.58c-.35,0-.7.02-1.06.03-.6.02-.68-.04-.71-.66,0-.23,0-.47,0-.7.02-.62.09-.69.7-.7.85,0,1.69,0,2.54,0,.54,0,.53,0,.46-.54-.03-.3-.05-.61-.05-.91v-32.73c0-1.3,0-2.6.06-3.9.02-.53-2.48-.27-2.93-.28-.71,0-.77-.07-.77-.76v-.07c0-1.3.03-1.34,1.33-1.34s2.49,0,3.73.02c1.48.02,2.89-.33,4.21-.96.11-.05.21-.12.31-.16.2-.07.33.02.36.21.03.23.03.47.03.7v19.84Z"/><path d="m284.82,5c.04.98-.23,2.01-.74,2.98-.15.29-.34.57-.54.82-1.22,1.48-2.88,1.19-3.9-.08-.41-.52-.7-1.11-.89-1.75-.5-1.7-.42-3.37.32-5,.29-.63.71-1.16,1.24-1.6.8-.66,1.77-.68,2.59-.05.46.36.86.79,1.13,1.33.59,1.16.8,1.98.79,3.35h0Z"/><circle class="cls-3" cx="337.3" cy="29.03" r="2.44"/><g class="cls-1"><text class="cls-2" transform="translate(335.74 30.6)"><tspan x="0" y="0">R</tspan></text></g></svg>