<?xml version="1.0" encoding="UTF-8"?><svg id="Layer_1" xmlns="http://www.w3.org/2000/svg" width="273.35" height="116.47" viewBox="0 0 273.35 116.47"><defs><style>.cls-1{fill:#2b2a29;fill-rule:evenodd;}</style></defs><g id="Layer_1-2"><g id="_2085133434624"><path class="cls-1" d="m212.02,74.27c0-2.88.37-9.11.82-12.17.08-.52.19-1.16.19-1.68.45.3.83.56,1.28.9.57.43,1.95,1.6,2.3,2.06l1.56,1.79c3.34,4.27,5.31,9.31,6.07,14.77.08.59.18,1.36.22,1.95l.08,2.17c0,2.89-.73,8.1-3.42,9.49-1.56.8-3.14.57-4.53-.46-2.21-1.63-2.72-4.16-3.32-6.72-.48-2.05-.67-3.72-.93-5.76-.13-1.03-.13-2.11-.24-3.1l-.09-3.26h0Zm35.41,38.97h-.62c-.81-.04-1.64-.21-2.49-.55-4.88-1.98-6.87-9.81-7.5-14.59-.41-3.09-.75-6.33-.91-9.43-.02-.34-.06-.28-.08-.62-.05-.92-.08-1.69-.08-2.65,0-.56-.08-.78-.08-1.32l-.08-23.1h-12.6l1.53,2.13c.73,1.1,1.32,2.36,1.9,3.55.4.82.71,1.73,1.01,2.57.16.44.3.87.44,1.35.57,1.9,1.11,3.88,1.41,5.83.09.58.16,1.06.26,1.61.28,1.6.4,3.3.39,4.98,0,.73.12,1.02.02,1.73-.08.55.03,1.18-.05,1.73-.08.53-.08,1.12-.14,1.65-.27,2.44-.77,4.98-1.85,7.17-.76,1.54-1.65,3.13-2.98,4.25-.18.15-.35.28-.52.41l-1.06.73c-1.67.93-2.68,1.06-4.62,1.06s-3.93-1.06-5.19-2.28l-.45-.4s-.03-.03-.04-.04l-1.02-1.16c-1.68-2.1-2.62-4.54-3.46-7.12-.19-.58-.3-1.03-.45-1.65-.42-1.67-1.44-7.27-1.44-9.06-.28.21-.03-.03-.2.27l-.92,1.8c-1.78,2.98-2.29,4.01-4.54,6.51l-.77.79c-.19.15-.24.23-.4.37l-1.33,1.01c-.62.41-1.35.78-2.05,1.06-3.17,1.28-6.14.11-8.08-2.48-3.19-4.25-3.75-10.83-4.34-16.04-.04-.35-.08-.6-.09-.92l-.27-3c-.06-.41.04-.63-.2-.81-.01.47-.32,1.25-.48,1.7l-6.7,21.54c-.2.65-.94,2.61-.99,3.29-.78-.06-4.08-1.76-5.21-2.02l.27-3.39c.15-1.07.2-2.19.28-3.3l.62-6.62c-.1.11-.03,0-.12.19-.61,1.21-1.08,2.37-1.79,3.58-1.62,2.73-3.48,5.4-5.92,7.46-1.54,1.3-2.79,2.21-4.64,3.14-3.64,1.83-8.47,2-12.54,1.08-.18-.04-.26-.08-.42-.12-.31-.08-.63-.14-.93-.23-2.07-.6-4.7-1.63-6.47-2.71-.37-.22-1.07-.7-1.46-.79v20.92h-5.52c0-.72.08-1.36.08-2.18,0-.73,0-1.45,0-2.18,0-.77.08-1.34.08-2.18,0-.73,0-1.45,0-2.18,0-.81.08-1.34.08-2.18v-10.97c0-.83.08-1.43.08-2.18,0-.99.2-1.01-.49-1.69-.57-.57-3.85-4-4.42-4.38l.31-1.32c.2-.8,1-5.08,1.21-5.32.08-.1.96-.4,1.17-.46.66-.22,1.84-.78,2.44-.83,0-.74.08-1.18.08-1.87,0-.68.03-1.22.07-1.79.1-1.16-.03-2.51.09-3.64l.3-8.1c.02-.35.08-.42.08-.85,0-.6-.06-1.25.03-1.84l.2-5.4c0-.67.08-1.08.08-1.79,0-.7.08-1.18.08-1.79l.08-1.79c0-.31,0-.63,0-.94,0-.42.07-.46.08-.85.02-.61-.06-1.25.03-1.84.17-1.11,0-2.49.14-3.59.14-1.03.02-2.49.18-3.55.07-.47.07-1.31.11-1.76.02-.3-.01-.63,0-.93.02-.35.08-.42.08-.85,0-1.27.15-2.32.15-3.58l.41-7.05c.16-1.14.21-2.37.21-3.52.61,0,2.75.33,3.46.43.56.08,1.19.07,1.75.19.4.08.23.34.18.64l-.34,5.42c-.01,1.14-.13,1.79-.16,2.65-.03,1.11-.23,6.01-.37,7.33-.07.6-.01,1.31-.08,1.87-.03.31,0,.62-.01.92l-.31,6.37c0,.33.02.69,0,1.01-.02.35-.08.43-.08.85,0,.33.01.69,0,1.02-.01.39-.08.43-.08.85,0,.6.04,1.26-.04,1.82-.09.6-.11,2.98-.11,3.7,0,1.17-.16,2.45-.16,3.65,0,1.34-.06,2.45-.07,3.81,0,.43-.08.49-.08.93v1.87c0,.42-.07.46-.08.85-.02.63,0,1.31,0,1.95,0,.67-.08,1.08-.08,1.79,0,1.33-.08,2.39-.08,3.73.43-.11,2.77-2.16,3.28-2.56l2.66-2.24c.16-.16.21-.23.4-.38l2.55-2.35c.56-.57,1.07-1.07,1.63-1.63l1.99-2.14c.18-.18.2-.24.35-.43,2.19-2.61,4.53-5.53,6.42-8.36,1.32-1.99,2.5-4.03,3.73-6.08.22-.37.39-.65.61-1.02.17-.28.44-.82.66-.98.24.16.38.39.57.6.99,1.11,2.95,3.01,3.71,4.14-1.54,2.3-2.91,4.57-4.56,6.95l-4.88,6.63c-1.29,1.58-2.55,3.21-3.96,4.67-.2.2-.23.31-.42.51-.31.33-.7.64-.97.98-.84,1.06-2.43,2.31-2.88,2.88l-2.38,2.37c-.21.21-.3.25-.51.43l-2.1,1.79c-1.3,1.13-2.87,2.31-4.27,3.35-.21.15-.36.29-.57.45-.25.18-1.52.99-1.52,1.28v3.34c0,.34,2.76,1.87,3.03,2.03,1.01.58,2.19,1.18,3.34,1.64,1.2.48,2.38.86,3.79,1.19.8.19,3.11.47,3.88.39.21-.02.35-.04.59-.04,4.25,0,8.07-2.32,10.72-5.47,1.36-1.62,2.48-3.41,3.4-5.32.28-.58.48-1.15.73-1.76l1.37-3.6c1.79-5.14,3.2-10.32,4.23-15.68.22-1.17.09-.88,1.45-.64.22.04,4.07.71,4.17.81.19.21-.12,3.14-.16,3.81l-.08,2.25c-.06,2.15-.15,4.12-.15,6.3.01-.02.02-.04.02-.05,0-.01.02-.04.02-.05.25-.61.37-1.31.56-1.93.54-1.81,4.34-13.74,4.37-14.14.67,0,4.89.9,5.29,1.09,0,.39,0,.78,0,1.17,0,.5.07.63.08,1.09.02,1.43.36,5,.53,6.32.09.7.15,1.48.23,2.11l.65,6.12c.45,3.85.57,8.21,1.99,11.77.26.64.35.98.75,1.5,1.11,1.43,3.09.75,4.29-.16,1.66-1.25,3.11-3.25,4.16-5.02l1.39-2.5c.63-1.16,1.21-2.44,1.71-3.66,1.46-3.55,3.24-7.76,3.8-11.52.27-1.8.45-3.68.78-5.37l.83-3.84c.09-.37.25-.85.28-1.2.35,0,.7.17,1.06.27,1.7.48,3.41.9,5.15,1.23.68.13,1.44.27,2.19.37.39.05.74.11,1.15.17,1.28.22,4.7.53,5.86.52.82,0,1.51.08,2.41.08h3.81c1.09,0,1.92-.07,2.96-.07.53,0,.8-.08,1.4-.07.77.01.52-.19.54-.94,0-.37.06-.35.08-.7.01-.24,0-.53,0-.78l.62-12.76c.02-.34.07-.32.08-.7,0-.23-.02-.46,0-.69l.38-5.61c.01-.25-.02-.52,0-.77.02-.29.07-.27.08-.62.06-2.29.41-4.7.46-7,0-.37.06-.35.08-.7l.7-8.87c.9,0,3.23.57,4.23.74,1.65.29,1.22-.18,1.14,2.91-.06,2.08-.44,5.33-.47,7.23,0,.44-.05.77-.08,1.24l-.77,9.49c-.03,1.18-.09,2.37-.26,3.55-.18,1.25-.57,8.25-.59,9.68,0,.46-.09.69-.08,1.24l-.08,2.41c0,.51-.05.77-.08,1.17.67-.01,1.47-.21,2.11-.3,1.39-.19,2.7-.48,4.1-.72,5.67-.97,14.47-4.07,19.34-6.96l3-1.74c.22.46.93,2.91,1.11,3.56.16.57.38,1.15.56,1.77.14.47.5,1.3.51,1.74-.44.12-2.93,1.62-3.37,1.84-5.86,2.91-8.8,4.16-14.83,6.02l-5.22,1.32c-.33.07-.75.15-1.1.23-1.43.33-2.91.53-4.39.75-.44.06-.75.08-1.18.14-.31.05-.85.12-1.12.12v14.23c0,.91.08,1.54.08,2.41,0,2.46.03,4.9.23,7.32.07.82.02,1.6.09,2.4.34,4.34.63,9.08,1.78,13.24.32,1.15.69,2.19,1.19,3.24,1.95,4.1,5.44,2.29,7.67-.24l1.08-1.25c2.57-3.15,5.2-8.86,6.4-12.43.11-.33.22-.6.32-.92.1-.3.17-.56.28-.89.21-.62.36-1.14.55-1.79.36-1.25.66-2.42.96-3.71.4.03,1.03.33,1.39.48l2.69,1.04c.42.17.95.4,1.37.5-.04.43-.21.89-.3,1.26-.49,1.98-1.04,3.98-1.74,5.89-.67,1.84-1.3,3.73-2.09,5.53-.15.35-.27.68-.44,1.04l-1.5,3.09c-.82,1.65-1.82,3.23-2.82,4.73-.8,1.2-1.72,2.33-2.62,3.45l-1.16,1.17c-.17.15-.22.15-.39.31-.31.28-.54.44-.86.7-.26.21-.61.44-.88.6-.33.2-.63.39-.99.56-1.22.58-2.43.94-3.66,1h0Z"/><path class="cls-1" d="m89.63,82.36h0ZM54.48,1.7h.63c.35.06.69.22,1,.52,1.45,1.4,1.22,3.86,1.22,5.78,0,2.97-1.02,9.9-1.5,13.05l-2.05,12.42c-.19,1.09-.15,2.24-.31,3.35l-.18,2.23c-.03.42-.08.71-.09,1.08l-.91,16.05c-.1.73.05,1.6-.07,2.35l-.11,2.3c-.04.76,0,1.64,0,2.41,0,.49-.08.65-.08,1.16l-.08,5.91c0,3.22-.08,6.29-.08,9.57.32-.24,2.55-4.96,2.87-5.61l.61-1.26c.3-.6.57-1.1.85-1.72.11-.26.13-.23.23-.47.09-.19.11-.27.19-.43.57-1.16,1.67-3.24,2.09-4.29.26-.64.6-1.17.87-1.78l4.18-8.66c.16-.32.27-.61.41-.91.36-.72,1.08-1.83,1.25-2.57.26.06.42.17.64.29,1.4.78,2.93,1.37,4.34,2.12v2.64c0,.42-.02.91,0,1.32v1.17c0,5.96-.04,12.99.99,18.3.39,2,.9,3.95,1.86,5.68,1.5,2.7,3.11,2.93,5.94,2.93l4.67-.62c0-1,.1-1.89.15-2.8.05-.93.14-1.79.26-2.7.16-1.24.3-2.61.58-3.85.1-.42.16-.83.25-1.23.46-1.96.89-3.94,1.53-5.86.14-.42.22-.72.36-1.12.47-1.42,1.08-2.86,1.69-4.22l1.48-2.96c1.7-3.3,5.81-9.02,10.11-7.38,3.17,1.21,4.06,5.46,4.06,8.55,0,2.74-.91,6.76-1.62,9.27-.41,1.45-.85,2.73-1.38,4.06-.77,1.93-1.65,3.71-2.65,5.51-1.03,1.84-3.74,5.63-5.58,7.18l-.13.11c-.13.11-.19.17-.32.3-.81.82-2.07,1.82-3.09,2.35.3.63.29,6.49,3.41,8.65.61.42,1.96,1,2.97,1,.16,0,.85-.14,1.06-.19,1.23-.31,2.13-1.06,3.08-1.82.47-.38.8-.83,1.18-1.31.19-.24.33-.41.51-.66.67-.98,1.29-2.02,1.78-3.12l1.43-3.47c.86-2.29,1.65-5.26,2.08-7.72.13-.73.3-1.39.39-2.11.04-.33-.09-.32.2-.33.13,0,.4.09.5.12l4.76,1.24c-.03,1.43-1.33,7.21-1.8,8.7-.05.16-.1.29-.15.48-.8,2.9-1.84,5.55-3.09,8.04-1.05,2.11-2.96,5.14-4.81,6.7l-1.33,1.09c-2.78,1.92-6.17,2.91-9.53,1.69-1.41-.51-2.81-1.41-3.74-2.57-1.62-2.02-2.37-3.76-3.2-6.21-.31-.93-1.15-4.09-1.15-5.15-.91,0-1.88.32-2.67.45-1.42.23-2.42.33-3.87.33-2.75,0-5.56-2.06-7.16-4.12l-.53-.71c-.38-.51-.64-.94-.98-1.51-2.11-3.47-2.81-7.53-3.4-11.53-.16-1.09-.16-2.25-.33-3.4l-.2-3.53c0-.42,0-.83,0-1.25,0-.49-.08-.65-.08-1.16-.37.43-1.41,2.73-1.66,3.24l-8.08,16.42c-.25.54-.57,1.11-.81,1.68l-2.37,4.95c-1.12-.26-4.2-1.65-4.98-1.71l-.31-6.38c-.04-.52,0-1.17,0-1.71,0-.4-.06-.43-.08-.77-.07-1.37,0-2.76,0-4.12,0-1.14-.08-2.08-.08-3.27l-.06-9.86s-.04.09-.05.11l-.96,2.93c-2.04,6.14-4.51,12.04-7.23,17.9-.87,1.88-2.47,5.17-3.51,6.92l-3.16,5.24c-1.13,1.8-2.07,2.93-3.34,4.52-1.33,1.65-4.24,4.44-6.45,4.44-1.12,0-2.05-.12-2.86-.87-1.42-1.32-2.33-4.12-2.68-6.03-.23-1.27-.65-3.87-.68-5.15-.03-1.36-.22-2.87-.23-4.2v-5.91c0-.69.08-1.08.08-1.79l.12-3.53c.09-.58-.02-1.22.07-1.8.26-1.71.03-3.54.26-5.19.15-1.08-.02-2.44.14-3.51l.11-1.76c.1-1.79.1-3.44.24-5.21.09-1.14.23-2.3.23-3.43l-3.95.49c-2.48.31-5.17.79-7.66,1.05-.68.07-1.29.15-1.94.24-.33.05-.6.06-.97.11-.29.04-.72.12-.97.12l-.38-6c-.07-.63-.09-1.29-.09-1.95v-.06c.33,0,.73-.11,1.09-.16.36-.05.6-.11,1-.16l6.29-.94c2.4-.32,4.89-.81,7.34-1.07.38-.04.65-.15,1.01-.16,0-2.54.34-6.3.55-8.94l.4-4.35c.2-1.89.68-6.7.76-8.65.05-1.04.24-2.33.24-3.34l.12-2.29c.05-.36.04-.76.03-1.13,0-.48-.14-.84.3-.86l3.17.35c.39.05.63.09,1.03.14.37.04.57.14,1.02.14,0,.9-.16,1.86-.16,2.72.01,1.95-.29,4.25-.39,6.3l-.6,7.02c-.08.59-.05,1.15-.13,1.73-.16,1.15-.16,2.34-.32,3.49-.17,1.19-.21,2.32-.33,3.48-.06.6-.19,3.22-.32,3.49.27-.02.57-.11.85-.16l2.44-.44c1.01-.2,9.15-1.81,9.78-1.81l.5,3.85c.14.94.43,2.95.43,3.85-.59.05-1.32.28-1.88.38-.65.11-1.17.23-1.82.35-1.27.24-2.44.43-3.68.67l-7.32,1.39c0,1.41-.34,4.86-.46,6.46-.02.23,0,.45-.02.68l-.61,10.98c-.02.45.02.95,0,1.4-.01.43-.08.7-.08,1.24,0,1.86-.07,3.54-.07,5.45,0,.51-.08.75-.08,1.32.02,3.46.06,8.39.59,11.7.1.65.41,1.72.42,2.3.6-.05,1.93-1.42,2.31-1.81,1.75-1.75,3.08-3.89,4.34-6l.75-1.27c.81-1.35,1.58-2.96,2.21-4.01.76-1.26,2.01-4.02,2.71-5.46.24-.49.39-.91.62-1.4l4.21-10.26c1.51-4.19,2.28-6.43,3.47-10.92.43-1.61.89-3.25,1.24-4.91.07-.32.12-.46.2-.82l2.27-10.1c.55-2.46,2.02-9.4,2.2-11.18.06-.64.12-1.28.16-1.86.03-.31,0-.69,0-1.01,0-.43.08-.49.08-.93,0-.77.06-1.26.07-2.03,0-.59.14-1.26.16-1.86.06-2.28.84-7.49,1.26-10.02.04-.26.09-.62.14-.87.24-1.18.43-2.28.66-3.46l1.15-5.07c.12-.5.23-1.11.42-1.6.34-.91,1.22-1.69,2.16-1.84h0Zm35.14,80.66c0-1.34.81-5.04,1.08-6.31.21-.96.5-2.03.79-2.94.39-1.23,1.42-4.15,2.07-5.32.68-1.24,1.6-2.9,2.54-4,.56-.66,1.66-1.89,2.39-2.28,0,5.07-1.52,9.57-3.68,13.9-.84,1.68-2.89,4.7-4.23,6.04-.31.31-.61.68-.95.91Z"/></g></g></svg>