<?xml version="1.0" encoding="UTF-8"?>
<!DOCTYPE svg PUBLIC "-//W3C//DTD SVG 1.1//EN" "http://www.w3.org/Graphics/SVG/1.1/DTD/svg11.dtd">
<!-- Creator: CorelDRAW 2019 (64-Bit) -->
<svg xmlns="http://www.w3.org/2000/svg" xml:space="preserve" width="214px" height="53px" version="1.1" style="shape-rendering:geometricPrecision; text-rendering:geometricPrecision; image-rendering:optimizeQuality; fill-rule:evenodd; clip-rule:evenodd"
viewBox="0 0 213.01 52.44"
 xmlns:xlink="http://www.w3.org/1999/xlink"
 xmlns:xodm="http://www.corel.com/coreldraw/odm/2003">
 <defs>
  <style type="text/css">
   <![CDATA[
    .fil0 {fill:black}
   ]]>
  </style>
 </defs>
 <g id="Layer_x0020_1">
  <metadata id="CorelCorpID_0Corel-Layer"/>
  <g id="_2630567208288">
   <path class="fil0" d="M25.41 23.98l0.63 -3.65c1.63,0 4.85,-0.33 4.85,1.21l0 0.61c0,2.25 -3.19,1.83 -5.48,1.83zm-8.61 12.19l6.37 0.01 1.49 -7.92c3.87,-0.08 3.35,7.92 5.22,7.92l22.76 0c0.9,0 1.79,-4.68 0.61,-4.68l-9.75 0 0.52 -3.67 9.64 -0.03c0.1,-4.68 2.74,-4.43 -3.46,-4.43 -7.7,0.01 -4.95,0.36 -4.87,-2.84 2.7,0 5.43,-0.04 8.14,0.01 2.06,0.04 2.23,0.31 2.5,-1.56 0.62,-4.27 2.6,-2.92 -16.34,-2.92l-3.38 18.87c-1.04,-1.82 -1.43,-7.08 -3.93,-7.29l0 -0.4c2.55,-0.22 5.28,-3.25 5.28,-6.1l0 -1.42c0,-5.35 -11.85,-3.66 -17.27,-3.66l-3.53 20.11z"/>
   <path class="fil0" d="M135.57 36.18l4.88 0c1.23,0 2.23,-8.68 2.23,-10.37 1.11,1.28 4.8,10.37 5.9,10.37l5.28 0c1.08,0 1.95,-8.58 2.18,-9.82 0.46,-2.62 1.63,-7.94 1.68,-10.3l-6.1 0 -1.84 10.53 -5.28 -10.53c-1.21,0 -2.43,0.01 -3.65,-0.01 -3.1,-0.04 -2.28,-1.44 -3.77,7.61 -0.37,2.26 -0.75,4.29 -1.11,6.42 -0.18,1.08 -1.67,6.1 -0.4,6.1z"/>
   <path class="fil0" d="M54 36.17l6.16 0.01 1.81 -10.33c0.85,1.15 4.82,10.33 5.71,10.33l5.08 0c1.37,0 2.4,-10.54 2.73,-12.32 1.74,-9.39 3.14,-7.8 -4.76,-7.8l-2.03 10.36 -5.14 -10.33 -6.04 -0.03 -3.52 20.11z"/>
   <path class="fil0" d="M203.25 23.98l-2.44 0c0,-4.26 0.84,-3.65 2.64,-3.65 2.32,0 2.65,0.63 2.65,1.82 0,1.47 -1.38,1.83 -2.85,1.83zm-11.18 11.59l0 0.61 6.51 0 1.32 -7.95c3.7,0.1 3.28,7.95 5.18,7.95 8.16,0 7.21,1.01 5.31,-4.7 -0.48,-1.44 -1.1,-3.8 -2.87,-3.84 0.38,-0.52 5.49,-2.13 5.49,-6.91 0,-3.72 -2.56,-4.67 -6.3,-4.67l-10.78 0c-1.08,0 -1.88,8.04 -2.12,9.46 -0.4,2.45 -1.74,8.1 -1.74,10.05z"/>
   <path class="fil0" d="M94.11 36.18l6.3 0 1.36 -7.94 6.16 0.01c0,1.59 -1.76,7.93 -0.61,7.93l5.48 0c1.13,0 1.95,-8.52 2.19,-9.81 0.47,-2.47 1.68,-8.02 1.68,-10.31l-6.51 0 -1.25 6.9 -6.06 0.01c0,-1.52 1.62,-6.91 0.4,-6.91l-5.49 0c-0.97,0 -1.91,8.47 -2.12,9.87 -0.33,2.27 -1.88,8.75 -1.53,10.25z"/>
   <path class="fil0" d="M81.91 31.5c0.03,-1.44 1.26,-10.57 2.24,-10.57 4.36,0 4.26,0.59 4.26,4.07 0,4.82 -1.65,6.5 -6.5,6.5zm-7.32 4.68c5.17,0 11.8,0.7 15.14,-1.32 3.93,-2.38 5.39,-6.75 5.39,-12.3 0,-4.13 -3.02,-6.5 -7.32,-6.5l-9.34 0c-1.07,0 -1.96,8.58 -2.18,9.81 -0.45,2.51 -1.69,8.1 -1.69,10.31z"/>
   <path class="fil0" d="M115.65 29.67c0,6.23 3.56,6.92 9.35,6.92 5.36,0 8.32,-2.66 9.73,-6.54 0.55,-1.52 2.46,-12.08 2.46,-13.99l-5.89 0c-2.4,0 -0.2,15.65 -6.5,15.65 -1.93,0 -2.65,-1.18 -2.65,-2.85 0,-2.21 3.09,-12.8 1.63,-12.8l-5.49 0c-1.04,0 -2.64,11.81 -2.64,13.61z"/>
   <path class="fil0" d="M174.39 35.77c0,0.29 0.28,0.41 0.61,0.41l15.85 0c0.91,0 1.22,-3.19 1.22,-4.27 0,-0.74 -9.03,-0.41 -10.36,-0.41l0.54 -3.46 9.62 -0.04c0.43,-5.8 3.6,-4.63 -8.74,-4.63l0.33 -2.65 10.24 0.01 0.88 -4.66 -16.73 -0.01c-0.9,3.85 -3.46,15.97 -3.46,19.71z"/>
   <path class="fil0" d="M23.78 39.43c0.19,2.26 5.93,7.39 7.8,8.66 6.15,4.15 9.81,4.34 16.72,4.35l0.7 0c10.55,-0.02 22.42,-13.21 19.09,-13.21l-3.25 0c-1.3,0 -2.43,2.27 -3.54,3.16 -4.83,3.91 -8.47,5.78 -15.57,5.78 -4.31,0 -7.64,-1.36 -10.5,-2.91 -4.48,-2.43 -5.99,-6.03 -7.59,-6.03 -1.07,0 -3.01,-0.13 -3.86,0.2z"/>
   <path class="fil0" d="M24.59 12.8l4.07 0c0.38,0 6.53,-8.33 18.09,-8.33 6.69,0 11.57,2.86 15.6,6.96 1.98,2.03 2.4,1.37 6.15,1.37 -0.2,-2.34 -5.91,-7.21 -7.81,-8.45 -2.37,-1.56 -8.44,-4.35 -12.11,-4.35l-4.88 0c-9.4,0 -22.23,12.8 -19.11,12.8z"/>
   <path class="fil0" d="M157.52 20.93c0,0.87 4.54,0.21 5.47,0.43 1.54,0.36 -2.36,12.46 -1.81,14.82l6.3 0 2.77 -14.85c6.01,0.01 6.99,1.13 6.99,-5.27l-18.5 0c-0.94,0 -1.22,3.81 -1.22,4.87z"/>
   <path class="fil0" d="M0 21.14l5.89 0 -2.33 14.61c0.01,0.77 4.55,0.43 5.99,0.43 1.04,0 1.97,-8.78 2.18,-10.02 1.07,-6.46 -0.3,-5.02 7.17,-5.02 0.03,-1.26 1.49,-5.08 0.21,-5.08l-17.89 0c-1.09,0 -1.22,3.81 -1.22,5.08z"/>
   <path class="fil0" d="M200 44.11l-3.05 0 0 -3.66c2.26,0 4.67,-0.42 4.67,2.03 0,0.98 -0.64,1.63 -1.62,1.63zm-4.47 -4.07l0 8.74c0,0.72 0.48,0.8 1.22,0.81 0.41,-0.73 0.2,-3.29 0.2,-4.27l2.44 0c1.14,0 1.4,4.27 3.05,4.27 1.2,0 -0.83,-3.52 -1.22,-4.27 0.67,-0.91 1.83,-1.06 1.83,-3.04 0,-3.59 -4.46,-3.05 -6.71,-3.05 -0.47,0 -0.81,0.33 -0.81,0.81z"/>
   <path class="fil0" d="M87.19 44.11l-3.04 0c0,-4.28 -0.52,-3.66 2.23,-3.66 3.33,0 2.97,3.66 0.81,3.66zm-4.47 -4.07l0 8.94c0,0.63 0.29,0.61 0.82,0.61 1.1,0 0.5,-2.31 0.58,-3.28 0.12,-1.51 1.18,-0.99 2.87,-0.99 1.08,4.65 5.04,6.83 1.42,0 1.11,-1.5 1.63,-0.04 1.63,-3.65 0,-2.82 -4.51,-2.44 -6.1,-2.44 -0.62,0 -1.22,0.19 -1.22,0.81z"/>
   <path class="fil0" d="M116.87 39.43c0,1 -0.51,10.16 0.61,10.16l5.69 0c0.78,0 0.07,0.07 0.61,-0.2 -0.04,-1.72 -0.71,-1.22 -5.49,-1.22l0 -3.46 4.27 0c0.78,0 0.07,0.07 0.61,-0.2 -0.12,-1.47 -0.98,-1.01 -4.88,-1.01l0 -3.05 4.88 0c0.78,0 0.07,0.06 0.61,-0.21 -0.13,-1.56 -2.35,-1.01 -5.89,-1.01 -0.32,0 -0.77,0.1 -1.02,0.2z"/>
   <path class="fil0" d="M205.08 39.43c0,1.07 -0.51,10.16 0.61,10.16l5.49 0c1.03,0 1.03,-1.42 0,-1.42l-4.68 0 0 -3.46 4.27 0c0.78,0 0.08,0.07 0.61,-0.2 -0.12,-1.47 -0.97,-1.01 -4.88,-1.01l0 -3.05 4.88 0c0.78,0 0.08,0.06 0.61,-0.21 -0.13,-1.56 -2.35,-1.01 -5.89,-1.01 -0.32,0 -0.77,0.1 -1.02,0.2z"/>
   <path class="fil0" d="M136.99 49.59c1.65,0 1.22,-0.31 1.22,-4.88l4.68 0 0 4.27c0,0.78 -0.07,0.08 0.2,0.61 0.74,-0.01 1.22,-0.09 1.22,-0.81l0 -8.74c0,-0.57 -1.23,-1.57 -1.44,0.17 -0.09,0.75 0.02,2.43 0.02,3.29l-4.68 0 0 -3.05c0,-1.14 -1.02,-1.75 -1.37,-0.6 -0.05,0.16 -0.33,8.74 0.15,9.74z"/>
   <path class="fil0" d="M92.28 40.04l0 8.94c0,0.47 0.14,0.61 0.6,0.61l5.49 0c0.78,0 0.08,0.07 0.61,-0.2 0,-1.68 -0.4,-1.22 -5.28,-1.22l0 -3.46 4.06 0c0.78,0 0.08,0.07 0.61,-0.2 -0.12,-1.45 -0.91,-1.01 -4.67,-1.01l0 -3.05 4.67 0c0.78,0 0.08,0.06 0.61,-0.21 -0.13,-1.56 -1.37,-1.01 -5.89,-1.01 -0.48,0 -0.81,0.33 -0.81,0.81z"/>
   <path class="fil0" d="M147.15 39.43c0,1.46 0.04,2.78 -0.12,4.16 -0.09,0.77 0.14,2.72 0.12,3.98 -0.05,2.66 -0.78,2.02 6.51,2.02 0.44,-1.91 -0.24,-1.42 -5.29,-1.42l0 -3.46 4.68 0c0,-1.58 0.4,-1.21 -4.68,-1.21l0 -3.05c1.3,0 2.59,0 3.88,0.01 2.51,0.03 1.73,-1.23 0.39,-1.23 -1.26,0 -4.57,-0.15 -5.49,0.2z"/>
   <path class="fil0" d="M104.08 41.67c0.55,0.64 1.52,2.95 1.61,4.06l-3.05 0 1.44 -4.06zm-4.08 7.92c2.41,0 1.03,-2.44 2.44,-2.44l3.45 0c1.11,0 0.83,3.23 2.33,2.35 0.68,-0.39 -0.65,-2.84 -0.88,-3.39 -0.49,-1.19 -0.86,-2.28 -1.36,-3.51 -0.45,-1.13 -0.73,-2.63 -1.51,-3.37 -1.25,0.29 -1.21,1.01 -1.6,2.06 -0.29,0.79 -0.42,0.71 -0.65,1.17 -0.23,0.48 -0.22,0.97 -0.37,1.47 -0.44,1.51 -1.85,4.05 -1.85,5.66z"/>
   <path class="fil0" d="M167.68 39.43c0,2.43 -0.17,4.25 0.02,6.28 0.32,3.34 1.39,3.88 4.25,3.88 4.17,0 3.25,-5.65 3.25,-9.55 0,-0.92 -0.87,-0.74 -1.42,-0.61 0,3.76 0.78,8.94 -2.03,8.94l-0.61 0c-4.35,0 0.04,-10.3 -3.46,-8.94z"/>
   <path class="fil0" d="M185.37 40.04c0,3.11 -0.7,9.55 3.04,9.55 1.83,0 4.39,0.19 4.48,-3.65 0.06,-2.13 0,-4.37 0,-6.51 -1.82,-0.42 -1.5,0.55 -1.42,4.25 0.07,3.89 0.06,4.69 -2.85,4.69 -2.6,0 -1.83,-6.55 -1.83,-8.94 -0.55,-0.13 -1.42,-0.31 -1.42,0.61z"/>
   <path class="fil0" d="M72.97 44.51c0,2.47 1.19,5.08 3.66,5.08l1.22 0c1.47,0 2.84,-1.41 2.84,-3.66 -2.68,0 -0.12,2.44 -3.86,2.44 -3.29,0 -3.29,-7.92 0,-7.92 2.62,0 2.28,2.44 3.25,2.44 1.6,0 0.01,-3.87 -2.84,-3.87 -2.92,0 -4.27,2.54 -4.27,5.49z"/>
   <path class="fil0" d="M160.16 49.59c1.03,0 0.61,-1.86 0.61,-4.67l4.27 0c0.78,0 0.07,0.06 0.61,-0.21 -0.12,-1.47 -0.98,-1.01 -4.88,-1.01l0 -3.25 4.68 0c0.77,0 0.07,0.06 0.61,-0.21 -0.13,-1.56 -1.37,-1.01 -5.9,-1.01 -1.03,0 -0.83,1.2 -0.81,2.23l0 5.7c-0.02,1.09 -0.26,2.43 0.81,2.43z"/>
   <path class="fil0" d="M107.72 40.24c2.5,1.2 3.27,-1.81 3.26,3.26 -0.01,1.08 0,2.16 0,3.25 -0.01,0.93 -0.37,2.84 0.61,2.84 0.62,0 0.81,-0.59 0.81,-1.22l0 -7.92 2.23 0c0.78,0 0.08,0.06 0.61,-0.21 -0.02,-0.88 -0.13,-1.01 -1.01,-1.01l-5.69 0c-0.67,0 -0.77,0.41 -0.82,1.01z"/>
   <path class="fil0" d="M176.83 39.43l0 1.02 2.84 0 -0.04 3.07c0.07,0.73 0.04,1.48 0.04,2.21 0,1.02 -0.42,3.86 0.61,3.86 0.48,0 0.82,-0.33 0.82,-0.81l0 -8.33 2.84 0 0 -1.02c-1.27,-0.3 -5.99,-0.43 -7.11,0z"/>
   <path class="fil0" d="M127.64 40.24c0.78,0.38 1.26,0.15 2.27,0.19 1.66,0.08 0.58,0.31 0.58,1.03 0,0.71 0.4,0.31 0.4,1.02l0 7.11 1.02 0 0 -8.53c0,-1.16 2.15,-0.29 3.25,-0.82 -0.05,-0.6 -0.14,-1.01 -0.81,-1.01l-5.69 0c-0.89,0 -1,0.13 -1.02,1.01z"/>
  </g>
 </g>
</svg>
