<?xml version="1.0" encoding="UTF-8"?>
<svg id="Layer_1" data-name="Layer 1" xmlns="http://www.w3.org/2000/svg" width="312" height="87" viewBox="0 0 312 87">
  <defs>
    <style>
      .cls-1 {
        fill-rule: evenodd;
      }
    </style>
  </defs>
  <g id="Layer_1-2" data-name="Layer_1">
    <path class="cls-1" d="m92.51,84c-9.01,0-17.62-5.04-23.2-11.94-6.36-7.83-9.45-17.95-9.45-27.97s2.84-19.3,8.73-26.96c5.8-7.53,14.53-12.91,24.23-12.91,8.92,0,17.48,5.1,22.98,11.91,6.33,7.84,9.48,17.98,9.48,28s-2.87,19.27-8.73,26.93c-5.74,7.47-14.42,12.94-24.04,12.94h0ZM2,5.87h27.13v.78h-6.66l20.24,55.43L59.81,6.65h-6.72v-.78h14.64s0,.78,0,.78h-6.47l-24.09,76.63L9.14,6.65H2v-.78s0,0,0,0Zm182.67-1.34v26.63h-.61c-1.14-5.24-2.76-10.35-5.58-14.97-3.35-5.41-8.67-11.49-15.62-11.49-15.95,0-17.4,28.58-17.4,39.48,0,9.76.78,19.83,4.32,28.97,2.48,6.41,6.08,9.56,12.74,9.56,5.3,0,10.93-2.68,13.75-7.28.73-1.2.78-2.54.78-3.9v-20.58h-6.97v-.81h25.51v.81h-5.97v30.78h-.53c-1.51-2.51-3.88-4.15-6.92-4.15-2.2,0-4.35.78-6.27,1.84l-1.73.95c-3.9,1.73-7.64,2.98-11.96,2.98-19.8,0-30.34-21.11-30.34-38.62,0-12.8,4.88-26.49,15.25-34.49,4.66-3.6,10.29-6.25,16.28-6.25,2.34,0,4.66.72,6.83,1.59l1.59.61c1.81.67,3.79,1.31,5.74,1.31,2.43,0,4.6-1.59,6.47-2.98h.61Zm7.61,1.34h27.21v.78h-7.22v59.09c0,9.26,9.54,14.89,17.87,14.89,8.98,0,16.53-6.24,16.53-15.42V6.65h-8.53v-.78h70.24v27.41h-.53c-.81-7.25-2.2-14.7-7.2-20.36-5.04-5.72-11.91-6.27-18.96-6.27h-7.61v35.25c1.56.17,3.15.28,4.74.28,9.56,0,12.04-6.58,12.46-14.72h.7v30.92h-.7c-1.2-7.39-4.46-15.31-13.13-15.31-1.37,0-2.7.08-4.07.2v37.7h11.4c5.91,0,11.79-2.57,15.98-6.69,3.57-3.51,6.05-8.09,6.92-13.02.47-2.76.7-5.58.84-8.37h.61v28.86h-54.9v-.78h6.39V6.65h-13.5v58.78c0,12.15-11.54,17.54-22.36,17.54-12.24,0-25.74-5.94-25.74-19.94V6.65h-7.44v-.78s0,0,0,0Zm-80.78,38.23c0-11.07-3.96-38.73-18.93-38.73s-18.93,27.63-18.93,38.73,3.93,38.76,18.93,38.76c14.97,0,18.93-27.69,18.93-38.76Z"/>
  </g>
</svg>