<?xml version="1.0" encoding="UTF-8"?>
<svg version="1.1" xmlns="http://www.w3.org/2000/svg" width="250" height="250">
<path d="M0 0 C5.94 0 11.88 0 18 0 C18 1.32 18 2.64 18 4 C18.66 3.01 19.32 2.02 20 1 C20.99 1 21.98 1 23 1 C23 2.32 23 3.64 23 5 C23.66 5 24.32 5 25 5 C24.505 2.525 24.505 2.525 24 0 C27.96 0 31.92 0 36 0 C35.67 2.64 35.34 5.28 35 8 C35.66 8 36.32 8 37 8 C37 5.36 37 2.72 37 0 C38.65 0 40.3 0 42 0 C41.67 3.3 41.34 6.6 41 10 C41.66 10 42.32 10 43 10 C43 9.01 43 8.02 43 7 C44.32 7.33 45.64 7.66 47 8 C47 8.66 47 9.32 47 10 C47.99 10 48.98 10 50 10 C50 9.34 50 8.68 50 8 C48.35 7.34 46.7 6.68 45 6 C45.33 4.35 45.66 2.7 46 1 C50.75 -0.125 50.75 -0.125 53 1 C53.02688151 2.64574566 53.04634123 4.29161413 53.0625 5.9375 C53.07410156 6.85402344 53.08570313 7.77054688 53.09765625 8.71484375 C53 11 53 11 52 12 C50.21928754 12.08726223 48.4351686 12.10699041 46.65234375 12.09765625 C45.57275391 12.09443359 44.49316406 12.09121094 43.38085938 12.08789062 C42.24455078 12.07951172 41.10824219 12.07113281 39.9375 12.0625 C38.79732422 12.05798828 37.65714844 12.05347656 36.48242188 12.04882812 C33.65489649 12.03699747 30.8274736 12.0205141 28 12 C28 9.03 28 6.06 28 3 C27.01 5.97 26.02 8.94 25 12 C24.01 11.67 23.02 11.34 22 11 C21.505 9.515 21.505 9.515 21 8 C20.34 9.32 19.68 10.64 19 12 C18.34 12 17.68 12 17 12 C16.01 9.36 15.02 6.72 14 4 C13.34 4 12.68 4 12 4 C12 5.32 12 6.64 12 8 C12.66 8 13.32 8 14 8 C14 9.32 14 10.64 14 12 C11.03 12 8.06 12 5 12 C5.33 11.01 5.66 10.02 6 9 C5.72428861 6.99124558 5.39764263 4.98821313 5 3 C4.95101562 3.68707031 4.90203125 4.37414062 4.8515625 5.08203125 C4.77679688 5.98308594 4.70203125 6.88414062 4.625 7.8125 C4.55539063 8.70582031 4.48578125 9.59914062 4.4140625 10.51953125 C4 13 4 13 2 16 C2.31229724 17.33841672 2.64830932 18.67139075 3 20 C2.5625 22.75 2.5625 22.75 2 25 C0.68 25 -0.64 25 -2 25 C-2.33 24.34 -2.66 23.68 -3 23 C-3.66 23 -4.32 23 -5 23 C-5.33 23.66 -5.66 24.32 -6 25 C-7.47906892 25.02689216 -8.95827483 25.04634621 -10.4375 25.0625 C-11.67306641 25.07990234 -11.67306641 25.07990234 -12.93359375 25.09765625 C-15 25 -15 25 -16 24 C-16.33 25.32 -16.66 26.64 -17 28 C-18.65 27.67 -20.3 27.34 -22 27 C-22 26.01 -22 25.02 -22 24 C-22.99 24.33 -23.98 24.66 -25 25 C-25 25.66 -25 26.32 -25 27 C-27.66666667 26.33333333 -30.33333333 25.66666667 -33 25 C-33.19412181 23.52168779 -33.38012131 22.04230684 -33.5625 20.5625 C-33.66691406 19.73878906 -33.77132812 18.91507813 -33.87890625 18.06640625 C-33.91886719 17.38449219 -33.95882812 16.70257813 -34 16 C-33 15 -33 15 -30.5 14.875 C-28 15 -28 15 -27 16 C-25.22130274 16.15764405 -23.43681524 16.25100677 -21.65234375 16.31640625 C-20.03295898 16.37924805 -20.03295898 16.37924805 -18.38085938 16.44335938 C-17.24455078 16.48267578 -16.10824219 16.52199219 -14.9375 16.5625 C-13.79732422 16.60568359 -12.65714844 16.64886719 -11.48242188 16.69335938 C-8.65507805 16.79982839 -5.82764262 16.90184207 -3 17 C-2.67 15.35 -2.34 13.7 -2 12 C-1.01 12 -0.02 12 1 12 C0.505 6.06 0.505 6.06 0 0 Z M9 3 C9.33 3.66 9.66 4.32 10 5 C10.33 4.34 10.66 3.68 11 3 C10.34 3 9.68 3 9 3 Z M32 3 C32.33 3.66 32.66 4.32 33 5 C33.33 4.34 33.66 3.68 34 3 C33.34 3 32.68 3 32 3 Z M47 3 C48.98 3.99 48.98 3.99 51 5 C50.67 4.34 50.34 3.68 50 3 C49.01 3 48.02 3 47 3 Z M9 7 C9 7.99 9 8.98 9 10 C9.99 10 10.98 10 12 10 C12 9.34 12 8.68 12 8 C11.01 7.67 10.02 7.34 9 7 Z M32 7 C32 7.99 32 8.98 32 10 C32.99 10 33.98 10 35 10 C35 9.34 35 8.68 35 8 C34.01 7.67 33.02 7.34 32 7 Z M-11 21 C-10 23 -10 23 -10 23 Z " fill="#91BAD0" transform="translate(121,135)"/>
<path d="M0 0 C1.04027344 -0.01417969 2.08054688 -0.02835937 3.15234375 -0.04296875 C6.13278907 0.19306652 7.65058291 0.45279505 10.0625 2.1875 C14.30324663 7.7293848 13.84185316 13.5105417 13.0625 20.1875 C10.22402594 30.95004748 4.18508942 38.88340709 -5.25 44.6875 C-10.35211042 47.5709533 -15.00888765 49.17944681 -20.9375 48.1875 C-23.9375 46.1875 -23.9375 46.1875 -25.9375 43.1875 C-26.88391156 38.02525512 -26.24621768 35.11315464 -23.5625 30.625 C-21.03414177 27.08891904 -18.42297401 25.04090326 -14.75 22.75 C-10.71066578 20.1800643 -9.23833098 18.45624119 -8 13.8125 C-7.84660156 12.95914063 -7.69320312 12.10578125 -7.53515625 11.2265625 C-7.33792969 10.55367187 -7.14070313 9.88078125 -6.9375 9.1875 C-5.9475 8.8575 -4.9575 8.5275 -3.9375 8.1875 C-4.2675 11.1575 -4.5975 14.1275 -4.9375 17.1875 C-2.9575 17.1875 -0.9775 17.1875 1.0625 17.1875 C1.0625 18.1775 1.0625 19.1675 1.0625 20.1875 C-2.8975 20.6825 -2.8975 20.6825 -6.9375 21.1875 C-7.05867188 21.88875 -7.17984375 22.59 -7.3046875 23.3125 C-8.31054502 29.00720105 -9.46061628 34.59644019 -10.9375 40.1875 C-11.5975 40.1875 -12.2575 40.1875 -12.9375 40.1875 C-13.1771943 34.55468401 -12.32279821 29.64211169 -10.9375 24.1875 C-15.92392846 28.01136228 -19.31865909 31.42605001 -21.9375 37.1875 C-22.35880907 39.94151951 -22.35880907 39.94151951 -21.9375 42.1875 C-21.6075 42.5175 -21.2775 42.8475 -20.9375 43.1875 C-12.50729188 43.05368717 -6.34260049 40.22472272 -0.11328125 34.515625 C5.9348003 27.87339941 9.45515758 20.20131476 9.26953125 11.15625 C8.9458829 8.07853738 8.18014997 6.44177255 6.0625 4.1875 C0.03437818 2.21913369 -5.2812503 3.77801205 -10.9375 6.1875 C-14.57544811 8.2631841 -16.63661935 10.1845645 -17.875 14.3125 C-18.10051643 17.25973697 -18.10051643 17.25973697 -16.9375 20.1875 C-18.875 19.5 -18.875 19.5 -20.9375 18.1875 C-22.22308102 15.10210556 -22.01510433 13.4680695 -21.125 10.25 C-16.20609847 3.36353786 -8.2773566 0.05115795 0 0 Z " fill="#3E98CA" transform="translate(126.9375,85.8125)"/>
<path d="M0 0 C0.80211914 0.00249756 1.60423828 0.00499512 2.43066406 0.00756836 C3.94225098 0.02122437 3.94225098 0.02122437 5.484375 0.03515625 C8.701875 0.05578125 11.919375 0.07640625 15.234375 0.09765625 C15.564375 8.34765625 15.894375 16.59765625 16.234375 25.09765625 C13.924375 24.76765625 11.614375 24.43765625 9.234375 24.09765625 C7.69532189 24.0262545 6.15394871 23.98875425 4.61328125 24 C3.89986572 24.00249756 3.1864502 24.00499512 2.45141602 24.00756836 C1.57541748 24.01667236 0.69941895 24.02577637 -0.203125 24.03515625 C-3.02875 24.05578125 -5.854375 24.07640625 -8.765625 24.09765625 C-8.765625 16.50765625 -8.765625 8.91765625 -8.765625 1.09765625 C-5.49305732 0.27951433 -3.28568601 -0.02106209 0 0 Z " fill="#0C66AD" transform="translate(44.765625,37.90234375)"/>
<path d="M0 0 C1.29322032 2.89514194 2.58429741 5.79123484 3.875 8.6875 C4.23980469 9.50412109 4.60460937 10.32074219 4.98046875 11.16210938 C6.72615221 15.08196222 8.45096382 18.9969644 10 23 C8.53240234 23.38091797 8.53240234 23.38091797 7.03515625 23.76953125 C5.71089668 24.11703199 4.38668026 24.46469716 3.0625 24.8125 C2.42248047 24.97814453 1.78246094 25.14378906 1.12304688 25.31445312 C-3.99381572 26.6636756 -8.99640727 28.27994704 -14 30 C-15.17780436 27.08770867 -16.34025075 24.16952322 -17.5 21.25 C-17.83386719 20.425 -18.16773438 19.6 -18.51171875 18.75 C-18.82753906 17.95078125 -19.14335937 17.1515625 -19.46875 16.328125 C-19.76201172 15.5949707 -20.05527344 14.86181641 -20.35742188 14.10644531 C-21 12 -21 12 -21 8 C-18.06657102 6.65757579 -15.12763748 5.32765933 -12.1875 4 C-11.35412109 3.6184375 -10.52074219 3.236875 -9.66210938 2.84375 C-8.85966797 2.4828125 -8.05722656 2.121875 -7.23046875 1.75 C-6.49207764 1.41484375 -5.75368652 1.0796875 -4.99291992 0.734375 C-3 0 -3 0 0 0 Z " fill="#1368AC" transform="translate(32,69)"/>
<path d="M0 0 C3.41239451 0.57413862 4.93369598 1.60640254 7.234375 4.16015625 C7.80800781 4.78857422 8.38164062 5.41699219 8.97265625 6.06445312 C9.55917969 6.72380859 10.14570313 7.38316406 10.75 8.0625 C11.35199219 8.72572266 11.95398438 9.38894531 12.57421875 10.07226562 C14.05714651 11.70819387 15.53190257 13.35076955 17 15 C15.31274491 18.57779394 13.26258735 21.09153152 10.5625 24 C7.87341115 26.90616522 5.31438774 29.78515916 3 33 C-0.37446174 31.87517942 -1.01954686 31.01600451 -3.1875 28.3125 C-7.09638356 23.68837392 -11.55117668 19.72441166 -17 17 C-17 16.34 -17 15.68 -17 15 C-15.27734375 13.73828125 -15.27734375 13.73828125 -12.9375 12.3125 C-8.00782167 9.1428648 -2.68231992 5.36463984 0 0 Z " fill="#0F65AB" transform="translate(228,108)"/>
<path d="M0 0 C7.92 0 15.84 0 24 0 C24 7.92 24 15.84 24 24 C15.4375 23.9375 15.4375 23.9375 12.78295898 23.90991211 C8.07745803 23.89343887 3.63962487 24.20908408 -1 25 C-0.83628906 24.03964844 -0.67257813 23.07929687 -0.50390625 22.08984375 C0.14096149 17.57576957 0.10979647 13.11342532 0.0625 8.5625 C0.041875 5.736875 0.02125 2.91125 0 0 Z " fill="#156AAF" transform="translate(186,38)"/>
<path d="M0 0 C3.33898961 1.41433184 5.11543581 3.06380512 7.375 5.875 C11.08171192 10.2578289 14.46838753 13.15612918 20 15 C20 15.99 20 16.98 20 18 C19.01 18.515625 18.02 19.03125 17 19.5625 C10.87370053 23.05436643 5.92912697 28.01622639 1 33 C-1.54097336 30.60377972 -4.05386993 28.18002483 -6.5625 25.75 C-7.28630859 25.06808594 -8.01011719 24.38617188 -8.75585938 23.68359375 C-9.43583984 23.01972656 -10.11582031 22.35585937 -10.81640625 21.671875 C-11.45006104 21.0644043 -12.08371582 20.45693359 -12.73657227 19.83105469 C-14 18 -14 18 -13.78759766 15.87524414 C-12.8227216 13.57790595 -11.63897211 12.3768859 -9.8125 10.6875 C-6.27543633 7.31121195 -3.13736989 3.74953962 0 0 Z " fill="#1367AC" transform="translate(16,108)"/>
<path d="M0 0 C0.66 0 1.32 0 2 0 C2.89968066 1.34952099 3.79319963 2.70344583 4.66015625 4.07421875 C8.05742217 8.95716948 12.04509338 13.69672892 17 17 C15.00828569 21.40089289 12.12069662 24.06704598 8.625 27.3125 C7.75875 28.15651367 7.75875 28.15651367 6.875 29.01757812 C5.1640625 30.61328125 5.1640625 30.61328125 2 33 C-2.24454338 32.55467252 -4.12981457 30.14394504 -7 27.125 C-9.86245536 24.13163967 -12.60067287 21.37638147 -16 19 C-14.87972826 15.63918477 -14.06597578 15.02570265 -11.375 12.875 C-7.41772718 9.55117553 -4.45149337 5.91033611 -1.4453125 1.72265625 C-0.96835938 1.15417969 -0.49140625 0.58570313 0 0 Z " fill="#0E65AB" transform="translate(123,212)"/>
<path d="M0 0 C3.63 0.66 7.26 1.32 11 2 C13.55998696 2.12086813 16.12516359 2.17573933 18.6875 2.125 C20.770625 2.08375 22.85375 2.0425 25 2 C24.67 9.59 24.34 17.18 24 25 C16.22920623 25.66134415 8.83595001 26 1 26 C0.67 17.42 0.34 8.84 0 0 Z " fill="#1569AE" transform="translate(186,185)"/>
<path d="M0 0 C0.25394531 1.01320312 0.50789063 2.02640625 0.76953125 3.0703125 C1.11683126 4.42196658 1.46450759 5.77352401 1.8125 7.125 C1.97814453 7.79015625 2.14378906 8.4553125 2.31445312 9.140625 C3.4250769 13.41547877 4.99868358 17.04324261 7 21 C7 21.99 7 22.98 7 24 C3.71010914 25.17171756 0.41780898 26.33651088 -2.875 27.5 C-3.81214844 27.83386719 -4.74929687 28.16773438 -5.71484375 28.51171875 C-6.61074219 28.82753906 -7.50664063 29.14335937 -8.4296875 29.46875 C-9.67081299 29.90864258 -9.67081299 29.90864258 -10.93701172 30.35742188 C-13 31 -13 31 -15 31 C-16.34242421 28.06657102 -17.67234067 25.12763748 -19 22.1875 C-19.3815625 21.35412109 -19.763125 20.52074219 -20.15625 19.66210938 C-20.69765625 18.45844727 -20.69765625 18.45844727 -21.25 17.23046875 C-21.58515625 16.49207764 -21.9203125 15.75368652 -22.265625 14.99291992 C-23 13 -23 13 -23 10 C-22.05898437 9.61328125 -21.11796875 9.2265625 -20.1484375 8.828125 C-18.89048667 8.30241421 -17.63268191 7.7763538 -16.375 7.25 C-15.75753906 6.99734375 -15.14007813 6.7446875 -14.50390625 6.484375 C-11.30029312 5.13548526 -8.63703746 3.75571495 -5.7265625 1.796875 C-3 0 -3 0 0 0 Z " fill="#1569AD" transform="translate(91,205)"/>
<path d="M0 0 C1.46759766 0.61488281 1.46759766 0.61488281 2.96484375 1.2421875 C9.91988034 4.11505502 16.55102059 6.69316151 24 8 C23.27489568 11.98310727 21.40379459 15.37866381 19.5625 18.9375 C17.52672245 22.89572316 15.57456084 26.8301831 14 31 C12.7315625 30.51080078 12.7315625 30.51080078 11.4375 30.01171875 C5.30132037 27.64789501 -0.83798139 25.29565399 -7 23 C-6.20352971 18.04978591 -4.54679293 13.41829847 -2.9375 8.6875 C-2.65583984 7.85154297 -2.37417969 7.01558594 -2.08398438 6.15429688 C-1.39204818 4.10194376 -0.69639291 2.05084517 0 0 Z " fill="#1669AD" transform="translate(18,149)"/>
<path d="M0 0 C5.38549747 1.66139788 10.12453717 4.04238829 15.09765625 6.66015625 C17.78719613 7.9017608 20.08426752 8.5666526 23 9 C22.45614215 14.47310915 20.44361458 18.58615159 17.9375 23.375 C16.638125 25.89125 15.33875 28.4075 14 31 C7.07 28.69 0.14 26.38 -7 24 C-7 20.49051468 -6.05300712 18.56944367 -4.625 15.375 C-2.42660644 10.25579461 -1.00294261 5.47059606 0 0 Z " fill="#1569AC" transform="translate(156,205)"/>
<path d="M0 0 C-0.33 0.66 -0.66 1.32 -1 2 C-1.15222973 3.66565749 -1.24917215 5.33656496 -1.31640625 7.0078125 C-1.35830078 7.99394531 -1.40019531 8.98007813 -1.44335938 9.99609375 C-1.48267578 11.02863281 -1.52199219 12.06117188 -1.5625 13.125 C-1.60568359 14.16527344 -1.64886719 15.20554688 -1.69335938 16.27734375 C-1.7996288 18.85142528 -1.90166583 21.42560508 -2 24 C-4.52090778 24.0272367 -7.04151457 24.04695207 -9.5625 24.0625 C-10.26697266 24.07087891 -10.97144531 24.07925781 -11.69726562 24.08789062 C-12.39658203 24.09111328 -13.09589844 24.09433594 -13.81640625 24.09765625 C-14.76688843 24.10551147 -14.76688843 24.10551147 -15.73657227 24.11352539 C-18.84270581 23.95773291 -21.92121937 23.4398258 -25 23 C-25 15.41 -25 7.82 -25 0 C-17.875 0.0625 -17.875 0.0625 -15.66748047 0.09008789 C-10.3923309 0.11226441 -5.03515622 -1.74293869 0 0 Z " fill="#1469AE" transform="translate(62,187)"/>
<path d="M0 0 C1.34208754 3.10045423 2.67213754 6.20592989 4 9.3125 C4.3815625 10.19357422 4.763125 11.07464844 5.15625 11.98242188 C5.5171875 12.82998047 5.878125 13.67753906 6.25 14.55078125 C6.58515625 15.33106689 6.9203125 16.11135254 7.265625 16.9152832 C8 19 8 19 8 22 C4.52208234 23.50290811 1.04246452 25.00183816 -2.4375 26.5 C-3.43072266 26.92925781 -4.42394531 27.35851562 -5.44726562 27.80078125 C-6.86362305 28.40986328 -6.86362305 28.40986328 -8.30859375 29.03125 C-9.18314209 29.40830078 -10.05769043 29.78535156 -10.95874023 30.17382812 C-13 31 -13 31 -14 31 C-14.24234375 30.13117188 -14.4846875 29.26234375 -14.734375 28.3671875 C-16.52032584 22.22626424 -18.13730796 17.10427162 -22 12 C-22 11.34 -22 10.68 -22 10 C-22.66 10 -23.32 10 -24 10 C-23.67 9.01 -23.34 8.02 -23 7 C-21.98292969 6.87044922 -21.98292969 6.87044922 -20.9453125 6.73828125 C-14.61454048 5.78252758 -9.59951482 4.12549141 -3.99609375 1.0234375 C-2 0 -2 0 0 0 Z " fill="#176AAD" transform="translate(228,149)"/>
<path d="M0 0 C1.18847656 1.73413086 1.18847656 1.73413086 2.140625 3.96484375 C2.48867187 4.76470703 2.83671875 5.56457031 3.1953125 6.38867188 C3.54335937 7.22978516 3.89140625 8.07089844 4.25 8.9375 C4.61351562 9.77474609 4.97703125 10.61199219 5.3515625 11.47460938 C8 17.66259398 8 17.66259398 8 20 C7.32195312 20.21914063 6.64390625 20.43828125 5.9453125 20.6640625 C-0.21340267 22.7624613 -5.53819673 25.29509037 -11.00390625 28.828125 C-13 30 -13 30 -15 30 C-15.07476562 29.33355469 -15.14953125 28.66710937 -15.2265625 27.98046875 C-16.19763708 21.17342634 -18.22490566 16.10583912 -21.7578125 10.21484375 C-23 8 -23 8 -23 6 C-19.92335374 4.79463757 -16.83781732 3.61391806 -13.75 2.4375 C-12.87730469 2.09525391 -12.00460938 1.75300781 -11.10546875 1.40039062 C-9.83896484 0.92182617 -9.83896484 0.92182617 -8.546875 0.43359375 C-7.38430176 -0.01415405 -7.38430176 -0.01415405 -6.19824219 -0.47094727 C-3.64635156 -1.08511286 -2.39206378 -1.08299614 0 0 Z " fill="#176AAD" transform="translate(171,14)"/>
<path d="M0 0 C4.81919471 0.67487737 8.91883866 2.57965909 13.3125 4.5625 C14.42334961 5.0565332 14.42334961 5.0565332 15.55664062 5.56054688 C17.37311562 6.36917123 19.18683931 7.18397116 21 8 C20.44147333 13.4367976 19.06042383 17.9183367 16.9375 22.9375 C16.65583984 23.62134766 16.37417969 24.30519531 16.08398438 25.00976562 C15.3964595 26.67613946 14.69923825 28.33850727 14 30 C10.28971468 28.8008788 6.7042834 27.48069924 3.125 25.9375 C-1.31868471 24.12636184 -5.22645705 23.35359577 -10 23 C-8.17977109 18.17959479 -5.84213878 13.65237211 -3.47851562 9.08398438 C-1.95796918 6.09777321 -0.60298643 3.31229531 0 0 Z " fill="#176AAD" transform="translate(214,69)"/>
<path d="M0 0 C4.29597139 1.64990206 7.00517646 4.81742807 10.125 8.0625 C13.69553366 12.0044894 13.69553366 12.0044894 18 15 C18 15.66 18 16.32 18 17 C16.49609375 18.19140625 16.49609375 18.19140625 14.4375 19.5625 C9.22949719 23.31559811 4.88575847 28.22848305 2 34 C1.34 34 0.68 34 0 34 C-1.04296875 32.49609375 -1.04296875 32.49609375 -2.1875 30.4375 C-5.49670643 24.90906315 -9.64181328 20.57212448 -15 17 C-15 14 -15 14 -13.49609375 12.421875 C-12.81675781 11.87015625 -12.13742188 11.3184375 -11.4375 10.75 C-7.39405346 7.36964986 -3.67272787 3.77602335 0 0 Z " fill="#1267AC" transform="translate(122,3)"/>
<path d="M0 0 C7.48252838 1.37179687 14.05604954 3.92163279 21 7 C20.20352971 11.95021409 18.54679293 16.58170153 16.9375 21.3125 C16.65583984 22.14845703 16.37417969 22.98441406 16.08398438 23.84570312 C15.39204818 25.89805624 14.69639291 27.94915483 14 30 C9.13732461 28.15307559 4.62993712 25.7647023 0.03515625 23.33984375 C-3.02373866 21.98952077 -5.69325609 21.39917475 -9 21 C-6.76686274 13.55620912 -3.59727921 6.88023305 0 0 Z " fill="#1568AB" transform="translate(76,13)"/>
<path d="M0 0 C3.54705288 1.60541967 6.50479251 3.7454726 9.625 6.0625 C13.17515164 8.75476379 13.17515164 8.75476379 17 11 C15.3718356 14.75730247 12.98598083 17.616823 10.375 20.75 C9.55773437 21.73484375 8.74046875 22.7196875 7.8984375 23.734375 C7.27195313 24.48203125 6.64546875 25.2296875 6 26 C1.82291191 24.73829891 -1.67196937 23.17688391 -5.375 20.875 C-6.24898437 20.33617187 -7.12296875 19.79734375 -8.0234375 19.2421875 C-8.67570312 18.83226562 -9.32796875 18.42234375 -10 18 C-8.06706695 13.98544673 -5.75514924 10.23844475 -3.4375 6.4375 C-2.19233783 4.32613805 -1.06278973 2.20733252 0 0 Z " fill="#1B81C0" transform="translate(136,193)"/>
<path d="M0 0 C6.67711828 0.93169092 13.33773545 1.96810038 20 3 C19.18980503 7.11390262 18.31864773 11.2132475 17.4375 15.3125 C17.16808594 16.56675781 16.89867188 17.82101563 16.62109375 19.11328125 C16.41613281 20.06589844 16.21117188 21.01851562 16 22 C9.56025419 21.37679879 3.32427599 20.35991738 -3 19 C-2.69127671 16.39533457 -2.37818277 13.79132309 -2.0625 11.1875 C-1.97548828 10.44951172 -1.88847656 9.71152344 -1.79882812 8.95117188 C-1.41783454 5.83266879 -0.99630626 2.98891878 0 0 Z " fill="#1880C1" transform="translate(45,160)"/>
<path d="M0 0 C1.17666004 2.24525946 2.3414074 4.49544142 3.5 6.75 C3.83386719 7.38421875 4.16773437 8.0184375 4.51171875 8.671875 C6.27175533 12.12010993 7 14.04840069 7 18 C4.48046875 20.140625 4.48046875 20.140625 1.1875 22.25 C0.10855469 22.95640625 -0.97039062 23.6628125 -2.08203125 24.390625 C-5 26 -5 26 -8 26 C-9.87078857 23.74326922 -11.53585412 21.53296304 -13.1875 19.125 C-13.65091797 18.47402344 -14.11433594 17.82304687 -14.59179688 17.15234375 C-18 12.28348214 -18 12.28348214 -18 10 C-16.845 9.46375 -15.69 8.9275 -14.5 8.375 C-10.50334458 6.39800675 -7.13039847 3.9615159 -3.6640625 1.171875 C-2 0 -2 0 0 0 Z " fill="#187FBF" transform="translate(111,193)"/>
<path d="M0 0 C8.91 1.98 8.91 1.98 18 4 C17.50584892 10.58868105 16.79840318 16.64564211 15 23 C14.39414063 22.86722656 13.78828125 22.73445313 13.1640625 22.59765625 C7.12271632 21.32432636 1.15262108 20.49744596 -5 20 C-4.80664062 19.39414063 -4.61328125 18.78828125 -4.4140625 18.1640625 C-2.54534593 12.15086562 -1.1497529 6.19097716 0 0 Z " fill="#1D82C1" transform="translate(186,67)"/>
<path d="M0 0 C0.53367188 0.19335938 1.06734375 0.38671875 1.6171875 0.5859375 C7.34292699 2.58697448 13.03133562 3.94084244 19 5 C18.41509121 11.14154225 17.45933748 17.00679849 16 23 C9.4491015 22.54240047 3.3246158 21.7899856 -3 20 C-2.86722656 19.2265625 -2.73445312 18.453125 -2.59765625 17.65625 C-1.60135293 11.78024213 -0.68315535 5.92067973 0 0 Z " fill="#1C81C1" transform="translate(162,182)"/>
<path d="M0 0 C1.47686988 2.07888712 2.81395738 4.13283374 4.125 6.3125 C4.68380859 7.20485352 4.68380859 7.20485352 5.25390625 8.11523438 C8 12.61661516 8 12.61661516 8 16 C5.70056957 17.86242133 3.44213863 19.53504905 1 21.1875 C0.33226562 21.65091797 -0.33546875 22.11433594 -1.0234375 22.59179688 C-2.67609867 23.73685497 -4.33727669 24.86960265 -6 26 C-9.55724638 22.58829153 -11.82124226 18.58970623 -14.37890625 14.3984375 C-15.77714694 11.90700778 -15.77714694 11.90700778 -18 11 C-18 10.34 -18 9.68 -18 9 C-17.09636719 8.51789063 -16.19273437 8.03578125 -15.26171875 7.5390625 C-14.07026983 6.90112135 -12.87886594 6.2630961 -11.6875 5.625 C-11.09259766 5.30789062 -10.49769531 4.99078125 -9.88476562 4.6640625 C-1.18823242 0 -1.18823242 0 0 0 Z " fill="#1A80C0" transform="translate(210,129)"/>
<path d="M0 0 C1.73990668 2.0742765 3.24507485 4.07884926 4.75 6.3125 C5.17410156 6.90740234 5.59820312 7.50230469 6.03515625 8.11523438 C7.234375 9.86328125 7.234375 9.86328125 9 13 C7.75581955 16.73254135 6.18459652 17.11360554 2.84375 18.88671875 C0.1552536 20.51006933 -1.8205386 22.759998 -4 25 C-4.99 25.33 -5.98 25.66 -7 26 C-7.95921722 24.25048432 -8.91733817 22.50036756 -9.875 20.75 C-10.40867188 19.77546875 -10.94234375 18.8009375 -11.4921875 17.796875 C-12.70419466 15.54869592 -13.87547567 13.2927195 -15 11 C-15.66 11 -16.32 11 -17 11 C-15.66043831 6.98131493 -13.09035261 5.87752154 -9.625 3.8125 C-9.03460938 3.44447266 -8.44421875 3.07644531 -7.8359375 2.69726562 C-5.01101227 0.98258691 -3.36248948 0 0 0 Z " fill="#1B80C0" transform="translate(144,31)"/>
<path d="M0 0 C1.66794322 6.00459559 2.49067378 11.79627548 3 18 C0.02294042 18.69685312 -2.95691402 19.38090185 -5.9375 20.0625 C-6.78763672 20.26166016 -7.63777344 20.46082031 -8.51367188 20.66601562 C-9.32255859 20.84970703 -10.13144531 21.03339844 -10.96484375 21.22265625 C-11.7137085 21.39547119 -12.46257324 21.56828613 -13.23413086 21.74633789 C-13.81686768 21.83004639 -14.39960449 21.91375488 -15 22 C-17.24079324 19.75920676 -16.96266769 15.01386411 -17.40234375 11.98046875 C-17.94734754 9.26257401 -18.74160618 7.42727846 -20 5 C-20 4.01 -20 3.02 -20 2 C-17.04181155 1.66533626 -14.08346412 1.33220993 -11.125 1 C-10.28324219 0.90460938 -9.44148437 0.80921875 -8.57421875 0.7109375 C-7.36572266 0.57558594 -7.36572266 0.57558594 -6.1328125 0.4375 C-5.38918457 0.35371094 -4.64555664 0.26992187 -3.87939453 0.18359375 C-2 0 -2 0 0 0 Z " fill="#2184C2" transform="translate(201,161)"/>
<path d="M0 0 C2.47985314 0.23082165 4.91212896 0.5225073 7.375 0.875 C8.06078125 0.96652344 8.7465625 1.05804688 9.453125 1.15234375 C12.42618462 1.5630193 15.14596413 2.04865471 18 3 C17.86722656 3.60585938 17.73445313 4.21171875 17.59765625 4.8359375 C16.32432636 10.87728368 15.49744596 16.84737892 15 23 C14.21496094 22.79503906 13.42992188 22.59007813 12.62109375 22.37890625 C7.08982255 20.96045756 1.67629598 19.64503363 -4 19 C-2.42105263 2.42105263 -2.42105263 2.42105263 0 0 Z " fill="#1C82C1" transform="translate(70,44)"/>
<path d="M0 0 C0.66 6.6 1.32 13.2 2 20 C-4.18617348 21.37470522 -9.67155983 22.23438667 -16 22 C-16.50980881 20.29456816 -17.00738268 18.58547682 -17.5 16.875 C-17.7784375 15.92367187 -18.056875 14.97234375 -18.34375 13.9921875 C-19.02146084 10.90214879 -19.11227205 8.15297352 -19 5 C-16.2092793 4.16338138 -13.41751988 3.33057263 -10.625 2.5 C-9.8309375 2.26152344 -9.036875 2.02304688 -8.21875 1.77734375 C-7.45820312 1.55175781 -6.69765625 1.32617188 -5.9140625 1.09375 C-5.2123291 0.88427734 -4.5105957 0.67480469 -3.78759766 0.45898438 C-2 0 -2 0 0 0 Z " fill="#1C82C1" transform="translate(85,182)"/>
<path d="M0 0 C3.64628908 1.35265563 6.82567172 3.0092483 10.125 5.0625 C12.80251948 6.72679402 14.99972402 7.99990801 18 9 C16.32076975 12.80133442 13.88537166 15.97082702 11.375 19.25 C10.95476563 19.80429688 10.53453125 20.35859375 10.1015625 20.9296875 C9.07061281 22.28866663 8.03570089 23.64463835 7 25 C3.10993227 23.61219205 0.03441292 21.7847773 -3.3125 19.375 C-4.19550781 18.74335938 -5.07851563 18.11171875 -5.98828125 17.4609375 C-6.65214844 16.97882813 -7.31601562 16.49671875 -8 16 C-7.32599282 12.08885974 -5.45743967 9.12880818 -3.4375 5.75 C-2.79683594 4.67234375 -2.15617187 3.5946875 -1.49609375 2.484375 C-1.00238281 1.66453125 -0.50867187 0.8446875 0 0 Z " fill="#1B80C0" transform="translate(37,128)"/>
<path d="M0 0 C0.50690584 2.06081361 1.00524619 4.12373526 1.5 6.1875 C1.7784375 7.33605469 2.056875 8.48460937 2.34375 9.66796875 C2.91495385 12.56818829 3.13283779 15.06096385 3 18 C1.69675781 18.29003906 1.69675781 18.29003906 0.3671875 18.5859375 C-1.36144531 18.97652344 -1.36144531 18.97652344 -3.125 19.375 C-4.26195312 19.63023438 -5.39890625 19.88546875 -6.5703125 20.1484375 C-9.78398288 20.94636477 -12.87566034 21.90790559 -16 23 C-16.13277344 21.97519531 -16.26554688 20.95039062 -16.40234375 19.89453125 C-16.58064088 18.5338426 -16.75903123 17.17316615 -16.9375 15.8125 C-17.02451172 15.13896484 -17.11152344 14.46542969 -17.20117188 13.77148438 C-17.67825477 10.14918834 -18.23012035 6.57196415 -19 3 C-16.20869212 2.49792321 -13.41699129 1.99824925 -10.625 1.5 C-9.8309375 1.35691406 -9.036875 1.21382812 -8.21875 1.06640625 C-2.2265625 0 -2.2265625 0 0 0 Z " fill="#1C82C1" transform="translate(178,45)"/>
<path d="M0 0 C0.41572266 1.68029297 0.41572266 1.68029297 0.83984375 3.39453125 C1.20566667 4.86720302 1.57155553 6.33985842 1.9375 7.8125 C2.11990234 8.55048828 2.30230469 9.28847656 2.49023438 10.04882812 C3.2422615 13.07060984 4.01485573 16.04456718 5 19 C-1.65425699 20.14231412 -8.29221378 21.22602467 -15 22 C-15.50354867 19.56318413 -16.00296756 17.12564561 -16.5 14.6875 C-16.64308594 13.99720703 -16.78617188 13.30691406 -16.93359375 12.59570312 C-17.52625044 9.67475227 -18 6.98891878 -18 4 C-15.37569876 3.3304744 -12.75063343 2.66426282 -10.125 2 C-9.00544922 1.71382813 -9.00544922 1.71382813 -7.86328125 1.421875 C-2.2265625 0 -2.2265625 0 0 0 Z " fill="#1E7CBD" transform="translate(61,67)"/>
<path d="M0 0 C3.58513106 1.62184501 6.58992323 3.79256239 9.75 6.125 C11.22726563 7.21167969 11.22726563 7.21167969 12.734375 8.3203125 C13.48203125 8.87460938 14.2296875 9.42890625 15 10 C14.35256333 13.82990706 12.54688763 16.5283898 10.4375 19.75 C9.47650391 21.22726563 9.47650391 21.22726563 8.49609375 22.734375 C8.00238281 23.48203125 7.50867188 24.2296875 7 25 C2.52884391 24.17200813 -0.77445692 21.77717366 -4.5625 19.375 C-6.76911028 18.13024548 -8.52804624 17.45776922 -11 17 C-10.41315734 13.4392925 -9.07231059 11.66986676 -6.625 9.0625 C-4.01309524 6.19315904 -1.83145474 3.44744421 0 0 Z " fill="#1C81C0" transform="translate(203,96)"/>
<path d="M0 0 C3.75262553 1.25087518 4.3499406 2.62162064 6.5 5.875 C8.87472493 9.47735882 8.87472493 9.47735882 11.71875 12.6953125 C13 14 13 14 13 16 C12.02417969 16.48210937 11.04835938 16.96421875 10.04296875 17.4609375 C8.75775951 18.09885158 7.47260618 18.73687831 6.1875 19.375 C5.54490234 19.69210938 4.90230469 20.00921875 4.24023438 20.3359375 C1.36805539 21.76458611 -1.3267821 23.21785473 -4 25 C-5.1254191 23.39612733 -6.25031972 21.79189084 -7.375 20.1875 C-8.00148438 19.29417969 -8.62796875 18.40085937 -9.2734375 17.48046875 C-13 12.12669683 -13 12.12669683 -13 9 C-10.9257235 7.26009332 -8.92115074 5.75492515 -6.6875 4.25 C-6.09259766 3.82589844 -5.49769531 3.40179688 -4.88476562 2.96484375 C-3.13671875 1.765625 -3.13671875 1.765625 0 0 Z " fill="#1C7ABC" transform="translate(42,96)"/>
<path d="M0 0 C3.79049707 1.42749981 7.27122456 3.16236542 10.8125 5.125 C11.78832031 5.66382813 12.76414062 6.20265625 13.76953125 6.7578125 C14.50558594 7.16773438 15.24164063 7.57765625 16 8 C16 8.99 16 9.98 16 11 C14.66666667 12.33333333 13.33333333 13.66666667 12 15 C10.47247525 17.78481359 10.47247525 17.78481359 9.25 20.75 C8.82203125 21.73484375 8.3940625 22.7196875 7.953125 23.734375 C7.63859375 24.48203125 7.3240625 25.2296875 7 26 C4 25 4 25 1.8125 22.75 C-1.49080709 19.52009973 -5.02885557 17.31567976 -9 15 C-8.39889717 10.99264783 -6.33397972 8.44530629 -3.9375 5.25 C-2.83728516 3.77273437 -2.83728516 3.77273437 -1.71484375 2.265625 C-1.14894531 1.51796875 -0.58304688 0.7703125 0 0 Z " fill="#1E82C0" transform="translate(104,31)"/>
<path d="M0 0 C3.14737182 0.69941596 6.02588876 1.76078698 9 3 C9.99 2.01 10.98 1.02 12 0 C12.825 0.309375 13.65 0.61875 14.5 0.9375 C21.98904712 3.23285608 21.98904712 3.23285608 29.375 1.5 C30.24125 1.005 31.1075 0.51 32 0 C32.66 0.33 33.32 0.66 34 1 C34 1.66 34 2.32 34 3 C36.64 3 39.28 3 42 3 C43.09658936 6.28976808 42.79953138 7.71303767 42 11 C41.071875 10.814375 40.14375 10.62875 39.1875 10.4375 C35.98656229 9.75876119 35.98656229 9.75876119 33 11 C33 11.66 33 12.32 33 13 C31.125 12.75 31.125 12.75 29 12 C27.8125 10.0625 27.8125 10.0625 27 8 C26.67 7.34 26.34 6.68 26 6 C25.67 8.31 25.34 10.62 25 13 C24.34 13 23.68 13 23 13 C23 12.01 23 11.02 23 10 C22.01 9.67 21.02 9.34 20 9 C19.67 9.66 19.34 10.32 19 11 C16 11 13 11 10 11 C10 9.35 10 7.7 10 6 C9.34 6 8.68 6 8 6 C8 7.32 8 8.64 8 10 C5.41481845 11.01560704 4.3531775 11.14715729 1.75 10.0625 C-0.97901554 6.84616026 -0.2707357 4.12871935 0 0 Z M12 3 C16 4 16 4 16 4 Z M32 6 C33 8 33 8 33 8 Z " fill="#91BAD1" transform="translate(128,149)"/>
<path d="M0 0 C5.28 0 10.56 0 16 0 C15.95117188 4.44335938 15.95117188 4.44335938 15.90234375 8.88671875 C15.92483342 12.34036465 15.92483342 12.34036465 17 17 C11.39 16.34 5.78 15.68 0 15 C0 10.05 0 5.1 0 0 Z " fill="#098CD1" transform="translate(69,69)"/>
<path d="M0 0 C1.81218472 5.43655416 0.46528968 11.36482494 0 17 C-5.28 17 -10.56 17 -16 17 C-15.67 12.05 -15.34 7.1 -15 2 C-10.45898438 1.65820312 -10.45898438 1.65820312 -5.91796875 1.31640625 C-2.94010095 1.09787539 -2.94010095 1.09787539 0 0 Z " fill="#2896D0" transform="translate(83,162)"/>
<path d="M0 0 C5.28 0.33 10.56 0.66 16 1 C16 5.95 16 10.9 16 16 C10.72 16 5.44 16 0 16 C0 10.72 0 5.44 0 0 Z " fill="#028AD2" transform="translate(162,164)"/>
<path d="M0 0 C4.00292179 1.33430726 5.56271857 3.95279726 7.75390625 7.34375 C9.07385351 9.28857865 9.07385351 9.28857865 12 11 C12 11.66 12 12.32 12 13 C9.953125 14.98046875 9.953125 14.98046875 7.25 17.1875 C6.36828125 17.92355469 5.4865625 18.65960938 4.578125 19.41796875 C2 21 2 21 -0.09375 20.94921875 C-2.40306873 19.79929159 -3.93765244 18.46058279 -5.75 16.625 C-6.36359375 16.01914063 -6.9771875 15.41328125 -7.609375 14.7890625 C-9 13 -9 13 -9 10 C-7.5390625 8.53515625 -7.5390625 8.53515625 -5.625 7.0625 C-2.86654724 4.93406423 -1.37643903 3.21864278 0 0 Z " fill="#2493CE" transform="translate(122,180)"/>
<path d="M0 0 C4.95 0 9.9 0 15 0 C15 4.95 15 9.9 15 15 C7.08 15.495 7.08 15.495 -1 16 C-0.67 10.72 -0.34 5.44 0 0 Z " fill="#2A98D3" transform="translate(164,71)"/>
<path d="M0 0 C0.6987693 1.76641683 1.38366583 3.53832664 2.0625 5.3125 C2.44535156 6.29863281 2.82820313 7.28476563 3.22265625 8.30078125 C4 11 4 11 3 14 C0.8203125 15.38671875 0.8203125 15.38671875 -1.875 16.6875 C-3.20144531 17.34298828 -3.20144531 17.34298828 -4.5546875 18.01171875 C-7 19 -7 19 -10 19 C-10.81381795 17.06305322 -11.62600916 15.12542289 -12.4375 13.1875 C-12.88996094 12.10855469 -13.34242188 11.02960938 -13.80859375 9.91796875 C-14.60375013 7.9704874 -15.33479648 5.99561057 -16 4 C-13.89748139 3.32815382 -11.79292237 2.66269032 -9.6875 2 C-8.51574219 1.62875 -7.34398437 1.2575 -6.13671875 0.875 C-3 0 -3 0 0 0 Z " fill="#2694CF" transform="translate(190,142)"/>
<path d="M0 0 C3.65943647 0.68907122 7.22441959 1.56821266 10.8125 2.5625 C12.27623047 2.96662109 12.27623047 2.96662109 13.76953125 3.37890625 C14.50558594 3.58386719 15.24164063 3.78882813 16 4 C15.32756786 7.06797166 14.29931605 9.76841545 13 12.625 C12.649375 13.40101563 12.29875 14.17703125 11.9375 14.9765625 C11.31172863 16.3271857 10.66569856 17.66860289 10 19 C8.603522 18.54363464 7.2078492 18.08480512 5.8125 17.625 C4.64654297 17.24214844 4.64654297 17.24214844 3.45703125 16.8515625 C0.93632321 15.97793078 -1.53064278 15.00879602 -4 14 C-3.52188823 12.22888156 -3.0424722 10.45811517 -2.5625 8.6875 C-2.29566406 7.70136719 -2.02882812 6.71523437 -1.75390625 5.69921875 C-1.21920575 3.78482474 -0.62855462 1.88566385 0 0 Z " fill="#2594CF" transform="translate(56,140)"/>
<path d="M0 0 C8.36628849 7.05024311 8.36628849 7.05024311 11 10 C11 12 11 12 9.390625 13.65625 C8.68421875 14.2646875 7.9778125 14.873125 7.25 15.5 C6.55390625 16.1084375 5.8578125 16.716875 5.140625 17.34375 C3.15539208 18.87976963 1.28127955 19.9723966 -1 21 C-1.38671875 20.51789063 -1.7734375 20.03578125 -2.171875 19.5390625 C-2.69265625 18.90742188 -3.2134375 18.27578125 -3.75 17.625 C-4.26046875 16.99851563 -4.7709375 16.37203125 -5.296875 15.7265625 C-7.08199481 13.91687682 -8.67949644 12.99882545 -11 12 C-11 11.01 -11 10.02 -11 9 C-5.74285714 5 -5.74285714 5 -3 5 C-2.690625 4.360625 -2.38125 3.72125 -2.0625 3.0625 C-1 1 -1 1 0 0 Z " fill="#2594CF" transform="translate(190,115)"/>
<path d="M0 0 C3.78367691 1.73952943 6.08901998 4.01624548 9 7 C9.763125 7.556875 10.52625 8.11375 11.3125 8.6875 C11.869375 9.120625 12.42625 9.55375 13 10 C13 10.66 13 11.32 13 12 C11.35546875 13.40234375 11.35546875 13.40234375 9.1875 14.9375 C6.56469417 16.80547282 4.21550645 18.65869193 2 21 C-1.08693704 19.64147869 -3.08641734 18.15489047 -5.3125 15.625 C-5.84488281 15.03976563 -6.37726562 14.45453125 -6.92578125 13.8515625 C-8 12 -8 12 -7.890625 10.0390625 C-6.77892037 7.49384401 -5.31196143 5.79486702 -3.4375 3.75 C-2.79683594 3.04359375 -2.15617187 2.3371875 -1.49609375 1.609375 C-0.75552734 0.81273438 -0.75552734 0.81273438 0 0 Z " fill="#1F91CD" transform="translate(55,113)"/>
<path d="M0 0 C1.484375 2.43359375 1.484375 2.43359375 2.75 5.4375 C3.17796875 6.42621094 3.6059375 7.41492188 4.046875 8.43359375 C5 11 5 11 5 13 C4.31292969 13.19335938 3.62585938 13.38671875 2.91796875 13.5859375 C2.01691406 13.84632812 1.11585938 14.10671875 0.1875 14.375 C-0.70582031 14.63023438 -1.59914062 14.88546875 -2.51953125 15.1484375 C-5.20467896 15.95266661 -5.20467896 15.95266661 -8 18 C-8.99 18 -9.98 18 -11 18 C-11.12117187 17.41992188 -11.24234375 16.83984375 -11.3671875 16.2421875 C-12.33735474 11.71971558 -13.43397783 7.36249034 -15 3 C-13.25531628 2.29911844 -11.50398839 1.61475991 -9.75 0.9375 C-8.77546875 0.55464844 -7.8009375 0.17179687 -6.796875 -0.22265625 C-2.61318871 -1.38544057 -2.61318871 -1.38544057 0 0 Z " fill="#2695CF" transform="translate(155,56)"/>
<path d="M0 0 C8.36628849 7.05024311 8.36628849 7.05024311 11 10 C11 10.66 11 11.32 11 12 C10.278125 12.391875 9.55625 12.78375 8.8125 13.1875 C5.58978848 15.26435854 4.13952841 17.38634455 2.11328125 20.57421875 C1.74589844 21.04472656 1.37851563 21.51523438 1 22 C0.34 22 -0.32 22 -1 22 C-1.61875 20.9171875 -1.61875 20.9171875 -2.25 19.8125 C-4.41209199 16.33770929 -6.78128078 14.50344829 -10 12 C-9.49452628 7.91944849 -7.49911118 6.33727705 -4.4375 3.75 C-3.61121094 3.04359375 -2.78492187 2.3371875 -1.93359375 1.609375 C-1.29550781 1.07828125 -0.65742187 0.5471875 0 0 Z " fill="#2392CE" transform="translate(123,48)"/>
<path d="M0 0 C0.66 0 1.32 0 2 0 C2.67184618 2.10251861 3.33730968 4.20707763 4 6.3125 C4.37125 7.48425781 4.7425 8.65601563 5.125 9.86328125 C6 13 6 13 6 16 C4.23358317 16.6987693 2.46167336 17.38366583 0.6875 18.0625 C-0.29863281 18.44535156 -1.28476563 18.82820313 -2.30078125 19.22265625 C-5 20 -5 20 -8 19 C-9.38671875 16.56640625 -9.38671875 16.56640625 -10.6875 13.5625 C-11.12449219 12.57378906 -11.56148438 11.58507812 -12.01171875 10.56640625 C-13 8 -13 8 -13 6 C-12.22914062 5.73445312 -11.45828125 5.46890625 -10.6640625 5.1953125 C-9.66117187 4.84210938 -8.65828125 4.48890625 -7.625 4.125 C-6.62726563 3.77695313 -5.62953125 3.42890625 -4.6015625 3.0703125 C-1.89557882 2.15217498 -1.89557882 2.15217498 0 0 Z " fill="#2493CE" transform="translate(100,175)"/>
<path d="M0 0 C2.95360757 0.63433183 5.39025724 1.59951825 8.0625 3 C10.39883016 4.21973475 12.4830547 5.16101823 15 6 C13.58707905 10.8274799 11.57025846 14.7162359 9 19 C3.72250715 18.46148032 -0.25645564 17.22656164 -5 15 C-4.731875 14.38125 -4.46375 13.7625 -4.1875 13.125 C-2.5516213 8.82005607 -1.28728674 4.41968448 0 0 Z " fill="#2594CF" transform="translate(143,176)"/>
<path d="M0 0 C5.54050113 0.56825653 10.03715966 2.62886517 15 5 C14.72285156 5.66386719 14.44570312 6.32773437 14.16015625 7.01171875 C13.79792969 7.89472656 13.43570313 8.77773438 13.0625 9.6875 C12.70285156 10.55761719 12.34320313 11.42773438 11.97265625 12.32421875 C11.0429688 14.88179265 10.45837375 17.3221323 10 20 C9.18789062 19.57074219 9.18789062 19.57074219 8.359375 19.1328125 C5.70680653 17.8592283 3.02068518 16.86453042 0.25 15.875 C-0.73484375 15.52179688 -1.7196875 15.16859375 -2.734375 14.8046875 C-3.48203125 14.53914063 -4.2296875 14.27359375 -5 14 C-4.40099158 10.45008694 -3.44788874 7.45188857 -1.9375 4.1875 C-1.39416016 3.00220703 -1.39416016 3.00220703 -0.83984375 1.79296875 C-0.56269531 1.20128906 -0.28554687 0.60960937 0 0 Z " fill="#2895CF" transform="translate(94,54)"/>
<path d="M0 0 C3.02940618 1.51470309 3.64960546 3.9403821 5.125 6.9375 C5.66382812 8.01902344 6.20265625 9.10054687 6.7578125 10.21484375 C8 13 8 13 8 15 C6.08333333 15.47916667 4.16666667 15.95833333 2.25 16.4375 C1.18265625 16.70433594 0.1153125 16.97117187 -0.984375 17.24609375 C-3.6875 17.921875 -3.6875 17.921875 -6.390625 18.59765625 C-7.18726563 18.79681641 -7.18726563 18.79681641 -8 19 C-8.67260351 17.23141309 -9.33788395 15.46003984 -10 13.6875 C-10.37125 12.70136719 -10.7425 11.71523437 -11.125 10.69921875 C-12 8 -12 8 -12 5 C-10.04578965 4.13644222 -8.08648653 3.28440066 -6.125 2.4375 C-5.03445312 1.96183594 -3.94390625 1.48617187 -2.8203125 0.99609375 C-1.88960937 0.66738281 -0.95890625 0.33867188 0 0 Z " fill="#2795CF" transform="translate(65,89)"/>
<path d="M0 0 C1.2065625 0.0309375 1.2065625 0.0309375 2.4375 0.0625 C2.7675 1.0525 3.0975 2.0425 3.4375 3.0625 C12.0175 2.7325 20.5975 2.4025 29.4375 2.0625 C29.4375 3.0525 29.4375 4.0425 29.4375 5.0625 C26.9625 4.5675 26.9625 4.5675 24.4375 4.0625 C24.4375 6.0425 24.4375 8.0225 24.4375 10.0625 C22.95843108 10.08939216 21.47922517 10.10884621 20 10.125 C18.76443359 10.14240234 18.76443359 10.14240234 17.50390625 10.16015625 C15.4375 10.0625 15.4375 10.0625 14.4375 9.0625 C14.1075 10.3825 13.7775 11.7025 13.4375 13.0625 C11.7875 12.7325 10.1375 12.4025 8.4375 12.0625 C8.4375 11.0725 8.4375 10.0825 8.4375 9.0625 C7.4475 9.3925 6.4575 9.7225 5.4375 10.0625 C5.4375 10.7225 5.4375 11.3825 5.4375 12.0625 C2.77083333 11.39583333 0.10416667 10.72916667 -2.5625 10.0625 C-2.75662181 8.58418779 -2.94262131 7.10480684 -3.125 5.625 C-3.22941406 4.80128906 -3.33382812 3.97757813 -3.44140625 3.12890625 C-3.48136719 2.44699219 -3.52132812 1.76507813 -3.5625 1.0625 C-2.5625 0.0625 -2.5625 0.0625 0 0 Z M19.4375 6.0625 C20.4375 8.0625 20.4375 8.0625 20.4375 8.0625 Z " fill="#5798BE" transform="translate(90.5625,149.9375)"/>
<path d="M0 0 C5.06998019 0.65419099 9.41990777 2.8546409 14 5 C12.45941767 10.01508715 10.97068161 14.6147081 8 19 C6.989375 18.54625 5.97875 18.0925 4.9375 17.625 C1.35276996 16.08137135 -2.23002669 15.000197 -6 14 C-4.16508812 9.25981099 -2.08058541 4.63586749 0 0 Z " fill="#2594CF" transform="translate(181,91)"/>
<path d="M0 0 C0.33 -0.33 0.66 -0.66 1 -1 C3.67058851 -1.14115161 6.32432238 -1.04247107 9 -1 C9.33 0.32 9.66 1.64 10 3 C9.34 3 8.68 3 8 3 C8 4.32 8 5.64 8 7 C8.66 7 9.32 7 10 7 C10 8.32 10 9.64 10 11 C4.72 11 -0.56 11 -6 11 C-6.33 9.68 -6.66 8.36 -7 7 C-4.525 7.99 -4.525 7.99 -2 9 C-2.845625 8.2575 -3.69125 7.515 -4.5625 6.75 C-7 4 -7 4 -6.9375 1.75 C-5.09858056 -1.68264962 -3.28710506 -0.84828518 0 0 Z M-3 1 C-3 1.99 -3 2.98 -3 4 C-2.34 3.67 -1.68 3.34 -1 3 C-1.66 2.34 -2.32 1.68 -3 1 Z M1 1 C0.34 2.32 -0.32 3.64 -1 5 C-0.34 5 0.32 5 1 5 C1.33 6.32 1.66 7.64 2 9 C2 6.36 2 3.72 2 1 C1.67 1 1.34 1 1 1 Z M5 2 C5.33 2.66 5.66 3.32 6 4 C6.33 3.34 6.66 2.68 7 2 C6.34 2 5.68 2 5 2 Z M5 6 C5 6.99 5 7.98 5 9 C5.99 9 6.98 9 8 9 C8 8.34 8 7.68 8 7 C7.01 6.67 6.02 6.34 5 6 Z " fill="#6DA7C8" transform="translate(107,136)"/>
<path d="M0 0 C3.14737182 0.69941596 6.02588876 1.76078698 9 3 C9.99 2.01 10.98 1.02 12 0 C13.98 0.66 15.96 1.32 18 2 C18 2.66 18 3.32 18 4 C18.66 4.33 19.32 4.66 20 5 C19.34 5 18.68 5 18 5 C18 6.65 18 8.3 18 10 C15.10765685 10.82638376 13.11257569 11 10 11 C10 9.35 10 7.7 10 6 C9.34 6 8.68 6 8 6 C8 7.32 8 8.64 8 10 C5.41481845 11.01560704 4.3531775 11.14715729 1.75 10.0625 C-0.97901554 6.84616026 -0.2707357 4.12871935 0 0 Z M12 3 C16 4 16 4 16 4 Z " fill="#7EAEC9" transform="translate(128,149)"/>
<path d="M0 0 C0.66 0 1.32 0 2 0 C1.67 2.97 1.34 5.94 1 9 C2.98 9 4.96 9 7 9 C7 9.99 7 10.98 7 12 C4.36 12.33 1.72 12.66 -1 13 C-1.12117188 13.70125 -1.24234375 14.4025 -1.3671875 15.125 C-2.37304502 20.81970105 -3.52311628 26.40894019 -5 32 C-5.66 32 -6.32 32 -7 32 C-7.40214229 25.83381819 -5.96818336 20.82254243 -4 15 C-5.98 15.33 -7.96 15.66 -10 16 C-6 12 -6 12 -4.46875 10.65625 C-2.68210784 8.64152586 -2.09347951 6.87857552 -1.3125 4.3125 C-1.06113281 3.50425781 -0.80976562 2.69601563 -0.55078125 1.86328125 C-0.36902344 1.24839844 -0.18726562 0.63351563 0 0 Z " fill="#6FAACB" transform="translate(121,94)"/>
<path d="M0 0 C3.3 0 6.6 0 10 0 C9.67 3.3 9.34 6.6 9 10 C9.66 10 10.32 10 11 10 C11 9.01 11 8.02 11 7 C11.66 7 12.32 7 13 7 C13 8.65 13 10.3 13 12 C8.71 12 4.42 12 0 12 C0 8.04 0 4.08 0 0 Z M4 2 C4 4.64 4 7.28 4 10 C4.66 10 5.32 10 6 10 C6 7.36 6 4.72 6 2 C5.34 2 4.68 2 4 2 Z " fill="#8FBDD6" transform="translate(83,135)"/>
<path d="M0 0 C1.2065625 0.0309375 1.2065625 0.0309375 2.4375 0.0625 C2.7675 1.0525 3.0975 2.0425 3.4375 3.0625 C12.0175 2.7325 20.5975 2.4025 29.4375 2.0625 C29.4375 3.0525 29.4375 4.0425 29.4375 5.0625 C26.9625 4.5675 26.9625 4.5675 24.4375 4.0625 C24.4375 5.7125 24.4375 7.3625 24.4375 9.0625 C24.1075 9.0625 23.7775 9.0625 23.4375 9.0625 C23.4375 7.4125 23.4375 5.7625 23.4375 4.0625 C22.7775 4.0625 22.1175 4.0625 21.4375 4.0625 C21.4375 5.7125 21.4375 7.3625 21.4375 9.0625 C21.1075 8.0725 20.7775 7.0825 20.4375 6.0625 C19.7775 6.0625 19.1175 6.0625 18.4375 6.0625 C18.1075 6.7225 17.7775 7.3825 17.4375 8.0625 C17.4375 7.0725 17.4375 6.0825 17.4375 5.0625 C9.72810906 4.20168184 9.72810906 4.20168184 2.53125 6.17578125 C1.08544607 7.68574477 1.08544607 7.68574477 -0.5625 10.0625 C-1.2225 10.0625 -1.8825 10.0625 -2.5625 10.0625 C-2.75662181 8.58418779 -2.94262131 7.10480684 -3.125 5.625 C-3.22941406 4.80128906 -3.33382812 3.97757813 -3.44140625 3.12890625 C-3.48136719 2.44699219 -3.52132812 1.76507813 -3.5625 1.0625 C-2.5625 0.0625 -2.5625 0.0625 0 0 Z " fill="#1979AD" transform="translate(90.5625,149.9375)"/>
<path d="M0 0 C1.19882812 0.00483398 1.19882812 0.00483398 2.421875 0.00976562 C3.246875 0.01814453 4.071875 0.02652344 4.921875 0.03515625 C5.76234375 0.03966797 6.6028125 0.04417969 7.46875 0.04882812 C9.53648901 0.06057664 11.60419124 0.07851103 13.671875 0.09765625 C13.671875 0.42765625 13.671875 0.75765625 13.671875 1.09765625 C7.071875 1.42765625 0.471875 1.75765625 -6.328125 2.09765625 C-6.328125 8.69765625 -6.328125 15.29765625 -6.328125 22.09765625 C-1.378125 22.09765625 3.571875 22.09765625 8.671875 22.09765625 C8.671875 22.42765625 8.671875 22.75765625 8.671875 23.09765625 C0.256875 23.59265625 0.256875 23.59265625 -8.328125 24.09765625 C-8.328125 16.50765625 -8.328125 8.91765625 -8.328125 1.09765625 C-5.18121725 0.31092931 -3.1343629 -0.02238831 0 0 Z " fill="#7AA1C0" transform="translate(44.328125,37.90234375)"/>
<path d="M0 0 C0 0.33 0 0.66 0 1 C-0.65226562 1.15855469 -1.30453125 1.31710938 -1.9765625 1.48046875 C-7.81310862 3.03860274 -11.89832511 4.47764051 -16 9 C-17.10440787 12.68135956 -17.21684495 14.34946515 -16 18 C-17.9375 17.3125 -17.9375 17.3125 -20 16 C-21.28558102 12.91460556 -21.07760433 11.2805695 -20.1875 8.0625 C-15.08842948 0.92380127 -8.48140412 -2.19888255 0 0 Z " fill="#549CC5" transform="translate(126,88)"/>
<path d="M0 0 C3.3 0 6.6 0 10 0 C10.33 0.99 10.66 1.98 11 3 C10.34 3 9.68 3 9 3 C9.33 4.65 9.66 6.3 10 8 C9.01 7.67 8.02 7.34 7 7 C6.67 7.99 6.34 8.98 6 10 C3.525 9.01 3.525 9.01 1 8 C0.67 5.36 0.34 2.72 0 0 Z " fill="#76A9C6" transform="translate(75,152)"/>
<path d="M0 0 C1.27875 0.103125 2.5575 0.20625 3.875 0.3125 C4.95394531 0.39951172 4.95394531 0.39951172 6.0546875 0.48828125 C8 1 8 1 10 4 C9.55555556 9.44444444 9.55555556 9.44444444 7 12 C3.375 12.125 3.375 12.125 0 12 C0 8.04 0 4.08 0 0 Z M3 3 C3 5.31 3 7.62 3 10 C4.32 9.67 5.64 9.34 7 9 C7 7.35 7 5.7 7 4 C5.68 3.67 4.36 3.34 3 3 Z " fill="#569BC2" transform="translate(73,135)"/>
<path d="M0 0 C0 1.32 0 2.64 0 4 C-6.24161903 7.58125682 -10.75420281 9.67090715 -18 9 C-18.33 8.01 -18.66 7.02 -19 6 C-17.2675 5.9071875 -17.2675 5.9071875 -15.5 5.8125 C-11.12872054 5.30005871 -8.29864086 3.59111607 -4.76171875 1.05859375 C-3 0 -3 0 0 0 Z " fill="#2E93C9" transform="translate(124,125)"/>
<path d="M0 0 C5.28 0.33 10.56 0.66 16 1 C16 5.95 16 10.9 16 16 C10.72 16 5.44 16 0 16 C0.33 13.03 0.66 10.06 1 7 C1.33 7 1.66 7 2 7 C2 9.31 2 11.62 2 14 C6.29 14.33 10.58 14.66 15 15 C15 11.04 15 7.08 15 3 C10.38 3 5.76 3 1 3 C0.67 3.66 0.34 4.32 0 5 C0 3.35 0 1.7 0 0 Z " fill="#77AFCD" transform="translate(162,164)"/>
<path d="M0 0 C0.02688151 1.64574566 0.04634123 3.29161413 0.0625 4.9375 C0.07410156 5.85402344 0.08570313 6.77054688 0.09765625 7.71484375 C0 10 0 10 -1 11 C-2.99958364 11.04080783 -5.00045254 11.04254356 -7 11 C-7.33 10.01 -7.66 9.02 -8 8 C-5.525 8.495 -5.525 8.495 -3 9 C-3 8.34 -3 7.68 -3 7 C-5.475 6.01 -5.475 6.01 -8 5 C-7.625 2.5625 -7.625 2.5625 -7 0 C-4.3333581 -1.33332095 -2.83319697 -0.67102033 0 0 Z M-6 2 C-4.02 2.99 -4.02 2.99 -2 4 C-2.33 3.34 -2.66 2.68 -3 2 C-3.99 2 -4.98 2 -6 2 Z " fill="#569BC2" transform="translate(174,136)"/>
<path d="M0 0 C1.91635217 -0.05423638 3.83314925 -0.09289963 5.75 -0.125 C7.35101563 -0.15980469 7.35101563 -0.15980469 8.984375 -0.1953125 C11.98109254 -0.00122458 13.54134409 0.32767098 16 2 C18.35119399 5.52679099 18.21443452 7.02879485 18.125 11.1875 C18.10695312 12.27417969 18.08890625 13.36085938 18.0703125 14.48046875 C18.04710937 15.31191406 18.02390625 16.14335938 18 17 C17.67 17 17.34 17 17 17 C16.9175 15.96875 16.835 14.9375 16.75 13.875 C15.87447731 9.35146612 15.27618783 7.27618783 12 4 C8.03493011 2.89653847 4.09321257 2.37328039 0 2 C0 1.34 0 0.68 0 0 Z " fill="#4095C5" transform="translate(121,86)"/>
<path d="M0 0 C0.99 0 1.98 0 3 0 C3 2.31 3 4.62 3 7 C3.66 7 4.32 7 5 7 C5 8.32 5 9.64 5 11 C4.01 10.67 3.02 10.34 2 10 C1.67 9.01 1.34 8.02 1 7 C0.34 8.32 -0.32 9.64 -1 11 C-1.66 11 -2.32 11 -3 11 C-5.42857143 4.71428571 -5.42857143 4.71428571 -4 1 C-3.34 1.66 -2.68 2.32 -2 3 C-1.34 2.01 -0.68 1.02 0 0 Z " fill="#69A6C8" transform="translate(141,136)"/>
<path d="M0 0 C5.28 0 10.56 0 16 0 C15.67 0.66 15.34 1.32 15 2 C8.07 1.505 8.07 1.505 1 1 C1 5.29 1 9.58 1 14 C5.29 14 9.58 14 14 14 C14.33 13.01 14.66 12.02 15 11 C15.66 12.98 16.32 14.96 17 17 C11.39 16.34 5.78 15.68 0 15 C0 10.05 0 5.1 0 0 Z " fill="#A2BBCA" transform="translate(69,69)"/>
<path d="M0 0 C0.33 0 0.66 0 1 0 C1.31806054 7.7276932 1.32270836 13.93924474 -2 21 C-2.66 20.67 -3.32 20.34 -4 20 C-4.33 20.66 -4.66 21.32 -5 22 C-5.66 22 -6.32 22 -7 22 C-5 16 -5 16 -3.9375 13.0625 C-2.89017939 9.93591436 -2.89017939 9.93591436 -2.5 6.3125 C-2 3 -2 3 0 0 Z " fill="#66A8CC" transform="translate(139,93)"/>
<path d="M0 0 C-0.66 0.66 -1.32 1.32 -2 2 C-1.34 2.66 -0.68 3.32 0 4 C0.33 2.68 0.66 1.36 1 0 C1.66 0 2.32 0 3 0 C3.33 1.98 3.66 3.96 4 6 C2.56260487 6.02712066 1.12506137 6.04645067 -0.3125 6.0625 C-1.51326172 6.07990234 -1.51326172 6.07990234 -2.73828125 6.09765625 C-5 6 -5 6 -8 5 C-8 4.34 -8 3.68 -8 3 C-8.99 3.33 -9.98 3.66 -11 4 C-10.67 3.01 -10.34 2.02 -10 1 C-6.78548731 -0.60725635 -3.56387464 -0.05748185 0 0 Z " fill="#93BAD1" transform="translate(111,154)"/>
<path d="M0 0 C0.66 0.33 1.32 0.66 2 1 C0.33943057 2.89779364 -1.32197365 4.79473681 -2.98828125 6.6875 C-4.31605546 8.21379579 -5.62649585 9.75536771 -6.91796875 11.3125 C-7.52253906 12.034375 -8.12710938 12.75625 -8.75 13.5 C-9.57757813 14.50546875 -9.57757813 14.50546875 -10.421875 15.53125 C-12 17 -12 17 -15 17 C-15 14 -15 14 -13.49609375 12.421875 C-12.81675781 11.87015625 -12.13742188 11.3184375 -11.4375 10.75 C-7.39405346 7.36964986 -3.67272787 3.77602335 0 0 Z " fill="#3776AD" transform="translate(122,3)"/>
<path d="M0 0 C0.99 0 1.98 0 3 0 C3.45510807 6.67491831 1.7672426 12.59374557 0 19 C-0.66 19 -1.32 19 -2 19 C-2.41817539 12.4485856 -0.93688163 6.87376326 2 1 C1.34 0.67 0.68 0.34 0 0 Z " fill="#5DA0C5" transform="translate(116,107)"/>
<path d="M0 0 C2.97 0 5.94 0 9 0 C8.67 2.31 8.34 4.62 8 7 C5.03 6.505 5.03 6.505 2 6 C2 4.68 2 3.36 2 2 C1.34 1.34 0.68 0.68 0 0 Z " fill="#6DA4C3" transform="translate(162,153)"/>
<path d="M0 0 C1.65 0 3.3 0 5 0 C4.67 3.3 4.34 6.6 4 10 C4.99 10.33 5.98 10.66 7 11 C5.02 11 3.04 11 1 11 C0.67 7.37 0.34 3.74 0 0 Z " fill="#74ACCC" transform="translate(158,135)"/>
<path d="M0 0 C2 1.375 2 1.375 4 3 C4 3.66 4 4.32 4 5 C3.34 5 2.68 5 2 5 C2 5.99 2 6.98 2 8 C2.99 8 3.98 8 5 8 C5 7.34 5 6.68 5 6 C5.66 6 6.32 6 7 6 C7 7.32 7 8.64 7 10 C4.03 10 1.06 10 -2 10 C-2 9.34 -2 8.68 -2 8 C-1.34 8 -0.68 8 0 8 C0 5.36 0 2.72 0 0 Z " fill="#539AC1" transform="translate(128,137)"/>
<path d="M0 0 C2.64 0 5.28 0 8 0 C8.33 1.32 8.66 2.64 9 4 C8.34 4 7.68 4 7 4 C7 5.32 7 6.64 7 8 C6.34 8 5.68 8 5 8 C4.34 8.66 3.68 9.32 3 10 C3 7.36 3 4.72 3 2 C2.01 2 1.02 2 0 2 C0 1.34 0 0.68 0 0 Z M4 3 C4.33 3.66 4.66 4.32 5 5 C5.33 4.34 5.66 3.68 6 3 C5.34 3 4.68 3 4 3 Z " fill="#8EB7CD" transform="translate(108,135)"/>
<path d="M0 0 C2.72426311 2.35277269 3.8141763 4.62496331 5 8 C7.64 8 10.28 8 13 8 C12.67 8.66 12.34 9.32 12 10 C8.61964088 10.62599243 5.43830115 11 2 11 C-0.67927341 6.98108988 -0.15601248 4.75838077 0 0 Z " fill="#67A6C9" transform="translate(101,121)"/>
<path d="M0 0 C1.98 0 3.96 0 6 0 C6 2.64 6 5.28 6 8 C4.125 7.75 4.125 7.75 2 7 C0.27898465 4.41847698 0 3.15081975 0 0 Z " fill="#71A7C5" transform="translate(155,154)"/>
<path d="M0 0 C1.2065625 0.0309375 1.2065625 0.0309375 2.4375 0.0625 C2.4375 1.0525 2.4375 2.0425 2.4375 3.0625 C1.4475 3.0625 0.4575 3.0625 -0.5625 3.0625 C0.4275 3.7225 1.4175 4.3825 2.4375 5.0625 C1.7775 5.0625 1.1175 5.0625 0.4375 5.0625 C0.1075 6.7125 -0.2225 8.3625 -0.5625 10.0625 C-1.2225 10.0625 -1.8825 10.0625 -2.5625 10.0625 C-2.75662181 8.58418779 -2.94262131 7.10480684 -3.125 5.625 C-3.22941406 4.80128906 -3.33382812 3.97757813 -3.44140625 3.12890625 C-3.48136719 2.44699219 -3.52132812 1.76507813 -3.5625 1.0625 C-2.5625 0.0625 -2.5625 0.0625 0 0 Z " fill="#70A5C2" transform="translate(90.5625,149.9375)"/>
<path d="M0 0 C-0.66 0 -1.32 0 -2 0 C-2 1.65 -2 3.3 -2 5 C-3.32 5.33 -4.64 5.66 -6 6 C-6.103125 5.21625 -6.20625 4.4325 -6.3125 3.625 C-6.77595022 0.66954819 -6.77595022 0.66954819 -10 -1 C-3.375 -2.25 -3.375 -2.25 0 0 Z " fill="#458EB7" transform="translate(148,154)"/>
<path d="M0 0 C2.64 0.33 5.28 0.66 8 1 C7.34 1.391875 6.68 1.78375 6 2.1875 C3.70833333 3.85416667 3.70833333 3.85416667 3.75 6.6875 C3.8325 7.450625 3.915 8.21375 4 9 C3.01 9.33 2.02 9.66 1 10 C0.67 6.7 0.34 3.4 0 0 Z " fill="#85B6D1" transform="translate(73,135)"/>
<path d="M0 0 C1.32 0.66 2.64 1.32 4 2 C3.34 2 2.68 2 2 2 C2.33 2.99 2.66 3.98 3 5 C-2.94 5 -8.88 5 -15 5 C-14.67 4.34 -14.34 3.68 -14 3 C-11.69 3.33 -9.38 3.66 -7 4 C-7.33 3.01 -7.66 2.02 -8 1 C-7.34 1 -6.68 1 -6 1 C-5.67 1.66 -5.34 2.32 -5 3 C-3.35 3 -1.7 3 0 3 C0 2.01 0 1.02 0 0 Z " fill="#A2C4D7" transform="translate(164,142)"/>
<path d="M0 0 C0.99 0.33 1.98 0.66 3 1 C2.67 4.96 2.34 8.92 2 13 C0.35 13 -1.3 13 -3 13 C-3 12.34 -3 11.68 -3 11 C-2.01 11 -1.02 11 0 11 C0 7.37 0 3.74 0 0 Z " fill="#6EABCE" transform="translate(122,136)"/>
<path d="M0 0 C1.32 0 2.64 0 4 0 C4 3.3 4 6.6 4 10 C3.01 10 2.02 10 1 10 C0.67 6.7 0.34 3.4 0 0 Z " fill="#67A6C9" transform="translate(83,136)"/>
<path d="M0 0 C0.928125 0.0825 1.85625 0.165 2.8125 0.25 C2.8125 0.58 2.8125 0.91 2.8125 1.25 C1.1625 1.25 -0.4875 1.25 -2.1875 1.25 C-2.1875 1.91 -2.1875 2.57 -2.1875 3.25 C-1.1975 3.58 -0.2075 3.91 0.8125 4.25 C-0.1775 4.91 -1.1675 5.57 -2.1875 6.25 C-2.1875 6.91 -2.1875 7.57 -2.1875 8.25 C-3.5075 7.92 -4.8275 7.59 -6.1875 7.25 C-6.1875 4.25 -6.1875 4.25 -5.0625 2.0625 C-3.1875 0.25 -3.1875 0.25 0 0 Z " fill="#94B5C8" transform="translate(98.1875,153.75)"/>
<path d="M0 0 C1.875 0.3125 1.875 0.3125 4 1 C4.66 1.99 5.32 2.98 6 4 C5.319375 3.87625 4.63875 3.7525 3.9375 3.625 C-0.48857814 4.19003125 -2.8748453 6.9739136 -6 10 C-6.66 9.67 -7.32 9.34 -8 9 C-7.50628906 8.51789063 -7.01257813 8.03578125 -6.50390625 7.5390625 C-5.86324219 6.90742187 -5.22257813 6.27578125 -4.5625 5.625 C-3.92441406 4.99851562 -3.28632813 4.37203125 -2.62890625 3.7265625 C-0.92117824 2.08276939 -0.92117824 2.08276939 0 0 Z " fill="#648FB4" transform="translate(228,108)"/>
<path d="M0 0 C0.66 0.33 1.32 0.66 2 1 C2.33 2.65 2.66 4.3 3 6 C-2.28 5.34 -7.56 4.68 -13 4 C-13 3.67 -13 3.34 -13 3 C-8.71 3 -4.42 3 0 3 C0 2.01 0 1.02 0 0 Z " fill="#60A3C8" transform="translate(83,80)"/>
<path d="M0 0 C-0.72316406 0.61488281 -0.72316406 0.61488281 -1.4609375 1.2421875 C-2.09257813 1.78101562 -2.72421875 2.31984375 -3.375 2.875 C-4.00148438 3.40867187 -4.62796875 3.94234375 -5.2734375 4.4921875 C-6.55836651 5.61432007 -7.79371975 6.79371975 -9 8 C-9.33 6.35 -9.66 4.7 -10 3 C-3.375 -1.125 -3.375 -1.125 0 0 Z " fill="#569DC6" transform="translate(116,110)"/>
<path d="M0 0 C2.31 0 4.62 0 7 0 C6.34 0.66 5.68 1.32 5 2 C5 3.32 5 4.64 5 6 C4.01 6 3.02 6 2 6 C1.67 6.66 1.34 7.32 1 8 C0.34 7.67 -0.32 7.34 -1 7 C-0.67 4.69 -0.34 2.38 0 0 Z " fill="#95BED4" transform="translate(146,152)"/>
<path d="M0 0 C0.99 0 1.98 0 3 0 C3 2.31 3 4.62 3 7 C3.66 7 4.32 7 5 7 C5 8.32 5 9.64 5 11 C4.01 10.67 3.02 10.34 2 10 C2 8.02 2 6.04 2 4 C1.34 4 0.68 4 0 4 C0 2.68 0 1.36 0 0 Z " fill="#4994BE" transform="translate(141,136)"/>
<path d="M0 0 C3.3 0.33 6.6 0.66 10 1 C9.67 1.66 9.34 2.32 9 3 C6.36 3 3.72 3 1 3 C0.67 2.01 0.34 1.02 0 0 Z " fill="#3E99CD" transform="translate(105,131)"/>
<path d="M0 0 C0.66 0 1.32 0 2 0 C2.66 2.64 3.32 5.28 4 8 C2.0625 7.3125 2.0625 7.3125 0 6 C-0.8125 3.4375 -0.8125 3.4375 -1 1 C-0.67 0.67 -0.34 0.34 0 0 Z " fill="#74ABC9" transform="translate(106,98)"/>
<path d="M0 0 C2.31 0.33 4.62 0.66 7 1 C4.66785852 2.20628008 2.50357861 3.1654738 0 4 C-0.73323796 6.01508358 -0.73323796 6.01508358 -1 8 C-0.67 5.36 -0.34 2.72 0 0 Z " fill="#639EC5" transform="translate(45,160)"/>
<path d="M0 0 C0 1.32 0 2.64 0 4 C-2.02045442 3.39816251 -4.02111039 2.72693904 -6 2 C-6.33 1.34 -6.66 0.68 -7 0 C-4.3333581 -1.33332095 -2.83319697 -0.67102033 0 0 Z " fill="#8CB7CF" transform="translate(174,136)"/>
<path d="M0 0 C0.33 0.66 0.66 1.32 1 2 C0.360625 2.78375 -0.27875 3.5675 -0.9375 4.375 C-2.98142313 6.79539281 -2.98142313 6.79539281 -4 9 C-4.66 7.68 -5.32 6.36 -6 5 C-4.02 3.35 -2.04 1.7 0 0 Z " fill="#4E82AF" transform="translate(113,224)"/>
<path d="M0 0 C0.94875 0.350625 1.8975 0.70125 2.875 1.0625 C0.875 3.0625 0.875 3.0625 -2.25 3.1875 C-3.673125 3.125625 -3.673125 3.125625 -5.125 3.0625 C-5.125 2.0725 -5.125 1.0825 -5.125 0.0625 C-3.125 -0.9375 -3.125 -0.9375 0 0 Z " fill="#7AAECB" transform="translate(143.125,149.9375)"/>
<path d="M0 0 C0.66 0 1.32 0 2 0 C2 1.32 2 2.64 2 4 C-0.5 5.75 -0.5 5.75 -3 7 C-2.25 2.25 -2.25 2.25 0 0 Z " fill="#2F71AA" transform="translate(123,212)"/>
<path d="M0 0 C0.66 0 1.32 0 2 0 C2 0.66 2 1.32 2 2 C3.32 2.66 4.64 3.32 6 4 C5.67 4.66 5.34 5.32 5 6 C2.525 5.01 2.525 5.01 0 4 C0 2.68 0 1.36 0 0 Z " fill="#6AA5C6" transform="translate(166,137)"/>
<path d="M0 0 C1.32 0.33 2.64 0.66 4 1 C4 3.64 4 6.28 4 9 C3.34 9 2.68 9 2 9 C2 8.01 2 7.02 2 6 C1.34 5.67 0.68 5.34 0 5 C0.66 5 1.32 5 2 5 C2 3.68 2 2.36 2 1 C1.34 0.67 0.68 0.34 0 0 Z " fill="#4C93BA" transform="translate(149,153)"/>
<path d="M0 0 C2.475 0.495 2.475 0.495 5 1 C4.67 2.32 4.34 3.64 4 5 C2.68 4.34 1.36 3.68 0 3 C0 2.01 0 1.02 0 0 Z " fill="#629DBF" transform="translate(115,154)"/>
<path d="M0 0 C0.66 0.66 1.32 1.32 2 2 C1.625 5.125 1.625 5.125 1 8 C0.67 7.34 0.34 6.68 0 6 C-0.66 6 -1.32 6 -2 6 C-2 5.01 -2 4.02 -2 3 C-1.34 3 -0.68 3 0 3 C0 2.01 0 1.02 0 0 Z " fill="#96BCD1" transform="translate(146,137)"/>
</svg>
